<?xml version="1.0" encoding="UTF-8" standalone="no"?>
<!DOCTYPE svg PUBLIC "-//W3C//DTD SVG 1.1//EN"
 "http://www.w3.org/Graphics/SVG/1.1/DTD/svg11.dtd">
<!-- Generated by graphviz version 2.40.1 (20161225.0304)
 -->
<!-- Title: dependencies Pages: 1 -->
<svg width="696pt" height="284pt"
 viewBox="0.00 0.00 696.00 284.00" xmlns="http://www.w3.org/2000/svg" xmlns:xlink="http://www.w3.org/1999/xlink">
<g id="graph0" class="graph" transform="scale(1 1) rotate(0) translate(4 280)">
<title>dependencies</title>
<polygon fill="#ffffff" stroke="transparent" points="-4,4 -4,-280 692,-280 692,4 -4,4"/>
<text text-anchor="start" x="323.0091" y="-42.4" font-family="sans-serif" font-weight="bold" font-size="14.00" fill="#000000">Legend</text>
<polygon fill="#ffffb3" stroke="transparent" points="110,-10 110,-30 130,-30 130,-10 110,-10"/>
<text text-anchor="start" x="133.629" y="-15.4" font-family="sans-serif" font-size="14.00" fill="#000000"> &#160;Declarations</text>
<polygon fill="#8dd3c7" stroke="transparent" points="223,-10 223,-30 243,-30 243,-10 223,-10"/>
<text text-anchor="start" x="246.7251" y="-15.4" font-family="sans-serif" font-size="14.00" fill="#000000"> &#160;Module</text>
<polygon fill="#80b1d3" stroke="transparent" points="309,-10 309,-30 329,-30 329,-10 309,-10"/>
<text text-anchor="start" x="332.7812" y="-15.4" font-family="sans-serif" font-size="14.00" fill="#000000"> &#160;Bootstrap</text>
<polygon fill="#fdb462" stroke="transparent" points="406,-10 406,-30 426,-30 426,-10 406,-10"/>
<text text-anchor="start" x="429.6732" y="-15.4" font-family="sans-serif" font-size="14.00" fill="#000000"> &#160;Providers</text>
<polygon fill="#fb8072" stroke="transparent" points="502,-10 502,-30 522,-30 522,-10 502,-10"/>
<text text-anchor="start" x="525.7258" y="-15.4" font-family="sans-serif" font-size="14.00" fill="#000000"> &#160;Exports</text>
<g id="clust1" class="cluster">
<title>cluster_SharedModule</title>
<polygon fill="none" stroke="#000000" stroke-dasharray="1,5" points="8,-70 8,-268 680,-268 680,-70 8,-70"/>
</g>
<g id="clust2" class="cluster">
<title>cluster_SharedModule_declarations</title>
<polygon fill="none" stroke="#000000" points="24,-78 24,-130 666,-130 666,-78 24,-78"/>
</g>
<g id="clust8" class="cluster">
<title>cluster_SharedModule_exports</title>
<polygon fill="none" stroke="#000000" points="16,-208 16,-260 672,-260 672,-208 16,-208"/>
</g>
<!-- ConfirmDeleteDialogComponent -->
<g id="node1" class="node">
<title>ConfirmDeleteDialogComponent</title>
<polygon fill="#ffffb3" stroke="#000000" points="657.9058,-122 454.0942,-122 454.0942,-86 657.9058,-86 657.9058,-122"/>
<text text-anchor="middle" x="556" y="-99.8" font-family="Times,serif" font-size="14.00" fill="#000000">ConfirmDeleteDialogComponent</text>
</g>
<!-- SharedModule -->
<g id="node5" class="node">
<title>SharedModule</title>
<polygon fill="#8dd3c7" stroke="#000000" points="274.4231,-187 271.4231,-191 250.4231,-191 247.4231,-187 175.5769,-187 175.5769,-151 274.4231,-151 274.4231,-187"/>
<text text-anchor="middle" x="225" y="-164.8" font-family="Times,serif" font-size="14.00" fill="#000000">SharedModule</text>
</g>
<!-- ConfirmDeleteDialogComponent&#45;&gt;SharedModule -->
<g id="edge1" class="edge">
<title>ConfirmDeleteDialogComponent&#45;&gt;SharedModule</title>
<path fill="none" stroke="#000000" d="M590.9842,-122.2667C590.9842,-140.5552 590.9842,-166 590.9842,-166 590.9842,-166 284.3583,-166 284.3583,-166"/>
<polygon fill="#000000" stroke="#000000" points="284.3583,-162.5001 274.3583,-166 284.3582,-169.5001 284.3583,-162.5001"/>
</g>
<!-- PeopleListNamesPipe -->
<g id="node2" class="node">
<title>PeopleListNamesPipe</title>
<polygon fill="#ffffb3" stroke="#000000" points="435.6401,-122 296.3599,-122 296.3599,-86 435.6401,-86 435.6401,-122"/>
<text text-anchor="middle" x="366" y="-99.8" font-family="Times,serif" font-size="14.00" fill="#000000">PeopleListNamesPipe</text>
</g>
<!-- PeopleListNamesPipe&#45;&gt;SharedModule -->
<g id="edge2" class="edge">
<title>PeopleListNamesPipe&#45;&gt;SharedModule</title>
<path fill="none" stroke="#000000" d="M389.3566,-122.0091C389.3566,-138.0494 389.3566,-159 389.3566,-159 389.3566,-159 284.3124,-159 284.3124,-159"/>
<polygon fill="#000000" stroke="#000000" points="284.3124,-155.5001 274.3124,-159 284.3124,-162.5001 284.3124,-155.5001"/>
</g>
<!-- PersonNamePipe -->
<g id="node3" class="node">
<title>PersonNamePipe</title>
<polygon fill="#ffffb3" stroke="#000000" points="278.4174,-122 165.5826,-122 165.5826,-86 278.4174,-86 278.4174,-122"/>
<text text-anchor="middle" x="222" y="-99.8" font-family="Times,serif" font-size="14.00" fill="#000000">PersonNamePipe</text>
</g>
<!-- PersonNamePipe&#45;&gt;SharedModule -->
<g id="edge3" class="edge">
<title>PersonNamePipe&#45;&gt;SharedModule</title>
<path fill="none" stroke="#000000" d="M225,-122.1061C225,-122.1061 225,-140.991 225,-140.991"/>
<polygon fill="#000000" stroke="#000000" points="221.5001,-140.9909 225,-150.991 228.5001,-140.991 221.5001,-140.9909"/>
</g>
<!-- PhageParentsPipe -->
<g id="node4" class="node">
<title>PhageParentsPipe</title>
<polygon fill="#ffffb3" stroke="#000000" points="148.3076,-122 31.6924,-122 31.6924,-86 148.3076,-86 148.3076,-122"/>
<text text-anchor="middle" x="90" y="-99.8" font-family="Times,serif" font-size="14.00" fill="#000000">PhageParentsPipe</text>
</g>
<!-- PhageParentsPipe&#45;&gt;SharedModule -->
<g id="edge4" class="edge">
<title>PhageParentsPipe&#45;&gt;SharedModule</title>
<path fill="none" stroke="#000000" d="M106.5512,-122.0225C106.5512,-139.3734 106.5512,-163 106.5512,-163 106.5512,-163 165.4534,-163 165.4534,-163"/>
<polygon fill="#000000" stroke="#000000" points="165.4534,-166.5001 175.4534,-163 165.4533,-159.5001 165.4534,-166.5001"/>
</g>
<!-- ConfirmDeleteDialogComponent  -->
<g id="node6" class="node">
<title>ConfirmDeleteDialogComponent </title>
<polygon fill="#fb8072" stroke="#000000" points="664.4054,-252 457.5946,-252 457.5946,-216 664.4054,-216 664.4054,-252"/>
<text text-anchor="middle" x="561" y="-229.8" font-family="Times,serif" font-size="14.00" fill="#000000">ConfirmDeleteDialogComponent </text>
</g>
<!-- SharedModule&#45;&gt;ConfirmDeleteDialogComponent  -->
<g id="edge5" class="edge">
<title>SharedModule&#45;&gt;ConfirmDeleteDialogComponent </title>
<path fill="none" stroke="#000000" stroke-dasharray="5,2" d="M274.4177,-173C359.4175,-173 524.2658,-173 524.2658,-173 524.2658,-173 524.2658,-205.698 524.2658,-205.698"/>
<polygon fill="#000000" stroke="#000000" points="520.7659,-205.698 524.2658,-215.698 527.7659,-205.698 520.7659,-205.698"/>
</g>
<!-- PeopleListNamesPipe  -->
<g id="node7" class="node">
<title>PeopleListNamesPipe </title>
<polygon fill="#fb8072" stroke="#000000" points="439.6397,-252 296.3603,-252 296.3603,-216 439.6397,-216 439.6397,-252"/>
<text text-anchor="middle" x="368" y="-229.8" font-family="Times,serif" font-size="14.00" fill="#000000">PeopleListNamesPipe </text>
</g>
<!-- SharedModule&#45;&gt;PeopleListNamesPipe  -->
<g id="edge6" class="edge">
<title>SharedModule&#45;&gt;PeopleListNamesPipe </title>
<path fill="none" stroke="#000000" stroke-dasharray="5,2" d="M274.3143,-180C306.6202,-180 342.8934,-180 342.8934,-180 342.8934,-180 342.8934,-205.7181 342.8934,-205.7181"/>
<polygon fill="#000000" stroke="#000000" points="339.3935,-205.718 342.8934,-215.7181 346.3935,-205.7181 339.3935,-205.718"/>
</g>
<!-- PersonNamePipe  -->
<g id="node8" class="node">
<title>PersonNamePipe </title>
<polygon fill="#fb8072" stroke="#000000" points="277.9166,-252 162.0834,-252 162.0834,-216 277.9166,-216 277.9166,-252"/>
<text text-anchor="middle" x="220" y="-229.8" font-family="Times,serif" font-size="14.00" fill="#000000">PersonNamePipe </text>
</g>
<!-- SharedModule&#45;&gt;PersonNamePipe  -->
<g id="edge7" class="edge">
<title>SharedModule&#45;&gt;PersonNamePipe </title>
<path fill="none" stroke="#000000" stroke-dasharray="5,2" d="M225,-187.1061C225,-187.1061 225,-205.991 225,-205.991"/>
<polygon fill="#000000" stroke="#000000" points="221.5001,-205.9909 225,-215.991 228.5001,-205.991 221.5001,-205.9909"/>
</g>
<!-- PhageParentsPipe  -->
<g id="node9" class="node">
<title>PhageParentsPipe </title>
<polygon fill="#fb8072" stroke="#000000" points="143.8074,-252 24.1926,-252 24.1926,-216 143.8074,-216 143.8074,-252"/>
<text text-anchor="middle" x="84" y="-229.8" font-family="Times,serif" font-size="14.00" fill="#000000">PhageParentsPipe </text>
</g>
<!-- SharedModule&#45;&gt;PhageParentsPipe  -->
<g id="edge8" class="edge">
<title>SharedModule&#45;&gt;PhageParentsPipe </title>
<path fill="none" stroke="#000000" stroke-dasharray="5,2" d="M175.7035,-175C130.0586,-175 69.1988,-175 69.1988,-175 69.1988,-175 69.1988,-205.9775 69.1988,-205.9775"/>
<polygon fill="#000000" stroke="#000000" points="65.6989,-205.9774 69.1988,-215.9775 72.6989,-205.9775 65.6989,-205.9774"/>
</g>
</g>
</svg>
