<?xml version="1.0" encoding="UTF-8" standalone="no"?>
<!DOCTYPE svg PUBLIC "-//W3C//DTD SVG 1.1//EN"
 "http://www.w3.org/Graphics/SVG/1.1/DTD/svg11.dtd">
<!-- Generated by graphviz version 2.40.1 (20161225.0304)
 -->
<!-- Title: dependencies Pages: 1 -->
<svg width="695pt" height="284pt"
 viewBox="0.00 0.00 695.00 284.00" xmlns="http://www.w3.org/2000/svg" xmlns:xlink="http://www.w3.org/1999/xlink">
<g id="graph0" class="graph" transform="scale(1 1) rotate(0) translate(4 280)">
<title>dependencies</title>
<polygon fill="#ffffff" stroke="transparent" points="-4,4 -4,-280 691,-280 691,4 -4,4"/>
<text text-anchor="start" x="322.5091" y="-42.4" font-family="sans-serif" font-weight="bold" font-size="14.00" fill="#000000">Legend</text>
<polygon fill="#ffffb3" stroke="transparent" points="109.5,-10 109.5,-30 129.5,-30 129.5,-10 109.5,-10"/>
<text text-anchor="start" x="133.129" y="-15.4" font-family="sans-serif" font-size="14.00" fill="#000000"> &#160;Declarations</text>
<polygon fill="#8dd3c7" stroke="transparent" points="222.5,-10 222.5,-30 242.5,-30 242.5,-10 222.5,-10"/>
<text text-anchor="start" x="246.2251" y="-15.4" font-family="sans-serif" font-size="14.00" fill="#000000"> &#160;Module</text>
<polygon fill="#80b1d3" stroke="transparent" points="308.5,-10 308.5,-30 328.5,-30 328.5,-10 308.5,-10"/>
<text text-anchor="start" x="332.2812" y="-15.4" font-family="sans-serif" font-size="14.00" fill="#000000"> &#160;Bootstrap</text>
<polygon fill="#fdb462" stroke="transparent" points="405.5,-10 405.5,-30 425.5,-30 425.5,-10 405.5,-10"/>
<text text-anchor="start" x="429.1732" y="-15.4" font-family="sans-serif" font-size="14.00" fill="#000000"> &#160;Providers</text>
<polygon fill="#fb8072" stroke="transparent" points="501.5,-10 501.5,-30 521.5,-30 521.5,-10 501.5,-10"/>
<text text-anchor="start" x="525.2258" y="-15.4" font-family="sans-serif" font-size="14.00" fill="#000000"> &#160;Exports</text>
<g id="clust1" class="cluster">
<title>cluster_SharedModule</title>
<polygon fill="none" stroke="#000000" stroke-dasharray="1,5" points="8,-70 8,-268 679,-268 679,-70 8,-70"/>
</g>
<g id="clust2" class="cluster">
<title>cluster_SharedModule_declarations</title>
<polygon fill="none" stroke="#000000" points="23,-78 23,-130 665,-130 665,-78 23,-78"/>
</g>
<g id="clust8" class="cluster">
<title>cluster_SharedModule_exports</title>
<polygon fill="none" stroke="#000000" points="16,-208 16,-260 671,-260 671,-208 16,-208"/>
</g>
<!-- PersonNamePipe -->
<g id="node1" class="node">
<title>PersonNamePipe</title>
<polygon fill="#ffffb3" stroke="#000000" points="657.4174,-122 544.5826,-122 544.5826,-86 657.4174,-86 657.4174,-122"/>
<text text-anchor="middle" x="601" y="-99.8" font-family="Times,serif" font-size="14.00" fill="#000000">PersonNamePipe</text>
</g>
<!-- SharedModule -->
<g id="node5" class="node">
<title>SharedModule</title>
<polygon fill="#8dd3c7" stroke="#000000" points="362.4231,-187 359.4231,-191 338.4231,-191 335.4231,-187 263.5769,-187 263.5769,-151 362.4231,-151 362.4231,-187"/>
<text text-anchor="middle" x="313" y="-164.8" font-family="Times,serif" font-size="14.00" fill="#000000">SharedModule</text>
</g>
<!-- PersonNamePipe&#45;&gt;SharedModule -->
<g id="edge1" class="edge">
<title>PersonNamePipe&#45;&gt;SharedModule</title>
<path fill="none" stroke="#000000" d="M620.4861,-122.2667C620.4861,-140.5552 620.4861,-166 620.4861,-166 620.4861,-166 372.403,-166 372.403,-166"/>
<polygon fill="#000000" stroke="#000000" points="372.403,-162.5001 362.403,-166 372.4029,-169.5001 372.403,-162.5001"/>
</g>
<!-- PeopleListNamesPipe -->
<g id="node2" class="node">
<title>PeopleListNamesPipe</title>
<polygon fill="#ffffb3" stroke="#000000" points="526.6401,-122 387.3599,-122 387.3599,-86 526.6401,-86 526.6401,-122"/>
<text text-anchor="middle" x="457" y="-99.8" font-family="Times,serif" font-size="14.00" fill="#000000">PeopleListNamesPipe</text>
</g>
<!-- PeopleListNamesPipe&#45;&gt;SharedModule -->
<g id="edge2" class="edge">
<title>PeopleListNamesPipe&#45;&gt;SharedModule</title>
<path fill="none" stroke="#000000" d="M480.2733,-122.0091C480.2733,-138.0494 480.2733,-159 480.2733,-159 480.2733,-159 372.2828,-159 372.2828,-159"/>
<polygon fill="#000000" stroke="#000000" points="372.2828,-155.5001 362.2828,-159 372.2827,-162.5001 372.2828,-155.5001"/>
</g>
<!-- PhageParentsPipe -->
<g id="node3" class="node">
<title>PhageParentsPipe</title>
<polygon fill="#ffffb3" stroke="#000000" points="369.3076,-122 252.6924,-122 252.6924,-86 369.3076,-86 369.3076,-122"/>
<text text-anchor="middle" x="311" y="-99.8" font-family="Times,serif" font-size="14.00" fill="#000000">PhageParentsPipe</text>
</g>
<!-- PhageParentsPipe&#45;&gt;SharedModule -->
<g id="edge3" class="edge">
<title>PhageParentsPipe&#45;&gt;SharedModule</title>
<path fill="none" stroke="#000000" d="M313,-122.1061C313,-122.1061 313,-140.991 313,-140.991"/>
<polygon fill="#000000" stroke="#000000" points="309.5001,-140.9909 313,-150.991 316.5001,-140.991 309.5001,-140.9909"/>
</g>
<!-- ConfirmDeleteDialogComponent -->
<g id="node4" class="node">
<title>ConfirmDeleteDialogComponent</title>
<polygon fill="#ffffb3" stroke="#000000" points="234.9058,-122 31.0942,-122 31.0942,-86 234.9058,-86 234.9058,-122"/>
<text text-anchor="middle" x="133" y="-99.8" font-family="Times,serif" font-size="14.00" fill="#000000">ConfirmDeleteDialogComponent</text>
</g>
<!-- ConfirmDeleteDialogComponent&#45;&gt;SharedModule -->
<g id="edge4" class="edge">
<title>ConfirmDeleteDialogComponent&#45;&gt;SharedModule</title>
<path fill="none" stroke="#000000" d="M164.0676,-122.0225C164.0676,-139.3734 164.0676,-163 164.0676,-163 164.0676,-163 253.4077,-163 253.4077,-163"/>
<polygon fill="#000000" stroke="#000000" points="253.4077,-166.5001 263.4077,-163 253.4076,-159.5001 253.4077,-166.5001"/>
</g>
<!-- PersonNamePipe  -->
<g id="node6" class="node">
<title>PersonNamePipe </title>
<polygon fill="#fb8072" stroke="#000000" points="662.9166,-252 547.0834,-252 547.0834,-216 662.9166,-216 662.9166,-252"/>
<text text-anchor="middle" x="605" y="-229.8" font-family="Times,serif" font-size="14.00" fill="#000000">PersonNamePipe </text>
</g>
<!-- SharedModule&#45;&gt;PersonNamePipe  -->
<g id="edge5" class="edge">
<title>SharedModule&#45;&gt;PersonNamePipe </title>
<path fill="none" stroke="#000000" stroke-dasharray="5,2" d="M362.3474,-173C440.445,-173 583.7639,-173 583.7639,-173 583.7639,-173 583.7639,-205.698 583.7639,-205.698"/>
<polygon fill="#000000" stroke="#000000" points="580.264,-205.698 583.7639,-215.698 587.264,-205.698 580.264,-205.698"/>
</g>
<!-- PeopleListNamesPipe  -->
<g id="node7" class="node">
<title>PeopleListNamesPipe </title>
<polygon fill="#fb8072" stroke="#000000" points="528.6397,-252 385.3603,-252 385.3603,-216 528.6397,-216 528.6397,-252"/>
<text text-anchor="middle" x="457" y="-229.8" font-family="Times,serif" font-size="14.00" fill="#000000">PeopleListNamesPipe </text>
</g>
<!-- SharedModule&#45;&gt;PeopleListNamesPipe  -->
<g id="edge6" class="edge">
<title>SharedModule&#45;&gt;PeopleListNamesPipe </title>
<path fill="none" stroke="#000000" stroke-dasharray="5,2" d="M362.4525,-180C395.7928,-180 433.7267,-180 433.7267,-180 433.7267,-180 433.7267,-205.7181 433.7267,-205.7181"/>
<polygon fill="#000000" stroke="#000000" points="430.2268,-205.718 433.7267,-215.7181 437.2268,-205.7181 430.2268,-205.718"/>
</g>
<!-- PhageParentsPipe  -->
<g id="node8" class="node">
<title>PhageParentsPipe </title>
<polygon fill="#fb8072" stroke="#000000" points="367.8074,-252 248.1926,-252 248.1926,-216 367.8074,-216 367.8074,-252"/>
<text text-anchor="middle" x="308" y="-229.8" font-family="Times,serif" font-size="14.00" fill="#000000">PhageParentsPipe </text>
</g>
<!-- SharedModule&#45;&gt;PhageParentsPipe  -->
<g id="edge7" class="edge">
<title>SharedModule&#45;&gt;PhageParentsPipe </title>
<path fill="none" stroke="#000000" stroke-dasharray="5,2" d="M313,-187.1061C313,-187.1061 313,-205.991 313,-205.991"/>
<polygon fill="#000000" stroke="#000000" points="309.5001,-205.9909 313,-215.991 316.5001,-205.991 309.5001,-205.9909"/>
</g>
<!-- ConfirmDeleteDialogComponent  -->
<g id="node9" class="node">
<title>ConfirmDeleteDialogComponent </title>
<polygon fill="#fb8072" stroke="#000000" points="230.4054,-252 23.5946,-252 23.5946,-216 230.4054,-216 230.4054,-252"/>
<text text-anchor="middle" x="127" y="-229.8" font-family="Times,serif" font-size="14.00" fill="#000000">ConfirmDeleteDialogComponent </text>
</g>
<!-- SharedModule&#45;&gt;ConfirmDeleteDialogComponent  -->
<g id="edge8" class="edge">
<title>SharedModule&#45;&gt;ConfirmDeleteDialogComponent </title>
<path fill="none" stroke="#000000" stroke-dasharray="5,2" d="M263.6018,-175C200.0327,-175 97.6824,-175 97.6824,-175 97.6824,-175 97.6824,-205.9775 97.6824,-205.9775"/>
<polygon fill="#000000" stroke="#000000" points="94.1825,-205.9774 97.6824,-215.9775 101.1825,-205.9775 94.1825,-205.9774"/>
</g>
</g>
</svg>
