<?xml version="1.0" encoding="UTF-8" standalone="no"?>
<!DOCTYPE svg PUBLIC "-//W3C//DTD SVG 1.1//EN"
 "http://www.w3.org/Graphics/SVG/1.1/DTD/svg11.dtd">
<!-- Generated by graphviz version 2.40.1 (20161225.0304)
 -->
<!-- Title: dependencies Pages: 1 -->
<svg width="1459pt" height="211pt"
 viewBox="0.00 0.00 1459.00 211.00" xmlns="http://www.w3.org/2000/svg" xmlns:xlink="http://www.w3.org/1999/xlink">
<g id="graph0" class="graph" transform="scale(1 1) rotate(0) translate(4 207)">
<title>dependencies</title>
<polygon fill="#ffffff" stroke="transparent" points="-4,4 -4,-207 1455,-207 1455,4 -4,4"/>
<text text-anchor="start" x="704.5091" y="-42.4" font-family="sans-serif" font-weight="bold" font-size="14.00" fill="#000000">Legend</text>
<polygon fill="#ffffb3" stroke="transparent" points="491.5,-10 491.5,-30 511.5,-30 511.5,-10 491.5,-10"/>
<text text-anchor="start" x="515.129" y="-15.4" font-family="sans-serif" font-size="14.00" fill="#000000"> &#160;Declarations</text>
<polygon fill="#8dd3c7" stroke="transparent" points="604.5,-10 604.5,-30 624.5,-30 624.5,-10 604.5,-10"/>
<text text-anchor="start" x="628.2251" y="-15.4" font-family="sans-serif" font-size="14.00" fill="#000000"> &#160;Module</text>
<polygon fill="#80b1d3" stroke="transparent" points="690.5,-10 690.5,-30 710.5,-30 710.5,-10 690.5,-10"/>
<text text-anchor="start" x="714.2812" y="-15.4" font-family="sans-serif" font-size="14.00" fill="#000000"> &#160;Bootstrap</text>
<polygon fill="#fdb462" stroke="transparent" points="787.5,-10 787.5,-30 807.5,-30 807.5,-10 787.5,-10"/>
<text text-anchor="start" x="811.1732" y="-15.4" font-family="sans-serif" font-size="14.00" fill="#000000"> &#160;Providers</text>
<polygon fill="#fb8072" stroke="transparent" points="883.5,-10 883.5,-30 903.5,-30 903.5,-10 883.5,-10"/>
<text text-anchor="start" x="907.2258" y="-15.4" font-family="sans-serif" font-size="14.00" fill="#000000"> &#160;Exports</text>
<g id="clust1" class="cluster">
<title>cluster_StudentModule</title>
<polygon fill="none" stroke="#000000" stroke-dasharray="1,5" points="8,-70 8,-195 1443,-195 1443,-70 8,-70"/>
</g>
<g id="clust2" class="cluster">
<title>cluster_StudentModule_declarations</title>
<polygon fill="none" stroke="#000000" points="312,-78 312,-130 1435,-130 1435,-78 312,-78"/>
</g>
<g id="clust10" class="cluster">
<title>cluster_StudentModule_imports</title>
<polygon fill="none" stroke="#000000" points="190,-78 190,-130 304,-130 304,-78 190,-78"/>
</g>
<g id="clust13" class="cluster">
<title>cluster_StudentModule_providers</title>
<polygon fill="none" stroke="#000000" points="16,-78 16,-130 182,-130 182,-78 16,-78"/>
</g>
<!-- StudentListComponent -->
<g id="node1" class="node">
<title>StudentListComponent</title>
<polygon fill="#ffffb3" stroke="#000000" points="1426.8892,-122 1281.1108,-122 1281.1108,-86 1426.8892,-86 1426.8892,-122"/>
<text text-anchor="middle" x="1354" y="-99.8" font-family="Times,serif" font-size="14.00" fill="#000000">StudentListComponent</text>
</g>
<!-- StudentModule -->
<g id="node8" class="node">
<title>StudentModule</title>
<polygon fill="#8dd3c7" stroke="#000000" points="727.3287,-187 724.3287,-191 703.3287,-191 700.3287,-187 624.6713,-187 624.6713,-151 727.3287,-151 727.3287,-187"/>
<text text-anchor="middle" x="676" y="-164.8" font-family="Times,serif" font-size="14.00" fill="#000000">StudentModule</text>
</g>
<!-- StudentListComponent&#45;&gt;StudentModule -->
<g id="edge1" class="edge">
<title>StudentListComponent&#45;&gt;StudentModule</title>
<path fill="none" stroke="#000000" d="M1354,-122.0109C1354,-144.4852 1354,-180 1354,-180 1354,-180 737.2381,-180 737.2381,-180"/>
<polygon fill="#000000" stroke="#000000" points="737.2382,-176.5001 727.2381,-180 737.2381,-183.5001 737.2382,-176.5001"/>
</g>
<!-- StudentIndivComponent -->
<g id="node2" class="node">
<title>StudentIndivComponent</title>
<polygon fill="#ffffb3" stroke="#000000" points="1262.6624,-122 1109.3376,-122 1109.3376,-86 1262.6624,-86 1262.6624,-122"/>
<text text-anchor="middle" x="1186" y="-99.8" font-family="Times,serif" font-size="14.00" fill="#000000">StudentIndivComponent</text>
</g>
<!-- StudentIndivComponent&#45;&gt;StudentModule -->
<g id="edge2" class="edge">
<title>StudentIndivComponent&#45;&gt;StudentModule</title>
<path fill="none" stroke="#000000" d="M1186,-122.1289C1186,-142.5724 1186,-173 1186,-173 1186,-173 737.2358,-173 737.2358,-173"/>
<polygon fill="#000000" stroke="#000000" points="737.2359,-169.5001 727.2358,-173 737.2358,-176.5001 737.2359,-169.5001"/>
</g>
<!-- StudentFridgeComponent -->
<g id="node3" class="node">
<title>StudentFridgeComponent</title>
<polygon fill="#ffffb3" stroke="#000000" points="1091.1596,-122 930.8404,-122 930.8404,-86 1091.1596,-86 1091.1596,-122"/>
<text text-anchor="middle" x="1011" y="-99.8" font-family="Times,serif" font-size="14.00" fill="#000000">StudentFridgeComponent</text>
</g>
<!-- StudentFridgeComponent&#45;&gt;StudentModule -->
<g id="edge3" class="edge">
<title>StudentFridgeComponent&#45;&gt;StudentModule</title>
<path fill="none" stroke="#000000" d="M1011,-122.2667C1011,-140.5552 1011,-166 1011,-166 1011,-166 737.244,-166 737.244,-166"/>
<polygon fill="#000000" stroke="#000000" points="737.244,-162.5001 727.244,-166 737.2439,-169.5001 737.244,-162.5001"/>
</g>
<!-- StudentPhageComponent -->
<g id="node4" class="node">
<title>StudentPhageComponent</title>
<polygon fill="#ffffb3" stroke="#000000" points="913.3229,-122 754.6771,-122 754.6771,-86 913.3229,-86 913.3229,-122"/>
<text text-anchor="middle" x="834" y="-99.8" font-family="Times,serif" font-size="14.00" fill="#000000">StudentPhageComponent</text>
</g>
<!-- StudentPhageComponent&#45;&gt;StudentModule -->
<g id="edge4" class="edge">
<title>StudentPhageComponent&#45;&gt;StudentModule</title>
<path fill="none" stroke="#000000" d="M834,-122.0091C834,-138.0494 834,-159 834,-159 834,-159 737.2981,-159 737.2981,-159"/>
<polygon fill="#000000" stroke="#000000" points="737.2981,-155.5001 727.2981,-159 737.298,-162.5001 737.2981,-155.5001"/>
</g>
<!-- PhageGuessesPipe -->
<g id="node5" class="node">
<title>PhageGuessesPipe</title>
<polygon fill="#ffffb3" stroke="#000000" points="736.4692,-122 615.5308,-122 615.5308,-86 736.4692,-86 736.4692,-122"/>
<text text-anchor="middle" x="676" y="-99.8" font-family="Times,serif" font-size="14.00" fill="#000000">PhageGuessesPipe</text>
</g>
<!-- PhageGuessesPipe&#45;&gt;StudentModule -->
<g id="edge5" class="edge">
<title>PhageGuessesPipe&#45;&gt;StudentModule</title>
<path fill="none" stroke="#000000" d="M676,-122.1061C676,-122.1061 676,-140.991 676,-140.991"/>
<polygon fill="#000000" stroke="#000000" points="672.5001,-140.9909 676,-150.991 679.5001,-140.991 672.5001,-140.9909"/>
</g>
<!-- PhageMutationsPipe -->
<g id="node6" class="node">
<title>PhageMutationsPipe</title>
<polygon fill="#ffffb3" stroke="#000000" points="597.8753,-122 466.1247,-122 466.1247,-86 597.8753,-86 597.8753,-122"/>
<text text-anchor="middle" x="532" y="-99.8" font-family="Times,serif" font-size="14.00" fill="#000000">PhageMutationsPipe</text>
</g>
<!-- PhageMutationsPipe&#45;&gt;StudentModule -->
<g id="edge6" class="edge">
<title>PhageMutationsPipe&#45;&gt;StudentModule</title>
<path fill="none" stroke="#000000" d="M532,-122.0091C532,-138.0494 532,-159 532,-159 532,-159 614.8255,-159 614.8255,-159"/>
<polygon fill="#000000" stroke="#000000" points="614.8256,-162.5001 624.8255,-159 614.8255,-155.5001 614.8256,-162.5001"/>
</g>
<!-- PhageDeletionsPipe -->
<g id="node7" class="node">
<title>PhageDeletionsPipe</title>
<polygon fill="#ffffb3" stroke="#000000" points="448.252,-122 319.748,-122 319.748,-86 448.252,-86 448.252,-122"/>
<text text-anchor="middle" x="384" y="-99.8" font-family="Times,serif" font-size="14.00" fill="#000000">PhageDeletionsPipe</text>
</g>
<!-- PhageDeletionsPipe&#45;&gt;StudentModule -->
<g id="edge7" class="edge">
<title>PhageDeletionsPipe&#45;&gt;StudentModule</title>
<path fill="none" stroke="#000000" d="M384,-122.2667C384,-140.5552 384,-166 384,-166 384,-166 614.8033,-166 614.8033,-166"/>
<polygon fill="#000000" stroke="#000000" points="614.8034,-169.5001 624.8033,-166 614.8033,-162.5001 614.8034,-169.5001"/>
</g>
<!-- SharedModule -->
<g id="node9" class="node">
<title>SharedModule</title>
<polygon fill="#8dd3c7" stroke="#000000" points="296.4231,-122 293.4231,-126 272.4231,-126 269.4231,-122 197.5769,-122 197.5769,-86 296.4231,-86 296.4231,-122"/>
<text text-anchor="middle" x="247" y="-99.8" font-family="Times,serif" font-size="14.00" fill="#000000">SharedModule</text>
</g>
<!-- SharedModule&#45;&gt;StudentModule -->
<g id="edge8" class="edge">
<title>SharedModule&#45;&gt;StudentModule</title>
<path fill="none" stroke="#000000" d="M247,-122.1289C247,-142.5724 247,-173 247,-173 247,-173 614.6787,-173 614.6787,-173"/>
<polygon fill="#000000" stroke="#000000" points="614.6787,-176.5001 624.6787,-173 614.6787,-169.5001 614.6787,-176.5001"/>
</g>
<!-- StudentResolver -->
<g id="node10" class="node">
<title>StudentResolver</title>
<ellipse fill="#fdb462" stroke="#000000" cx="99" cy="-104" rx="74.7381" ry="18"/>
<text text-anchor="middle" x="99" y="-99.8" font-family="Times,serif" font-size="14.00" fill="#000000">StudentResolver</text>
</g>
<!-- StudentResolver&#45;&gt;StudentModule -->
<g id="edge9" class="edge">
<title>StudentResolver&#45;&gt;StudentModule</title>
<path fill="none" stroke="#000000" d="M99,-122.0109C99,-144.4852 99,-180 99,-180 99,-180 614.7951,-180 614.7951,-180"/>
<polygon fill="#000000" stroke="#000000" points="614.7951,-183.5001 624.7951,-180 614.7951,-176.5001 614.7951,-183.5001"/>
</g>
</g>
</svg>
