<?xml version="1.0" encoding="UTF-8" standalone="no"?>
<!DOCTYPE svg PUBLIC "-//W3C//DTD SVG 1.1//EN"
 "http://www.w3.org/Graphics/SVG/1.1/DTD/svg11.dtd">
<!-- Generated by graphviz version 2.40.1 (20161225.0304)
 -->
<!-- Title: dependencies Pages: 1 -->
<svg width="1613pt" height="211pt"
 viewBox="0.00 0.00 1613.00 211.00" xmlns="http://www.w3.org/2000/svg" xmlns:xlink="http://www.w3.org/1999/xlink">
<g id="graph0" class="graph" transform="scale(1 1) rotate(0) translate(4 207)">
<title>dependencies</title>
<polygon fill="#ffffff" stroke="transparent" points="-4,4 -4,-207 1609,-207 1609,4 -4,4"/>
<text text-anchor="start" x="781.5091" y="-42.4" font-family="sans-serif" font-weight="bold" font-size="14.00" fill="#000000">Legend</text>
<polygon fill="#ffffb3" stroke="transparent" points="568.5,-10 568.5,-30 588.5,-30 588.5,-10 568.5,-10"/>
<text text-anchor="start" x="592.129" y="-15.4" font-family="sans-serif" font-size="14.00" fill="#000000"> &#160;Declarations</text>
<polygon fill="#8dd3c7" stroke="transparent" points="681.5,-10 681.5,-30 701.5,-30 701.5,-10 681.5,-10"/>
<text text-anchor="start" x="705.2251" y="-15.4" font-family="sans-serif" font-size="14.00" fill="#000000"> &#160;Module</text>
<polygon fill="#80b1d3" stroke="transparent" points="767.5,-10 767.5,-30 787.5,-30 787.5,-10 767.5,-10"/>
<text text-anchor="start" x="791.2812" y="-15.4" font-family="sans-serif" font-size="14.00" fill="#000000"> &#160;Bootstrap</text>
<polygon fill="#fdb462" stroke="transparent" points="864.5,-10 864.5,-30 884.5,-30 884.5,-10 864.5,-10"/>
<text text-anchor="start" x="888.1732" y="-15.4" font-family="sans-serif" font-size="14.00" fill="#000000"> &#160;Providers</text>
<polygon fill="#fb8072" stroke="transparent" points="960.5,-10 960.5,-30 980.5,-30 980.5,-10 960.5,-10"/>
<text text-anchor="start" x="984.2258" y="-15.4" font-family="sans-serif" font-size="14.00" fill="#000000"> &#160;Exports</text>
<g id="clust1" class="cluster">
<title>cluster_StudentModule</title>
<polygon fill="none" stroke="#000000" stroke-dasharray="1,5" points="8,-70 8,-195 1597,-195 1597,-70 8,-70"/>
</g>
<g id="clust2" class="cluster">
<title>cluster_StudentModule_declarations</title>
<polygon fill="none" stroke="#000000" points="466,-78 466,-130 1589,-130 1589,-78 466,-78"/>
</g>
<g id="clust10" class="cluster">
<title>cluster_StudentModule_imports</title>
<polygon fill="none" stroke="#000000" points="190,-78 190,-130 458,-130 458,-78 190,-78"/>
</g>
<g id="clust13" class="cluster">
<title>cluster_StudentModule_providers</title>
<polygon fill="none" stroke="#000000" points="16,-78 16,-130 182,-130 182,-78 16,-78"/>
</g>
<!-- StudentListComponent -->
<g id="node1" class="node">
<title>StudentListComponent</title>
<polygon fill="#ffffb3" stroke="#000000" points="1580.8892,-122 1435.1108,-122 1435.1108,-86 1580.8892,-86 1580.8892,-122"/>
<text text-anchor="middle" x="1508" y="-99.8" font-family="Times,serif" font-size="14.00" fill="#000000">StudentListComponent</text>
</g>
<!-- StudentModule -->
<g id="node8" class="node">
<title>StudentModule</title>
<polygon fill="#8dd3c7" stroke="#000000" points="809.3287,-187 806.3287,-191 785.3287,-191 782.3287,-187 706.6713,-187 706.6713,-151 809.3287,-151 809.3287,-187"/>
<text text-anchor="middle" x="758" y="-164.8" font-family="Times,serif" font-size="14.00" fill="#000000">StudentModule</text>
</g>
<!-- StudentListComponent&#45;&gt;StudentModule -->
<g id="edge1" class="edge">
<title>StudentListComponent&#45;&gt;StudentModule</title>
<path fill="none" stroke="#000000" d="M1508,-122.0109C1508,-144.4852 1508,-180 1508,-180 1508,-180 819.2554,-180 819.2554,-180"/>
<polygon fill="#000000" stroke="#000000" points="819.2554,-176.5001 809.2554,-180 819.2553,-183.5001 819.2554,-176.5001"/>
</g>
<!-- StudentIndivComponent -->
<g id="node2" class="node">
<title>StudentIndivComponent</title>
<polygon fill="#ffffb3" stroke="#000000" points="1416.6624,-122 1263.3376,-122 1263.3376,-86 1416.6624,-86 1416.6624,-122"/>
<text text-anchor="middle" x="1340" y="-99.8" font-family="Times,serif" font-size="14.00" fill="#000000">StudentIndivComponent</text>
</g>
<!-- StudentIndivComponent&#45;&gt;StudentModule -->
<g id="edge2" class="edge">
<title>StudentIndivComponent&#45;&gt;StudentModule</title>
<path fill="none" stroke="#000000" d="M1340,-122.1289C1340,-142.5724 1340,-173 1340,-173 1340,-173 819.3933,-173 819.3933,-173"/>
<polygon fill="#000000" stroke="#000000" points="819.3933,-169.5001 809.3933,-173 819.3933,-176.5001 819.3933,-169.5001"/>
</g>
<!-- StudentFridgeComponent -->
<g id="node3" class="node">
<title>StudentFridgeComponent</title>
<polygon fill="#ffffb3" stroke="#000000" points="1245.1596,-122 1084.8404,-122 1084.8404,-86 1245.1596,-86 1245.1596,-122"/>
<text text-anchor="middle" x="1165" y="-99.8" font-family="Times,serif" font-size="14.00" fill="#000000">StudentFridgeComponent</text>
</g>
<!-- StudentFridgeComponent&#45;&gt;StudentModule -->
<g id="edge3" class="edge">
<title>StudentFridgeComponent&#45;&gt;StudentModule</title>
<path fill="none" stroke="#000000" d="M1165,-122.2667C1165,-140.5552 1165,-166 1165,-166 1165,-166 819.5468,-166 819.5468,-166"/>
<polygon fill="#000000" stroke="#000000" points="819.5469,-162.5001 809.5468,-166 819.5468,-169.5001 819.5469,-162.5001"/>
</g>
<!-- StudentPhageComponent -->
<g id="node4" class="node">
<title>StudentPhageComponent</title>
<polygon fill="#ffffb3" stroke="#000000" points="1067.3229,-122 908.6771,-122 908.6771,-86 1067.3229,-86 1067.3229,-122"/>
<text text-anchor="middle" x="988" y="-99.8" font-family="Times,serif" font-size="14.00" fill="#000000">StudentPhageComponent</text>
</g>
<!-- StudentPhageComponent&#45;&gt;StudentModule -->
<g id="edge4" class="edge">
<title>StudentPhageComponent&#45;&gt;StudentModule</title>
<path fill="none" stroke="#000000" d="M988,-122.0091C988,-138.0494 988,-159 988,-159 988,-159 819.3302,-159 819.3302,-159"/>
<polygon fill="#000000" stroke="#000000" points="819.3303,-155.5001 809.3302,-159 819.3302,-162.5001 819.3303,-155.5001"/>
</g>
<!-- PhageGuessesPipe -->
<g id="node5" class="node">
<title>PhageGuessesPipe</title>
<polygon fill="#ffffb3" stroke="#000000" points="890.4692,-122 769.5308,-122 769.5308,-86 890.4692,-86 890.4692,-122"/>
<text text-anchor="middle" x="830" y="-99.8" font-family="Times,serif" font-size="14.00" fill="#000000">PhageGuessesPipe</text>
</g>
<!-- PhageGuessesPipe&#45;&gt;StudentModule -->
<g id="edge5" class="edge">
<title>PhageGuessesPipe&#45;&gt;StudentModule</title>
<path fill="none" stroke="#000000" d="M789.3398,-122.1061C789.3398,-122.1061 789.3398,-140.991 789.3398,-140.991"/>
<polygon fill="#000000" stroke="#000000" points="785.8398,-140.9909 789.3398,-150.991 792.8398,-140.991 785.8398,-140.9909"/>
</g>
<!-- PhageMutationsPipe -->
<g id="node6" class="node">
<title>PhageMutationsPipe</title>
<polygon fill="#ffffb3" stroke="#000000" points="751.8753,-122 620.1247,-122 620.1247,-86 751.8753,-86 751.8753,-122"/>
<text text-anchor="middle" x="686" y="-99.8" font-family="Times,serif" font-size="14.00" fill="#000000">PhageMutationsPipe</text>
</g>
<!-- PhageMutationsPipe&#45;&gt;StudentModule -->
<g id="edge6" class="edge">
<title>PhageMutationsPipe&#45;&gt;StudentModule</title>
<path fill="none" stroke="#000000" d="M729.3868,-122.1061C729.3868,-122.1061 729.3868,-140.991 729.3868,-140.991"/>
<polygon fill="#000000" stroke="#000000" points="725.8868,-140.9909 729.3868,-150.991 732.8868,-140.991 725.8868,-140.9909"/>
</g>
<!-- PhageDeletionsPipe -->
<g id="node7" class="node">
<title>PhageDeletionsPipe</title>
<polygon fill="#ffffb3" stroke="#000000" points="602.252,-122 473.748,-122 473.748,-86 602.252,-86 602.252,-122"/>
<text text-anchor="middle" x="538" y="-99.8" font-family="Times,serif" font-size="14.00" fill="#000000">PhageDeletionsPipe</text>
</g>
<!-- PhageDeletionsPipe&#45;&gt;StudentModule -->
<g id="edge7" class="edge">
<title>PhageDeletionsPipe&#45;&gt;StudentModule</title>
<path fill="none" stroke="#000000" d="M538,-122.0091C538,-138.0494 538,-159 538,-159 538,-159 696.6974,-159 696.6974,-159"/>
<polygon fill="#000000" stroke="#000000" points="696.6975,-162.5001 706.6974,-159 696.6974,-155.5001 696.6975,-162.5001"/>
</g>
<!-- SharedModule -->
<g id="node9" class="node">
<title>SharedModule</title>
<polygon fill="#8dd3c7" stroke="#000000" points="450.4231,-122 447.4231,-126 426.4231,-126 423.4231,-122 351.5769,-122 351.5769,-86 450.4231,-86 450.4231,-122"/>
<text text-anchor="middle" x="401" y="-99.8" font-family="Times,serif" font-size="14.00" fill="#000000">SharedModule</text>
</g>
<!-- SharedModule&#45;&gt;StudentModule -->
<g id="edge8" class="edge">
<title>SharedModule&#45;&gt;StudentModule</title>
<path fill="none" stroke="#000000" d="M401,-122.2667C401,-140.5552 401,-166 401,-166 401,-166 696.4704,-166 696.4704,-166"/>
<polygon fill="#000000" stroke="#000000" points="696.4704,-169.5001 706.4704,-166 696.4704,-162.5001 696.4704,-169.5001"/>
</g>
<!-- StudentRouteModule -->
<g id="node10" class="node">
<title>StudentRouteModule</title>
<polygon fill="#8dd3c7" stroke="#000000" points="333.7702,-122 330.7702,-126 309.7702,-126 306.7702,-122 198.2298,-122 198.2298,-86 333.7702,-86 333.7702,-122"/>
<text text-anchor="middle" x="266" y="-99.8" font-family="Times,serif" font-size="14.00" fill="#000000">StudentRouteModule</text>
</g>
<!-- StudentRouteModule&#45;&gt;StudentModule -->
<g id="edge9" class="edge">
<title>StudentRouteModule&#45;&gt;StudentModule</title>
<path fill="none" stroke="#000000" d="M266,-122.1289C266,-142.5724 266,-173 266,-173 266,-173 696.7397,-173 696.7397,-173"/>
<polygon fill="#000000" stroke="#000000" points="696.7398,-176.5001 706.7397,-173 696.7397,-169.5001 696.7398,-176.5001"/>
</g>
<!-- StudentResolver -->
<g id="node11" class="node">
<title>StudentResolver</title>
<ellipse fill="#fdb462" stroke="#000000" cx="99" cy="-104" rx="74.7381" ry="18"/>
<text text-anchor="middle" x="99" y="-99.8" font-family="Times,serif" font-size="14.00" fill="#000000">StudentResolver</text>
</g>
<!-- StudentResolver&#45;&gt;StudentModule -->
<g id="edge10" class="edge">
<title>StudentResolver&#45;&gt;StudentModule</title>
<path fill="none" stroke="#000000" d="M99,-122.0109C99,-144.4852 99,-180 99,-180 99,-180 696.5639,-180 696.5639,-180"/>
<polygon fill="#000000" stroke="#000000" points="696.5639,-183.5001 706.5639,-180 696.5638,-176.5001 696.5639,-183.5001"/>
</g>
</g>
</svg>
