<?xml version="1.0" encoding="UTF-8" standalone="no"?>
<!DOCTYPE svg PUBLIC "-//W3C//DTD SVG 1.1//EN"
 "http://www.w3.org/Graphics/SVG/1.1/DTD/svg11.dtd">
<!-- Generated by graphviz version 2.40.1 (20161225.0304)
 -->
<!-- Title: dependencies Pages: 1 -->
<svg width="1459pt" height="211pt"
 viewBox="0.00 0.00 1459.00 211.00" xmlns="http://www.w3.org/2000/svg" xmlns:xlink="http://www.w3.org/1999/xlink">
<g id="graph0" class="graph" transform="scale(1 1) rotate(0) translate(4 207)">
<title>dependencies</title>
<polygon fill="#ffffff" stroke="transparent" points="-4,4 -4,-207 1455,-207 1455,4 -4,4"/>
<text text-anchor="start" x="704.5091" y="-42.4" font-family="sans-serif" font-weight="bold" font-size="14.00" fill="#000000">Legend</text>
<polygon fill="#ffffb3" stroke="transparent" points="491.5,-10 491.5,-30 511.5,-30 511.5,-10 491.5,-10"/>
<text text-anchor="start" x="515.129" y="-15.4" font-family="sans-serif" font-size="14.00" fill="#000000"> &#160;Declarations</text>
<polygon fill="#8dd3c7" stroke="transparent" points="604.5,-10 604.5,-30 624.5,-30 624.5,-10 604.5,-10"/>
<text text-anchor="start" x="628.2251" y="-15.4" font-family="sans-serif" font-size="14.00" fill="#000000"> &#160;Module</text>
<polygon fill="#80b1d3" stroke="transparent" points="690.5,-10 690.5,-30 710.5,-30 710.5,-10 690.5,-10"/>
<text text-anchor="start" x="714.2812" y="-15.4" font-family="sans-serif" font-size="14.00" fill="#000000"> &#160;Bootstrap</text>
<polygon fill="#fdb462" stroke="transparent" points="787.5,-10 787.5,-30 807.5,-30 807.5,-10 787.5,-10"/>
<text text-anchor="start" x="811.1732" y="-15.4" font-family="sans-serif" font-size="14.00" fill="#000000"> &#160;Providers</text>
<polygon fill="#fb8072" stroke="transparent" points="883.5,-10 883.5,-30 903.5,-30 903.5,-10 883.5,-10"/>
<text text-anchor="start" x="907.2258" y="-15.4" font-family="sans-serif" font-size="14.00" fill="#000000"> &#160;Exports</text>
<g id="clust1" class="cluster">
<title>cluster_StudentModule</title>
<polygon fill="none" stroke="#000000" stroke-dasharray="1,5" points="8,-70 8,-195 1443,-195 1443,-70 8,-70"/>
</g>
<g id="clust2" class="cluster">
<title>cluster_StudentModule_declarations</title>
<polygon fill="none" stroke="#000000" points="312,-78 312,-130 1435,-130 1435,-78 312,-78"/>
</g>
<g id="clust10" class="cluster">
<title>cluster_StudentModule_imports</title>
<polygon fill="none" stroke="#000000" points="190,-78 190,-130 304,-130 304,-78 190,-78"/>
</g>
<g id="clust13" class="cluster">
<title>cluster_StudentModule_providers</title>
<polygon fill="none" stroke="#000000" points="16,-78 16,-130 182,-130 182,-78 16,-78"/>
</g>
<!-- PhageDeletionsPipe -->
<g id="node1" class="node">
<title>PhageDeletionsPipe</title>
<polygon fill="#ffffb3" stroke="#000000" points="1427.252,-122 1298.748,-122 1298.748,-86 1427.252,-86 1427.252,-122"/>
<text text-anchor="middle" x="1363" y="-99.8" font-family="Times,serif" font-size="14.00" fill="#000000">PhageDeletionsPipe</text>
</g>
<!-- StudentModule -->
<g id="node8" class="node">
<title>StudentModule</title>
<polygon fill="#8dd3c7" stroke="#000000" points="788.3287,-187 785.3287,-191 764.3287,-191 761.3287,-187 685.6713,-187 685.6713,-151 788.3287,-151 788.3287,-187"/>
<text text-anchor="middle" x="737" y="-164.8" font-family="Times,serif" font-size="14.00" fill="#000000">StudentModule</text>
</g>
<!-- PhageDeletionsPipe&#45;&gt;StudentModule -->
<g id="edge1" class="edge">
<title>PhageDeletionsPipe&#45;&gt;StudentModule</title>
<path fill="none" stroke="#000000" d="M1363,-122.0109C1363,-144.4852 1363,-180 1363,-180 1363,-180 798.2282,-180 798.2282,-180"/>
<polygon fill="#000000" stroke="#000000" points="798.2282,-176.5001 788.2282,-180 798.2282,-183.5001 798.2282,-176.5001"/>
</g>
<!-- PhageGuessesPipe -->
<g id="node2" class="node">
<title>PhageGuessesPipe</title>
<polygon fill="#ffffb3" stroke="#000000" points="1280.4692,-122 1159.5308,-122 1159.5308,-86 1280.4692,-86 1280.4692,-122"/>
<text text-anchor="middle" x="1220" y="-99.8" font-family="Times,serif" font-size="14.00" fill="#000000">PhageGuessesPipe</text>
</g>
<!-- PhageGuessesPipe&#45;&gt;StudentModule -->
<g id="edge2" class="edge">
<title>PhageGuessesPipe&#45;&gt;StudentModule</title>
<path fill="none" stroke="#000000" d="M1220,-122.1289C1220,-142.5724 1220,-173 1220,-173 1220,-173 798.2322,-173 798.2322,-173"/>
<polygon fill="#000000" stroke="#000000" points="798.2322,-169.5001 788.2322,-173 798.2322,-176.5001 798.2322,-169.5001"/>
</g>
<!-- PhageMutationsPipe -->
<g id="node3" class="node">
<title>PhageMutationsPipe</title>
<polygon fill="#ffffb3" stroke="#000000" points="1141.8753,-122 1010.1247,-122 1010.1247,-86 1141.8753,-86 1141.8753,-122"/>
<text text-anchor="middle" x="1076" y="-99.8" font-family="Times,serif" font-size="14.00" fill="#000000">PhageMutationsPipe</text>
</g>
<!-- PhageMutationsPipe&#45;&gt;StudentModule -->
<g id="edge3" class="edge">
<title>PhageMutationsPipe&#45;&gt;StudentModule</title>
<path fill="none" stroke="#000000" d="M1076,-122.2667C1076,-140.5552 1076,-166 1076,-166 1076,-166 798.4868,-166 798.4868,-166"/>
<polygon fill="#000000" stroke="#000000" points="798.4868,-162.5001 788.4868,-166 798.4868,-169.5001 798.4868,-162.5001"/>
</g>
<!-- StudentFridgeComponent -->
<g id="node4" class="node">
<title>StudentFridgeComponent</title>
<polygon fill="#ffffb3" stroke="#000000" points="992.1596,-122 831.8404,-122 831.8404,-86 992.1596,-86 992.1596,-122"/>
<text text-anchor="middle" x="912" y="-99.8" font-family="Times,serif" font-size="14.00" fill="#000000">StudentFridgeComponent</text>
</g>
<!-- StudentFridgeComponent&#45;&gt;StudentModule -->
<g id="edge4" class="edge">
<title>StudentFridgeComponent&#45;&gt;StudentModule</title>
<path fill="none" stroke="#000000" d="M912,-122.0091C912,-138.0494 912,-159 912,-159 912,-159 798.5593,-159 798.5593,-159"/>
<polygon fill="#000000" stroke="#000000" points="798.5593,-155.5001 788.5593,-159 798.5592,-162.5001 798.5593,-155.5001"/>
</g>
<!-- StudentIndivComponent -->
<g id="node5" class="node">
<title>StudentIndivComponent</title>
<polygon fill="#ffffb3" stroke="#000000" points="813.6624,-122 660.3376,-122 660.3376,-86 813.6624,-86 813.6624,-122"/>
<text text-anchor="middle" x="737" y="-99.8" font-family="Times,serif" font-size="14.00" fill="#000000">StudentIndivComponent</text>
</g>
<!-- StudentIndivComponent&#45;&gt;StudentModule -->
<g id="edge5" class="edge">
<title>StudentIndivComponent&#45;&gt;StudentModule</title>
<path fill="none" stroke="#000000" d="M737,-122.1061C737,-122.1061 737,-140.991 737,-140.991"/>
<polygon fill="#000000" stroke="#000000" points="733.5001,-140.9909 737,-150.991 740.5001,-140.991 733.5001,-140.9909"/>
</g>
<!-- StudentListComponent -->
<g id="node6" class="node">
<title>StudentListComponent</title>
<polygon fill="#ffffb3" stroke="#000000" points="641.8892,-122 496.1108,-122 496.1108,-86 641.8892,-86 641.8892,-122"/>
<text text-anchor="middle" x="569" y="-99.8" font-family="Times,serif" font-size="14.00" fill="#000000">StudentListComponent</text>
</g>
<!-- StudentListComponent&#45;&gt;StudentModule -->
<g id="edge6" class="edge">
<title>StudentListComponent&#45;&gt;StudentModule</title>
<path fill="none" stroke="#000000" d="M569,-122.0091C569,-138.0494 569,-159 569,-159 569,-159 675.6816,-159 675.6816,-159"/>
<polygon fill="#000000" stroke="#000000" points="675.6816,-162.5001 685.6816,-159 675.6816,-155.5001 675.6816,-162.5001"/>
</g>
<!-- StudentPhageComponent -->
<g id="node7" class="node">
<title>StudentPhageComponent</title>
<polygon fill="#ffffb3" stroke="#000000" points="478.3229,-122 319.6771,-122 319.6771,-86 478.3229,-86 478.3229,-122"/>
<text text-anchor="middle" x="399" y="-99.8" font-family="Times,serif" font-size="14.00" fill="#000000">StudentPhageComponent</text>
</g>
<!-- StudentPhageComponent&#45;&gt;StudentModule -->
<g id="edge7" class="edge">
<title>StudentPhageComponent&#45;&gt;StudentModule</title>
<path fill="none" stroke="#000000" d="M399,-122.2667C399,-140.5552 399,-166 399,-166 399,-166 675.6651,-166 675.6651,-166"/>
<polygon fill="#000000" stroke="#000000" points="675.6651,-169.5001 685.6651,-166 675.665,-162.5001 675.6651,-169.5001"/>
</g>
<!-- SharedModule -->
<g id="node9" class="node">
<title>SharedModule</title>
<polygon fill="#8dd3c7" stroke="#000000" points="296.4231,-122 293.4231,-126 272.4231,-126 269.4231,-122 197.5769,-122 197.5769,-86 296.4231,-86 296.4231,-122"/>
<text text-anchor="middle" x="247" y="-99.8" font-family="Times,serif" font-size="14.00" fill="#000000">SharedModule</text>
</g>
<!-- SharedModule&#45;&gt;StudentModule -->
<g id="edge8" class="edge">
<title>SharedModule&#45;&gt;StudentModule</title>
<path fill="none" stroke="#000000" d="M247,-122.1289C247,-142.5724 247,-173 247,-173 247,-173 675.4875,-173 675.4875,-173"/>
<polygon fill="#000000" stroke="#000000" points="675.4876,-176.5001 685.4875,-173 675.4875,-169.5001 675.4876,-176.5001"/>
</g>
<!-- StudentResolver -->
<g id="node10" class="node">
<title>StudentResolver</title>
<ellipse fill="#fdb462" stroke="#000000" cx="99" cy="-104" rx="74.7381" ry="18"/>
<text text-anchor="middle" x="99" y="-99.8" font-family="Times,serif" font-size="14.00" fill="#000000">StudentResolver</text>
</g>
<!-- StudentResolver&#45;&gt;StudentModule -->
<g id="edge9" class="edge">
<title>StudentResolver&#45;&gt;StudentModule</title>
<path fill="none" stroke="#000000" d="M99,-122.0109C99,-144.4852 99,-180 99,-180 99,-180 675.5995,-180 675.5995,-180"/>
<polygon fill="#000000" stroke="#000000" points="675.5996,-183.5001 685.5995,-180 675.5995,-176.5001 675.5996,-183.5001"/>
</g>
</g>
</svg>
