<?xml version="1.0" encoding="UTF-8" standalone="no"?>
<!DOCTYPE svg PUBLIC "-//W3C//DTD SVG 1.1//EN"
 "http://www.w3.org/Graphics/SVG/1.1/DTD/svg11.dtd">
<!-- Generated by graphviz version 2.40.1 (20161225.0304)
 -->
<!-- Title: dependencies Pages: 1 -->
<svg width="1072pt" height="211pt"
 viewBox="0.00 0.00 1072.00 211.00" xmlns="http://www.w3.org/2000/svg" xmlns:xlink="http://www.w3.org/1999/xlink">
<g id="graph0" class="graph" transform="scale(1 1) rotate(0) translate(4 207)">
<title>dependencies</title>
<polygon fill="#ffffff" stroke="transparent" points="-4,4 -4,-207 1068,-207 1068,4 -4,4"/>
<text text-anchor="start" x="511.0091" y="-42.4" font-family="sans-serif" font-weight="bold" font-size="14.00" fill="#000000">Legend</text>
<polygon fill="#ffffb3" stroke="transparent" points="298,-10 298,-30 318,-30 318,-10 298,-10"/>
<text text-anchor="start" x="321.629" y="-15.4" font-family="sans-serif" font-size="14.00" fill="#000000"> &#160;Declarations</text>
<polygon fill="#8dd3c7" stroke="transparent" points="411,-10 411,-30 431,-30 431,-10 411,-10"/>
<text text-anchor="start" x="434.7251" y="-15.4" font-family="sans-serif" font-size="14.00" fill="#000000"> &#160;Module</text>
<polygon fill="#80b1d3" stroke="transparent" points="497,-10 497,-30 517,-30 517,-10 497,-10"/>
<text text-anchor="start" x="520.7812" y="-15.4" font-family="sans-serif" font-size="14.00" fill="#000000"> &#160;Bootstrap</text>
<polygon fill="#fdb462" stroke="transparent" points="594,-10 594,-30 614,-30 614,-10 594,-10"/>
<text text-anchor="start" x="617.6732" y="-15.4" font-family="sans-serif" font-size="14.00" fill="#000000"> &#160;Providers</text>
<polygon fill="#fb8072" stroke="transparent" points="690,-10 690,-30 710,-30 710,-10 690,-10"/>
<text text-anchor="start" x="713.7258" y="-15.4" font-family="sans-serif" font-size="14.00" fill="#000000"> &#160;Exports</text>
<g id="clust1" class="cluster">
<title>cluster_AdminModule</title>
<polygon fill="none" stroke="#000000" stroke-dasharray="1,5" points="8,-70 8,-195 1056,-195 1056,-70 8,-70"/>
</g>
<g id="clust2" class="cluster">
<title>cluster_AdminModule_declarations</title>
<polygon fill="none" stroke="#000000" points="592,-78 592,-130 1048,-130 1048,-78 592,-78"/>
</g>
<g id="clust6" class="cluster">
<title>cluster_AdminModule_imports</title>
<polygon fill="none" stroke="#000000" points="320,-78 320,-130 584,-130 584,-78 320,-78"/>
</g>
<g id="clust9" class="cluster">
<title>cluster_AdminModule_providers</title>
<polygon fill="none" stroke="#000000" points="16,-78 16,-130 312,-130 312,-78 16,-78"/>
</g>
<!-- AdminComponent -->
<g id="node1" class="node">
<title>AdminComponent</title>
<polygon fill="#ffffb3" stroke="#000000" points="1040.2204,-122 919.7796,-122 919.7796,-86 1040.2204,-86 1040.2204,-122"/>
<text text-anchor="middle" x="980" y="-99.8" font-family="Times,serif" font-size="14.00" fill="#000000">AdminComponent</text>
</g>
<!-- AdminModule -->
<g id="node4" class="node">
<title>AdminModule</title>
<polygon fill="#8dd3c7" stroke="#000000" points="576.4386,-187 573.4386,-191 552.4386,-191 549.4386,-187 477.5614,-187 477.5614,-151 576.4386,-151 576.4386,-187"/>
<text text-anchor="middle" x="527" y="-164.8" font-family="Times,serif" font-size="14.00" fill="#000000">AdminModule</text>
</g>
<!-- AdminComponent&#45;&gt;AdminModule -->
<g id="edge1" class="edge">
<title>AdminComponent&#45;&gt;AdminModule</title>
<path fill="none" stroke="#000000" d="M980,-122.2921C980,-144.2057 980,-178 980,-178 980,-178 586.3413,-178 586.3413,-178"/>
<polygon fill="#000000" stroke="#000000" points="586.3413,-174.5001 576.3413,-178 586.3412,-181.5001 586.3413,-174.5001"/>
</g>
<!-- AdminHomeComponent -->
<g id="node2" class="node">
<title>AdminHomeComponent</title>
<polygon fill="#ffffb3" stroke="#000000" points="902.4326,-122 747.5674,-122 747.5674,-86 902.4326,-86 902.4326,-122"/>
<text text-anchor="middle" x="825" y="-99.8" font-family="Times,serif" font-size="14.00" fill="#000000">AdminHomeComponent</text>
</g>
<!-- AdminHomeComponent&#45;&gt;AdminModule -->
<g id="edge2" class="edge">
<title>AdminHomeComponent&#45;&gt;AdminModule</title>
<path fill="none" stroke="#000000" d="M825,-122.1061C825,-141.3391 825,-169 825,-169 825,-169 586.5432,-169 586.5432,-169"/>
<polygon fill="#000000" stroke="#000000" points="586.5432,-165.5001 576.5432,-169 586.5431,-172.5001 586.5432,-165.5001"/>
</g>
<!-- NotAuthComponent -->
<g id="node3" class="node">
<title>NotAuthComponent</title>
<polygon fill="#ffffb3" stroke="#000000" points="730.3272,-122 599.6728,-122 599.6728,-86 730.3272,-86 730.3272,-122"/>
<text text-anchor="middle" x="665" y="-99.8" font-family="Times,serif" font-size="14.00" fill="#000000">NotAuthComponent</text>
</g>
<!-- NotAuthComponent&#45;&gt;AdminModule -->
<g id="edge3" class="edge">
<title>NotAuthComponent&#45;&gt;AdminModule</title>
<path fill="none" stroke="#000000" d="M665,-122.027C665,-138.3976 665,-160 665,-160 665,-160 586.4314,-160 586.4314,-160"/>
<polygon fill="#000000" stroke="#000000" points="586.4314,-156.5001 576.4314,-160 586.4313,-163.5001 586.4314,-156.5001"/>
</g>
<!-- SharedModule -->
<g id="node5" class="node">
<title>SharedModule</title>
<polygon fill="#8dd3c7" stroke="#000000" points="576.4231,-122 573.4231,-126 552.4231,-126 549.4231,-122 477.5769,-122 477.5769,-86 576.4231,-86 576.4231,-122"/>
<text text-anchor="middle" x="527" y="-99.8" font-family="Times,serif" font-size="14.00" fill="#000000">SharedModule</text>
</g>
<!-- SharedModule&#45;&gt;AdminModule -->
<g id="edge4" class="edge">
<title>SharedModule&#45;&gt;AdminModule</title>
<path fill="none" stroke="#000000" d="M527,-122.1061C527,-122.1061 527,-140.991 527,-140.991"/>
<polygon fill="#000000" stroke="#000000" points="523.5001,-140.9909 527,-150.991 530.5001,-140.991 523.5001,-140.9909"/>
</g>
<!-- AdminRouteModule -->
<g id="node6" class="node">
<title>AdminRouteModule</title>
<polygon fill="#8dd3c7" stroke="#000000" points="459.8795,-122 456.8795,-126 435.8795,-126 432.8795,-122 328.1205,-122 328.1205,-86 459.8795,-86 459.8795,-122"/>
<text text-anchor="middle" x="394" y="-99.8" font-family="Times,serif" font-size="14.00" fill="#000000">AdminRouteModule</text>
</g>
<!-- AdminRouteModule&#45;&gt;AdminModule -->
<g id="edge5" class="edge">
<title>AdminRouteModule&#45;&gt;AdminModule</title>
<path fill="none" stroke="#000000" d="M394,-122.027C394,-138.3976 394,-160 394,-160 394,-160 467.4757,-160 467.4757,-160"/>
<polygon fill="#000000" stroke="#000000" points="467.4757,-163.5001 477.4757,-160 467.4757,-156.5001 467.4757,-163.5001"/>
</g>
<!-- AdminGuard -->
<g id="node7" class="node">
<title>AdminGuard</title>
<ellipse fill="#fdb462" stroke="#000000" cx="242" cy="-104" rx="61.9808" ry="18"/>
<text text-anchor="middle" x="242" y="-99.8" font-family="Times,serif" font-size="14.00" fill="#000000">AdminGuard</text>
</g>
<!-- AdminGuard&#45;&gt;AdminModule -->
<g id="edge6" class="edge">
<title>AdminGuard&#45;&gt;AdminModule</title>
<path fill="none" stroke="#000000" d="M242,-122.1061C242,-141.3391 242,-169 242,-169 242,-169 467.6822,-169 467.6822,-169"/>
<polygon fill="#000000" stroke="#000000" points="467.6822,-172.5001 477.6822,-169 467.6821,-165.5001 467.6822,-172.5001"/>
</g>
<!-- StudentService -->
<g id="node8" class="node">
<title>StudentService</title>
<ellipse fill="#fdb462" stroke="#000000" cx="93" cy="-104" rx="69.4993" ry="18"/>
<text text-anchor="middle" x="93" y="-99.8" font-family="Times,serif" font-size="14.00" fill="#000000">StudentService</text>
</g>
<!-- StudentService&#45;&gt;AdminModule -->
<g id="edge7" class="edge">
<title>StudentService&#45;&gt;AdminModule</title>
<path fill="none" stroke="#000000" d="M93,-122.2921C93,-144.2057 93,-178 93,-178 93,-178 467.6372,-178 467.6372,-178"/>
<polygon fill="#000000" stroke="#000000" points="467.6373,-181.5001 477.6372,-178 467.6372,-174.5001 467.6373,-181.5001"/>
</g>
</g>
</svg>
