<?xml version="1.0" encoding="UTF-8" standalone="no"?>
<!DOCTYPE svg PUBLIC "-//W3C//DTD SVG 1.1//EN"
 "http://www.w3.org/Graphics/SVG/1.1/DTD/svg11.dtd">
<!-- Generated by graphviz version 2.40.1 (20161225.0304)
 -->
<!-- Title: dependencies Pages: 1 -->
<svg width="922pt" height="211pt"
 viewBox="0.00 0.00 922.00 211.00" xmlns="http://www.w3.org/2000/svg" xmlns:xlink="http://www.w3.org/1999/xlink">
<g id="graph0" class="graph" transform="scale(1 1) rotate(0) translate(4 207)">
<title>dependencies</title>
<polygon fill="#ffffff" stroke="transparent" points="-4,4 -4,-207 918,-207 918,4 -4,4"/>
<text text-anchor="start" x="436.0091" y="-42.4" font-family="sans-serif" font-weight="bold" font-size="14.00" fill="#000000">Legend</text>
<polygon fill="#ffffb3" stroke="transparent" points="223,-10 223,-30 243,-30 243,-10 223,-10"/>
<text text-anchor="start" x="246.629" y="-15.4" font-family="sans-serif" font-size="14.00" fill="#000000"> &#160;Declarations</text>
<polygon fill="#8dd3c7" stroke="transparent" points="336,-10 336,-30 356,-30 356,-10 336,-10"/>
<text text-anchor="start" x="359.7251" y="-15.4" font-family="sans-serif" font-size="14.00" fill="#000000"> &#160;Module</text>
<polygon fill="#80b1d3" stroke="transparent" points="422,-10 422,-30 442,-30 442,-10 422,-10"/>
<text text-anchor="start" x="445.7812" y="-15.4" font-family="sans-serif" font-size="14.00" fill="#000000"> &#160;Bootstrap</text>
<polygon fill="#fdb462" stroke="transparent" points="519,-10 519,-30 539,-30 539,-10 519,-10"/>
<text text-anchor="start" x="542.6732" y="-15.4" font-family="sans-serif" font-size="14.00" fill="#000000"> &#160;Providers</text>
<polygon fill="#fb8072" stroke="transparent" points="615,-10 615,-30 635,-30 635,-10 615,-10"/>
<text text-anchor="start" x="638.7258" y="-15.4" font-family="sans-serif" font-size="14.00" fill="#000000"> &#160;Exports</text>
<g id="clust1" class="cluster">
<title>cluster_AdminModule</title>
<polygon fill="none" stroke="#000000" stroke-dasharray="1,5" points="8,-70 8,-195 906,-195 906,-70 8,-70"/>
</g>
<g id="clust2" class="cluster">
<title>cluster_AdminModule_declarations</title>
<polygon fill="none" stroke="#000000" points="442,-78 442,-130 898,-130 898,-78 442,-78"/>
</g>
<g id="clust6" class="cluster">
<title>cluster_AdminModule_imports</title>
<polygon fill="none" stroke="#000000" points="320,-78 320,-130 434,-130 434,-78 320,-78"/>
</g>
<g id="clust9" class="cluster">
<title>cluster_AdminModule_providers</title>
<polygon fill="none" stroke="#000000" points="16,-78 16,-130 312,-130 312,-78 16,-78"/>
</g>
<!-- AdminComponent -->
<g id="node1" class="node">
<title>AdminComponent</title>
<polygon fill="#ffffb3" stroke="#000000" points="890.2204,-122 769.7796,-122 769.7796,-86 890.2204,-86 890.2204,-122"/>
<text text-anchor="middle" x="830" y="-99.8" font-family="Times,serif" font-size="14.00" fill="#000000">AdminComponent</text>
</g>
<!-- AdminModule -->
<g id="node4" class="node">
<title>AdminModule</title>
<polygon fill="#8dd3c7" stroke="#000000" points="495.4386,-187 492.4386,-191 471.4386,-191 468.4386,-187 396.5614,-187 396.5614,-151 495.4386,-151 495.4386,-187"/>
<text text-anchor="middle" x="446" y="-164.8" font-family="Times,serif" font-size="14.00" fill="#000000">AdminModule</text>
</g>
<!-- AdminComponent&#45;&gt;AdminModule -->
<g id="edge1" class="edge">
<title>AdminComponent&#45;&gt;AdminModule</title>
<path fill="none" stroke="#000000" d="M830,-122.2843C830,-143.3211 830,-175 830,-175 830,-175 505.4152,-175 505.4152,-175"/>
<polygon fill="#000000" stroke="#000000" points="505.4152,-171.5001 495.4152,-175 505.4151,-178.5001 505.4152,-171.5001"/>
</g>
<!-- AdminHomeComponent -->
<g id="node2" class="node">
<title>AdminHomeComponent</title>
<polygon fill="#ffffb3" stroke="#000000" points="752.4326,-122 597.5674,-122 597.5674,-86 752.4326,-86 752.4326,-122"/>
<text text-anchor="middle" x="675" y="-99.8" font-family="Times,serif" font-size="14.00" fill="#000000">AdminHomeComponent</text>
</g>
<!-- AdminHomeComponent&#45;&gt;AdminModule -->
<g id="edge2" class="edge">
<title>AdminHomeComponent&#45;&gt;AdminModule</title>
<path fill="none" stroke="#000000" d="M675,-122.0225C675,-139.3734 675,-163 675,-163 675,-163 505.4077,-163 505.4077,-163"/>
<polygon fill="#000000" stroke="#000000" points="505.4077,-159.5001 495.4077,-163 505.4076,-166.5001 505.4077,-159.5001"/>
</g>
<!-- NotAuthComponent -->
<g id="node3" class="node">
<title>NotAuthComponent</title>
<polygon fill="#ffffb3" stroke="#000000" points="580.3272,-122 449.6728,-122 449.6728,-86 580.3272,-86 580.3272,-122"/>
<text text-anchor="middle" x="515" y="-99.8" font-family="Times,serif" font-size="14.00" fill="#000000">NotAuthComponent</text>
</g>
<!-- NotAuthComponent&#45;&gt;AdminModule -->
<g id="edge3" class="edge">
<title>NotAuthComponent&#45;&gt;AdminModule</title>
<path fill="none" stroke="#000000" d="M472.5277,-122.1061C472.5277,-122.1061 472.5277,-140.991 472.5277,-140.991"/>
<polygon fill="#000000" stroke="#000000" points="469.0278,-140.9909 472.5277,-150.991 476.0278,-140.991 469.0278,-140.9909"/>
</g>
<!-- SharedModule -->
<g id="node5" class="node">
<title>SharedModule</title>
<polygon fill="#8dd3c7" stroke="#000000" points="426.4231,-122 423.4231,-126 402.4231,-126 399.4231,-122 327.5769,-122 327.5769,-86 426.4231,-86 426.4231,-122"/>
<text text-anchor="middle" x="377" y="-99.8" font-family="Times,serif" font-size="14.00" fill="#000000">SharedModule</text>
</g>
<!-- SharedModule&#45;&gt;AdminModule -->
<g id="edge4" class="edge">
<title>SharedModule&#45;&gt;AdminModule</title>
<path fill="none" stroke="#000000" d="M411.4962,-122.1061C411.4962,-122.1061 411.4962,-140.991 411.4962,-140.991"/>
<polygon fill="#000000" stroke="#000000" points="407.9962,-140.9909 411.4962,-150.991 414.9962,-140.991 407.9962,-140.9909"/>
</g>
<!-- AdminGuard -->
<g id="node6" class="node">
<title>AdminGuard</title>
<ellipse fill="#fdb462" stroke="#000000" cx="242" cy="-104" rx="61.9808" ry="18"/>
<text text-anchor="middle" x="242" y="-99.8" font-family="Times,serif" font-size="14.00" fill="#000000">AdminGuard</text>
</g>
<!-- AdminGuard&#45;&gt;AdminModule -->
<g id="edge5" class="edge">
<title>AdminGuard&#45;&gt;AdminModule</title>
<path fill="none" stroke="#000000" d="M242,-122.0225C242,-139.3734 242,-163 242,-163 242,-163 386.6173,-163 386.6173,-163"/>
<polygon fill="#000000" stroke="#000000" points="386.6173,-166.5001 396.6173,-163 386.6173,-159.5001 386.6173,-166.5001"/>
</g>
<!-- StudentService -->
<g id="node7" class="node">
<title>StudentService</title>
<ellipse fill="#fdb462" stroke="#000000" cx="93" cy="-104" rx="69.4993" ry="18"/>
<text text-anchor="middle" x="93" y="-99.8" font-family="Times,serif" font-size="14.00" fill="#000000">StudentService</text>
</g>
<!-- StudentService&#45;&gt;AdminModule -->
<g id="edge6" class="edge">
<title>StudentService&#45;&gt;AdminModule</title>
<path fill="none" stroke="#000000" d="M93,-122.2843C93,-143.3211 93,-175 93,-175 93,-175 386.5452,-175 386.5452,-175"/>
<polygon fill="#000000" stroke="#000000" points="386.5452,-178.5001 396.5452,-175 386.5451,-171.5001 386.5452,-178.5001"/>
</g>
</g>
</svg>
