<?xml version="1.0" encoding="UTF-8" standalone="no"?>
<!DOCTYPE svg PUBLIC "-//W3C//DTD SVG 1.1//EN"
 "http://www.w3.org/Graphics/SVG/1.1/DTD/svg11.dtd">
<!-- Generated by graphviz version 2.40.1 (20161225.0304)
 -->
<!-- Title: dependencies Pages: 1 -->
<svg width="2359pt" height="284pt"
 viewBox="0.00 0.00 2359.00 284.00" xmlns="http://www.w3.org/2000/svg" xmlns:xlink="http://www.w3.org/1999/xlink">
<g id="graph0" class="graph" transform="scale(1 1) rotate(0) translate(4 280)">
<title>dependencies</title>
<polygon fill="#ffffff" stroke="transparent" points="-4,4 -4,-280 2355,-280 2355,4 -4,4"/>
<text text-anchor="start" x="1154.5091" y="-42.4" font-family="sans-serif" font-weight="bold" font-size="14.00" fill="#000000">Legend</text>
<polygon fill="#ffffb3" stroke="transparent" points="941.5,-10 941.5,-30 961.5,-30 961.5,-10 941.5,-10"/>
<text text-anchor="start" x="965.129" y="-15.4" font-family="sans-serif" font-size="14.00" fill="#000000"> &#160;Declarations</text>
<polygon fill="#8dd3c7" stroke="transparent" points="1054.5,-10 1054.5,-30 1074.5,-30 1074.5,-10 1054.5,-10"/>
<text text-anchor="start" x="1078.2251" y="-15.4" font-family="sans-serif" font-size="14.00" fill="#000000"> &#160;Module</text>
<polygon fill="#80b1d3" stroke="transparent" points="1140.5,-10 1140.5,-30 1160.5,-30 1160.5,-10 1140.5,-10"/>
<text text-anchor="start" x="1164.2812" y="-15.4" font-family="sans-serif" font-size="14.00" fill="#000000"> &#160;Bootstrap</text>
<polygon fill="#fdb462" stroke="transparent" points="1237.5,-10 1237.5,-30 1257.5,-30 1257.5,-10 1237.5,-10"/>
<text text-anchor="start" x="1261.1732" y="-15.4" font-family="sans-serif" font-size="14.00" fill="#000000"> &#160;Providers</text>
<polygon fill="#fb8072" stroke="transparent" points="1333.5,-10 1333.5,-30 1353.5,-30 1353.5,-10 1333.5,-10"/>
<text text-anchor="start" x="1357.2258" y="-15.4" font-family="sans-serif" font-size="14.00" fill="#000000"> &#160;Exports</text>
<g id="clust1" class="cluster">
<title>cluster_AppModule</title>
<polygon fill="none" stroke="#000000" stroke-dasharray="1,5" points="8,-70 8,-268 2343,-268 2343,-70 8,-70"/>
</g>
<g id="clust2" class="cluster">
<title>cluster_AppModule_declarations</title>
<polygon fill="none" stroke="#000000" points="1774,-78 1774,-130 2335,-130 2335,-78 1774,-78"/>
</g>
<g id="clust7" class="cluster">
<title>cluster_AppModule_imports</title>
<polygon fill="none" stroke="#000000" points="893,-78 893,-130 1766,-130 1766,-78 893,-78"/>
</g>
<g id="clust9" class="cluster">
<title>cluster_AppModule_bootstrap</title>
<polygon fill="none" stroke="#000000" points="1185,-208 1185,-260 1309,-260 1309,-208 1185,-208"/>
</g>
<g id="clust10" class="cluster">
<title>cluster_AppModule_providers</title>
<polygon fill="none" stroke="#000000" points="16,-78 16,-130 885,-130 885,-78 16,-78"/>
</g>
<!-- AppComponent -->
<g id="node1" class="node">
<title>AppComponent</title>
<polygon fill="#ffffb3" stroke="#000000" points="2326.9399,-122 2221.0601,-122 2221.0601,-86 2326.9399,-86 2326.9399,-122"/>
<text text-anchor="middle" x="2274" y="-99.8" font-family="Times,serif" font-size="14.00" fill="#000000">AppComponent</text>
</g>
<!-- AppModule -->
<g id="node5" class="node">
<title>AppModule</title>
<polygon fill="#8dd3c7" stroke="#000000" points="1288.6571,-187 1285.6571,-191 1264.6571,-191 1261.6571,-187 1205.3429,-187 1205.3429,-151 1288.6571,-151 1288.6571,-187"/>
<text text-anchor="middle" x="1247" y="-164.8" font-family="Times,serif" font-size="14.00" fill="#000000">AppModule</text>
</g>
<!-- AppComponent&#45;&gt;AppModule -->
<g id="edge1" class="edge">
<title>AppComponent&#45;&gt;AppModule</title>
<path fill="none" stroke="#000000" d="M2274,-122.3228C2274,-145.6602 2274,-183 2274,-183 2274,-183 1298.8524,-183 1298.8524,-183"/>
<polygon fill="#000000" stroke="#000000" points="1298.8524,-179.5001 1288.8524,-183 1298.8523,-186.5001 1298.8524,-179.5001"/>
</g>
<!-- HomeComponent -->
<g id="node2" class="node">
<title>HomeComponent</title>
<polygon fill="#ffffb3" stroke="#000000" points="2203.5451,-122 2088.4549,-122 2088.4549,-86 2203.5451,-86 2203.5451,-122"/>
<text text-anchor="middle" x="2146" y="-99.8" font-family="Times,serif" font-size="14.00" fill="#000000">HomeComponent</text>
</g>
<!-- HomeComponent&#45;&gt;AppModule -->
<g id="edge2" class="edge">
<title>HomeComponent&#45;&gt;AppModule</title>
<path fill="none" stroke="#000000" d="M2146,-122.2921C2146,-144.2057 2146,-178 2146,-178 2146,-178 1298.8558,-178 1298.8558,-178"/>
<polygon fill="#000000" stroke="#000000" points="1298.8558,-174.5001 1288.8558,-178 1298.8557,-181.5001 1298.8558,-174.5001"/>
</g>
<!-- NavComponent -->
<g id="node3" class="node">
<title>NavComponent</title>
<polygon fill="#ffffb3" stroke="#000000" points="2070.1542,-122 1965.8458,-122 1965.8458,-86 2070.1542,-86 2070.1542,-122"/>
<text text-anchor="middle" x="2018" y="-99.8" font-family="Times,serif" font-size="14.00" fill="#000000">NavComponent</text>
</g>
<!-- NavComponent&#45;&gt;AppModule -->
<g id="edge3" class="edge">
<title>NavComponent&#45;&gt;AppModule</title>
<path fill="none" stroke="#000000" d="M2018,-122.0267C2018,-142.7672 2018,-174 2018,-174 2018,-174 1298.7257,-174 1298.7257,-174"/>
<polygon fill="#000000" stroke="#000000" points="1298.7257,-170.5001 1288.7257,-174 1298.7256,-177.5001 1298.7257,-170.5001"/>
</g>
<!-- PageNotFoundComponent -->
<g id="node4" class="node">
<title>PageNotFoundComponent</title>
<polygon fill="#ffffb3" stroke="#000000" points="1947.8243,-122 1782.1757,-122 1782.1757,-86 1947.8243,-86 1947.8243,-122"/>
<text text-anchor="middle" x="1865" y="-99.8" font-family="Times,serif" font-size="14.00" fill="#000000">PageNotFoundComponent</text>
</g>
<!-- PageNotFoundComponent&#45;&gt;AppModule -->
<g id="edge4" class="edge">
<title>PageNotFoundComponent&#45;&gt;AppModule</title>
<path fill="none" stroke="#000000" d="M1865,-122.1061C1865,-141.3391 1865,-169 1865,-169 1865,-169 1298.9918,-169 1298.9918,-169"/>
<polygon fill="#000000" stroke="#000000" points="1298.9918,-165.5001 1288.9918,-169 1298.9918,-172.5001 1298.9918,-165.5001"/>
</g>
<!-- AppComponent  -->
<g id="node13" class="node">
<title>AppComponent </title>
<polygon fill="#80b1d3" stroke="#000000" points="1301.439,-252 1192.561,-252 1192.561,-216 1301.439,-216 1301.439,-252"/>
<text text-anchor="middle" x="1247" y="-229.8" font-family="Times,serif" font-size="14.00" fill="#000000">AppComponent </text>
</g>
<!-- AppModule&#45;&gt;AppComponent  -->
<g id="edge12" class="edge">
<title>AppModule&#45;&gt;AppComponent </title>
<path fill="none" stroke="#000000" stroke-dasharray="1,5" d="M1247,-187.1061C1247,-187.1061 1247,-205.991 1247,-205.991"/>
<polygon fill="#000000" stroke="#000000" points="1243.5001,-205.9909 1247,-215.991 1250.5001,-205.991 1243.5001,-205.9909"/>
</g>
<!-- AdminModule -->
<g id="node6" class="node">
<title>AdminModule</title>
<polygon fill="#8dd3c7" stroke="#000000" points="1758.4386,-122 1755.4386,-126 1734.4386,-126 1731.4386,-122 1659.5614,-122 1659.5614,-86 1758.4386,-86 1758.4386,-122"/>
<text text-anchor="middle" x="1709" y="-99.8" font-family="Times,serif" font-size="14.00" fill="#000000">AdminModule</text>
</g>
<!-- AdminModule&#45;&gt;AppModule -->
<g id="edge5" class="edge">
<title>AdminModule&#45;&gt;AppModule</title>
<path fill="none" stroke="#000000" d="M1709,-122.302C1709,-140.2699 1709,-165 1709,-165 1709,-165 1298.8143,-165 1298.8143,-165"/>
<polygon fill="#000000" stroke="#000000" points="1298.8143,-161.5001 1288.8143,-165 1298.8142,-168.5001 1298.8143,-161.5001"/>
</g>
<!-- AppRouteModule -->
<g id="node7" class="node">
<title>AppRouteModule</title>
<polygon fill="#8dd3c7" stroke="#000000" points="1641.5982,-122 1638.5982,-126 1617.5982,-126 1614.5982,-122 1524.4018,-122 1524.4018,-86 1641.5982,-86 1641.5982,-122"/>
<text text-anchor="middle" x="1583" y="-99.8" font-family="Times,serif" font-size="14.00" fill="#000000">AppRouteModule</text>
</g>
<!-- AppRouteModule&#45;&gt;AppModule -->
<g id="edge6" class="edge">
<title>AppRouteModule&#45;&gt;AppModule</title>
<path fill="none" stroke="#000000" d="M1583,-122.027C1583,-138.3976 1583,-160 1583,-160 1583,-160 1298.8753,-160 1298.8753,-160"/>
<polygon fill="#000000" stroke="#000000" points="1298.8753,-156.5001 1288.8753,-160 1298.8752,-163.5001 1298.8753,-156.5001"/>
</g>
<!-- AuthenticationModule -->
<g id="node8" class="node">
<title>AuthenticationModule</title>
<polygon fill="#8dd3c7" stroke="#000000" points="1506.2534,-122 1503.2534,-126 1482.2534,-126 1479.2534,-122 1363.7466,-122 1363.7466,-86 1506.2534,-86 1506.2534,-122"/>
<text text-anchor="middle" x="1435" y="-99.8" font-family="Times,serif" font-size="14.00" fill="#000000">AuthenticationModule</text>
</g>
<!-- AuthenticationModule&#45;&gt;AppModule -->
<g id="edge7" class="edge">
<title>AuthenticationModule&#45;&gt;AppModule</title>
<path fill="none" stroke="#000000" d="M1435,-122.1871C1435,-137.1824 1435,-156 1435,-156 1435,-156 1298.7233,-156 1298.7233,-156"/>
<polygon fill="#000000" stroke="#000000" points="1298.7233,-152.5001 1288.7233,-156 1298.7233,-159.5001 1298.7233,-152.5001"/>
</g>
<!-- HelpModule -->
<g id="node9" class="node">
<title>HelpModule</title>
<polygon fill="#8dd3c7" stroke="#000000" points="1345.2619,-122 1342.2619,-126 1321.2619,-126 1318.2619,-122 1258.7381,-122 1258.7381,-86 1345.2619,-86 1345.2619,-122"/>
<text text-anchor="middle" x="1302" y="-99.8" font-family="Times,serif" font-size="14.00" fill="#000000">HelpModule</text>
</g>
<!-- HelpModule&#45;&gt;AppModule -->
<g id="edge8" class="edge">
<title>HelpModule&#45;&gt;AppModule</title>
<path fill="none" stroke="#000000" d="M1273.7237,-122.1061C1273.7237,-122.1061 1273.7237,-140.991 1273.7237,-140.991"/>
<polygon fill="#000000" stroke="#000000" points="1270.2238,-140.9909 1273.7237,-150.991 1277.2238,-140.991 1270.2238,-140.9909"/>
</g>
<!-- ProfileModule -->
<g id="node10" class="node">
<title>ProfileModule</title>
<polygon fill="#8dd3c7" stroke="#000000" points="1240.65,-122 1237.65,-126 1216.65,-126 1213.65,-122 1143.35,-122 1143.35,-86 1240.65,-86 1240.65,-122"/>
<text text-anchor="middle" x="1192" y="-99.8" font-family="Times,serif" font-size="14.00" fill="#000000">ProfileModule</text>
</g>
<!-- ProfileModule&#45;&gt;AppModule -->
<g id="edge9" class="edge">
<title>ProfileModule&#45;&gt;AppModule</title>
<path fill="none" stroke="#000000" d="M1222.9983,-122.1061C1222.9983,-122.1061 1222.9983,-140.991 1222.9983,-140.991"/>
<polygon fill="#000000" stroke="#000000" points="1219.4983,-140.9909 1222.9983,-150.991 1226.4983,-140.991 1219.4983,-140.9909"/>
</g>
<!-- ScenarioModule -->
<g id="node11" class="node">
<title>ScenarioModule</title>
<polygon fill="#8dd3c7" stroke="#000000" points="1125.0284,-122 1122.0284,-126 1101.0284,-126 1098.0284,-122 1016.9716,-122 1016.9716,-86 1125.0284,-86 1125.0284,-122"/>
<text text-anchor="middle" x="1071" y="-99.8" font-family="Times,serif" font-size="14.00" fill="#000000">ScenarioModule</text>
</g>
<!-- ScenarioModule&#45;&gt;AppModule -->
<g id="edge10" class="edge">
<title>ScenarioModule&#45;&gt;AppModule</title>
<path fill="none" stroke="#000000" d="M1071,-122.1871C1071,-137.1824 1071,-156 1071,-156 1071,-156 1195.2905,-156 1195.2905,-156"/>
<polygon fill="#000000" stroke="#000000" points="1195.2905,-159.5001 1205.2905,-156 1195.2904,-152.5001 1195.2905,-159.5001"/>
</g>
<!-- SharedModule -->
<g id="node12" class="node">
<title>SharedModule</title>
<polygon fill="#8dd3c7" stroke="#000000" points="999.4231,-122 996.4231,-126 975.4231,-126 972.4231,-122 900.5769,-122 900.5769,-86 999.4231,-86 999.4231,-122"/>
<text text-anchor="middle" x="950" y="-99.8" font-family="Times,serif" font-size="14.00" fill="#000000">SharedModule</text>
</g>
<!-- SharedModule&#45;&gt;AppModule -->
<g id="edge11" class="edge">
<title>SharedModule&#45;&gt;AppModule</title>
<path fill="none" stroke="#000000" d="M950,-122.027C950,-138.3976 950,-160 950,-160 950,-160 1195.0771,-160 1195.0771,-160"/>
<polygon fill="#000000" stroke="#000000" points="1195.0771,-163.5001 1205.0771,-160 1195.077,-156.5001 1195.0771,-163.5001"/>
</g>
<!-- AuthenticationService -->
<g id="node14" class="node">
<title>AuthenticationService</title>
<ellipse fill="#fdb462" stroke="#000000" cx="780" cy="-104" rx="97.2683" ry="18"/>
<text text-anchor="middle" x="780" y="-99.8" font-family="Times,serif" font-size="14.00" fill="#000000">AuthenticationService</text>
</g>
<!-- AuthenticationService&#45;&gt;AppModule -->
<g id="edge13" class="edge">
<title>AuthenticationService&#45;&gt;AppModule</title>
<path fill="none" stroke="#000000" d="M780,-122.302C780,-140.2699 780,-165 780,-165 780,-165 1195.1459,-165 1195.1459,-165"/>
<polygon fill="#000000" stroke="#000000" points="1195.1459,-168.5001 1205.1459,-165 1195.1458,-161.5001 1195.1459,-168.5001"/>
</g>
<!-- CourseService -->
<g id="node15" class="node">
<title>CourseService</title>
<ellipse fill="#fdb462" stroke="#000000" cx="597" cy="-104" rx="67.1927" ry="18"/>
<text text-anchor="middle" x="597" y="-99.8" font-family="Times,serif" font-size="14.00" fill="#000000">CourseService</text>
</g>
<!-- CourseService&#45;&gt;AppModule -->
<g id="edge14" class="edge">
<title>CourseService&#45;&gt;AppModule</title>
<path fill="none" stroke="#000000" d="M597,-122.1061C597,-141.3391 597,-169 597,-169 597,-169 1194.8525,-169 1194.8525,-169"/>
<polygon fill="#000000" stroke="#000000" points="1194.8525,-172.5001 1204.8525,-169 1194.8525,-165.5001 1194.8525,-172.5001"/>
</g>
<!-- LoggedInGuard -->
<g id="node16" class="node">
<title>LoggedInGuard</title>
<ellipse fill="#fdb462" stroke="#000000" cx="439" cy="-104" rx="72.9198" ry="18"/>
<text text-anchor="middle" x="439" y="-99.8" font-family="Times,serif" font-size="14.00" fill="#000000">LoggedInGuard</text>
</g>
<!-- LoggedInGuard&#45;&gt;AppModule -->
<g id="edge15" class="edge">
<title>LoggedInGuard&#45;&gt;AppModule</title>
<path fill="none" stroke="#000000" d="M439,-122.0267C439,-142.7672 439,-174 439,-174 439,-174 1195.2599,-174 1195.2599,-174"/>
<polygon fill="#000000" stroke="#000000" points="1195.2599,-177.5001 1205.2599,-174 1195.2598,-170.5001 1195.2599,-177.5001"/>
</g>
<!-- ScenarioResolver -->
<g id="node17" class="node">
<title>ScenarioResolver</title>
<ellipse fill="#fdb462" stroke="#000000" cx="269" cy="-104" rx="79.2903" ry="18"/>
<text text-anchor="middle" x="269" y="-99.8" font-family="Times,serif" font-size="14.00" fill="#000000">ScenarioResolver</text>
</g>
<!-- ScenarioResolver&#45;&gt;AppModule -->
<g id="edge16" class="edge">
<title>ScenarioResolver&#45;&gt;AppModule</title>
<path fill="none" stroke="#000000" d="M269,-122.2921C269,-144.2057 269,-178 269,-178 269,-178 1195.2894,-178 1195.2894,-178"/>
<polygon fill="#000000" stroke="#000000" points="1195.2895,-181.5001 1205.2894,-178 1195.2894,-174.5001 1195.2895,-181.5001"/>
</g>
<!-- ScenarioService -->
<g id="node18" class="node">
<title>ScenarioService</title>
<ellipse fill="#fdb462" stroke="#000000" cx="98" cy="-104" rx="73.5522" ry="18"/>
<text text-anchor="middle" x="98" y="-99.8" font-family="Times,serif" font-size="14.00" fill="#000000">ScenarioService</text>
</g>
<!-- ScenarioService&#45;&gt;AppModule -->
<g id="edge17" class="edge">
<title>ScenarioService&#45;&gt;AppModule</title>
<path fill="none" stroke="#000000" d="M98,-122.3228C98,-145.6602 98,-183 98,-183 98,-183 1195.0864,-183 1195.0864,-183"/>
<polygon fill="#000000" stroke="#000000" points="1195.0864,-186.5001 1205.0864,-183 1195.0863,-179.5001 1195.0864,-186.5001"/>
</g>
</g>
</svg>
