<?xml version="1.0" encoding="UTF-8" standalone="no"?>
<!DOCTYPE svg PUBLIC "-//W3C//DTD SVG 1.1//EN"
 "http://www.w3.org/Graphics/SVG/1.1/DTD/svg11.dtd">
<!-- Generated by graphviz version 2.40.1 (20161225.0304)
 -->
<!-- Title: dependencies Pages: 1 -->
<svg width="2224pt" height="284pt"
 viewBox="0.00 0.00 2224.00 284.00" xmlns="http://www.w3.org/2000/svg" xmlns:xlink="http://www.w3.org/1999/xlink">
<g id="graph0" class="graph" transform="scale(1 1) rotate(0) translate(4 280)">
<title>dependencies</title>
<polygon fill="#ffffff" stroke="transparent" points="-4,4 -4,-280 2220,-280 2220,4 -4,4"/>
<text text-anchor="start" x="1087.0091" y="-42.4" font-family="sans-serif" font-weight="bold" font-size="14.00" fill="#000000">Legend</text>
<polygon fill="#ffffb3" stroke="transparent" points="874,-10 874,-30 894,-30 894,-10 874,-10"/>
<text text-anchor="start" x="897.629" y="-15.4" font-family="sans-serif" font-size="14.00" fill="#000000"> &#160;Declarations</text>
<polygon fill="#8dd3c7" stroke="transparent" points="987,-10 987,-30 1007,-30 1007,-10 987,-10"/>
<text text-anchor="start" x="1010.7251" y="-15.4" font-family="sans-serif" font-size="14.00" fill="#000000"> &#160;Module</text>
<polygon fill="#80b1d3" stroke="transparent" points="1073,-10 1073,-30 1093,-30 1093,-10 1073,-10"/>
<text text-anchor="start" x="1096.7812" y="-15.4" font-family="sans-serif" font-size="14.00" fill="#000000"> &#160;Bootstrap</text>
<polygon fill="#fdb462" stroke="transparent" points="1170,-10 1170,-30 1190,-30 1190,-10 1170,-10"/>
<text text-anchor="start" x="1193.6732" y="-15.4" font-family="sans-serif" font-size="14.00" fill="#000000"> &#160;Providers</text>
<polygon fill="#fb8072" stroke="transparent" points="1266,-10 1266,-30 1286,-30 1286,-10 1266,-10"/>
<text text-anchor="start" x="1289.7258" y="-15.4" font-family="sans-serif" font-size="14.00" fill="#000000"> &#160;Exports</text>
<g id="clust1" class="cluster">
<title>cluster_AppModule</title>
<polygon fill="none" stroke="#000000" stroke-dasharray="1,5" points="8,-70 8,-268 2208,-268 2208,-70 8,-70"/>
</g>
<g id="clust2" class="cluster">
<title>cluster_AppModule_declarations</title>
<polygon fill="none" stroke="#000000" points="1639,-78 1639,-130 2200,-130 2200,-78 1639,-78"/>
</g>
<g id="clust7" class="cluster">
<title>cluster_AppModule_imports</title>
<polygon fill="none" stroke="#000000" points="893,-78 893,-130 1631,-130 1631,-78 893,-78"/>
</g>
<g id="clust9" class="cluster">
<title>cluster_AppModule_bootstrap</title>
<polygon fill="none" stroke="#000000" points="1130,-208 1130,-260 1254,-260 1254,-208 1130,-208"/>
</g>
<g id="clust10" class="cluster">
<title>cluster_AppModule_providers</title>
<polygon fill="none" stroke="#000000" points="16,-78 16,-130 885,-130 885,-78 16,-78"/>
</g>
<!-- AppComponent -->
<g id="node1" class="node">
<title>AppComponent</title>
<polygon fill="#ffffb3" stroke="#000000" points="2191.9399,-122 2086.0601,-122 2086.0601,-86 2191.9399,-86 2191.9399,-122"/>
<text text-anchor="middle" x="2139" y="-99.8" font-family="Times,serif" font-size="14.00" fill="#000000">AppComponent</text>
</g>
<!-- AppModule -->
<g id="node5" class="node">
<title>AppModule</title>
<polygon fill="#8dd3c7" stroke="#000000" points="1233.6571,-187 1230.6571,-191 1209.6571,-191 1206.6571,-187 1150.3429,-187 1150.3429,-151 1233.6571,-151 1233.6571,-187"/>
<text text-anchor="middle" x="1192" y="-164.8" font-family="Times,serif" font-size="14.00" fill="#000000">AppModule</text>
</g>
<!-- AppComponent&#45;&gt;AppModule -->
<g id="edge1" class="edge">
<title>AppComponent&#45;&gt;AppModule</title>
<path fill="none" stroke="#000000" d="M2139,-122.3228C2139,-145.6602 2139,-183 2139,-183 2139,-183 1243.9133,-183 1243.9133,-183"/>
<polygon fill="#000000" stroke="#000000" points="1243.9134,-179.5001 1233.9133,-183 1243.9133,-186.5001 1243.9134,-179.5001"/>
</g>
<!-- HomeComponent -->
<g id="node2" class="node">
<title>HomeComponent</title>
<polygon fill="#ffffb3" stroke="#000000" points="2068.5451,-122 1953.4549,-122 1953.4549,-86 2068.5451,-86 2068.5451,-122"/>
<text text-anchor="middle" x="2011" y="-99.8" font-family="Times,serif" font-size="14.00" fill="#000000">HomeComponent</text>
</g>
<!-- HomeComponent&#45;&gt;AppModule -->
<g id="edge2" class="edge">
<title>HomeComponent&#45;&gt;AppModule</title>
<path fill="none" stroke="#000000" d="M2011,-122.2921C2011,-144.2057 2011,-178 2011,-178 2011,-178 1243.7403,-178 1243.7403,-178"/>
<polygon fill="#000000" stroke="#000000" points="1243.7403,-174.5001 1233.7403,-178 1243.7403,-181.5001 1243.7403,-174.5001"/>
</g>
<!-- NavComponent -->
<g id="node3" class="node">
<title>NavComponent</title>
<polygon fill="#ffffb3" stroke="#000000" points="1935.1542,-122 1830.8458,-122 1830.8458,-86 1935.1542,-86 1935.1542,-122"/>
<text text-anchor="middle" x="1883" y="-99.8" font-family="Times,serif" font-size="14.00" fill="#000000">NavComponent</text>
</g>
<!-- NavComponent&#45;&gt;AppModule -->
<g id="edge3" class="edge">
<title>NavComponent&#45;&gt;AppModule</title>
<path fill="none" stroke="#000000" d="M1883,-122.0267C1883,-142.7672 1883,-174 1883,-174 1883,-174 1243.669,-174 1243.669,-174"/>
<polygon fill="#000000" stroke="#000000" points="1243.669,-170.5001 1233.669,-174 1243.669,-177.5001 1243.669,-170.5001"/>
</g>
<!-- PageNotFoundComponent -->
<g id="node4" class="node">
<title>PageNotFoundComponent</title>
<polygon fill="#ffffb3" stroke="#000000" points="1812.8243,-122 1647.1757,-122 1647.1757,-86 1812.8243,-86 1812.8243,-122"/>
<text text-anchor="middle" x="1730" y="-99.8" font-family="Times,serif" font-size="14.00" fill="#000000">PageNotFoundComponent</text>
</g>
<!-- PageNotFoundComponent&#45;&gt;AppModule -->
<g id="edge4" class="edge">
<title>PageNotFoundComponent&#45;&gt;AppModule</title>
<path fill="none" stroke="#000000" d="M1730,-122.1061C1730,-141.3391 1730,-169 1730,-169 1730,-169 1243.7683,-169 1243.7683,-169"/>
<polygon fill="#000000" stroke="#000000" points="1243.7683,-165.5001 1233.7683,-169 1243.7682,-172.5001 1243.7683,-165.5001"/>
</g>
<!-- AppComponent  -->
<g id="node12" class="node">
<title>AppComponent </title>
<polygon fill="#80b1d3" stroke="#000000" points="1246.439,-252 1137.561,-252 1137.561,-216 1246.439,-216 1246.439,-252"/>
<text text-anchor="middle" x="1192" y="-229.8" font-family="Times,serif" font-size="14.00" fill="#000000">AppComponent </text>
</g>
<!-- AppModule&#45;&gt;AppComponent  -->
<g id="edge11" class="edge">
<title>AppModule&#45;&gt;AppComponent </title>
<path fill="none" stroke="#000000" stroke-dasharray="1,5" d="M1192,-187.1061C1192,-187.1061 1192,-205.991 1192,-205.991"/>
<polygon fill="#000000" stroke="#000000" points="1188.5001,-205.9909 1192,-215.991 1195.5001,-205.991 1188.5001,-205.9909"/>
</g>
<!-- AdminModule -->
<g id="node6" class="node">
<title>AdminModule</title>
<polygon fill="#8dd3c7" stroke="#000000" points="1623.4386,-122 1620.4386,-126 1599.4386,-126 1596.4386,-122 1524.5614,-122 1524.5614,-86 1623.4386,-86 1623.4386,-122"/>
<text text-anchor="middle" x="1574" y="-99.8" font-family="Times,serif" font-size="14.00" fill="#000000">AdminModule</text>
</g>
<!-- AdminModule&#45;&gt;AppModule -->
<g id="edge5" class="edge">
<title>AdminModule&#45;&gt;AppModule</title>
<path fill="none" stroke="#000000" d="M1574,-122.302C1574,-140.2699 1574,-165 1574,-165 1574,-165 1243.9734,-165 1243.9734,-165"/>
<polygon fill="#000000" stroke="#000000" points="1243.9734,-161.5001 1233.9734,-165 1243.9734,-168.5001 1243.9734,-161.5001"/>
</g>
<!-- AuthenticationModule -->
<g id="node7" class="node">
<title>AuthenticationModule</title>
<polygon fill="#8dd3c7" stroke="#000000" points="1506.2534,-122 1503.2534,-126 1482.2534,-126 1479.2534,-122 1363.7466,-122 1363.7466,-86 1506.2534,-86 1506.2534,-122"/>
<text text-anchor="middle" x="1435" y="-99.8" font-family="Times,serif" font-size="14.00" fill="#000000">AuthenticationModule</text>
</g>
<!-- AuthenticationModule&#45;&gt;AppModule -->
<g id="edge6" class="edge">
<title>AuthenticationModule&#45;&gt;AppModule</title>
<path fill="none" stroke="#000000" d="M1435,-122.027C1435,-138.3976 1435,-160 1435,-160 1435,-160 1243.7732,-160 1243.7732,-160"/>
<polygon fill="#000000" stroke="#000000" points="1243.7732,-156.5001 1233.7732,-160 1243.7732,-163.5001 1243.7732,-156.5001"/>
</g>
<!-- HelpModule -->
<g id="node8" class="node">
<title>HelpModule</title>
<polygon fill="#8dd3c7" stroke="#000000" points="1345.2619,-122 1342.2619,-126 1321.2619,-126 1318.2619,-122 1258.7381,-122 1258.7381,-86 1345.2619,-86 1345.2619,-122"/>
<text text-anchor="middle" x="1302" y="-99.8" font-family="Times,serif" font-size="14.00" fill="#000000">HelpModule</text>
</g>
<!-- HelpModule&#45;&gt;AppModule -->
<g id="edge7" class="edge">
<title>HelpModule&#45;&gt;AppModule</title>
<path fill="none" stroke="#000000" d="M1302,-122.1871C1302,-137.1824 1302,-156 1302,-156 1302,-156 1243.9001,-156 1243.9001,-156"/>
<polygon fill="#000000" stroke="#000000" points="1243.9001,-152.5001 1233.9001,-156 1243.9,-159.5001 1243.9001,-152.5001"/>
</g>
<!-- ProfileModule -->
<g id="node9" class="node">
<title>ProfileModule</title>
<polygon fill="#8dd3c7" stroke="#000000" points="1240.65,-122 1237.65,-126 1216.65,-126 1213.65,-122 1143.35,-122 1143.35,-86 1240.65,-86 1240.65,-122"/>
<text text-anchor="middle" x="1192" y="-99.8" font-family="Times,serif" font-size="14.00" fill="#000000">ProfileModule</text>
</g>
<!-- ProfileModule&#45;&gt;AppModule -->
<g id="edge8" class="edge">
<title>ProfileModule&#45;&gt;AppModule</title>
<path fill="none" stroke="#000000" d="M1192,-122.1061C1192,-122.1061 1192,-140.991 1192,-140.991"/>
<polygon fill="#000000" stroke="#000000" points="1188.5001,-140.9909 1192,-150.991 1195.5001,-140.991 1188.5001,-140.9909"/>
</g>
<!-- ScenarioModule -->
<g id="node10" class="node">
<title>ScenarioModule</title>
<polygon fill="#8dd3c7" stroke="#000000" points="1125.0284,-122 1122.0284,-126 1101.0284,-126 1098.0284,-122 1016.9716,-122 1016.9716,-86 1125.0284,-86 1125.0284,-122"/>
<text text-anchor="middle" x="1071" y="-99.8" font-family="Times,serif" font-size="14.00" fill="#000000">ScenarioModule</text>
</g>
<!-- ScenarioModule&#45;&gt;AppModule -->
<g id="edge9" class="edge">
<title>ScenarioModule&#45;&gt;AppModule</title>
<path fill="none" stroke="#000000" d="M1071,-122.1871C1071,-137.1824 1071,-156 1071,-156 1071,-156 1140.0197,-156 1140.0197,-156"/>
<polygon fill="#000000" stroke="#000000" points="1140.0197,-159.5001 1150.0197,-156 1140.0196,-152.5001 1140.0197,-159.5001"/>
</g>
<!-- SharedModule -->
<g id="node11" class="node">
<title>SharedModule</title>
<polygon fill="#8dd3c7" stroke="#000000" points="999.4231,-122 996.4231,-126 975.4231,-126 972.4231,-122 900.5769,-122 900.5769,-86 999.4231,-86 999.4231,-122"/>
<text text-anchor="middle" x="950" y="-99.8" font-family="Times,serif" font-size="14.00" fill="#000000">SharedModule</text>
</g>
<!-- SharedModule&#45;&gt;AppModule -->
<g id="edge10" class="edge">
<title>SharedModule&#45;&gt;AppModule</title>
<path fill="none" stroke="#000000" d="M950,-122.027C950,-138.3976 950,-160 950,-160 950,-160 1140.1231,-160 1140.1231,-160"/>
<polygon fill="#000000" stroke="#000000" points="1140.1231,-163.5001 1150.1231,-160 1140.1231,-156.5001 1140.1231,-163.5001"/>
</g>
<!-- AuthenticationService -->
<g id="node13" class="node">
<title>AuthenticationService</title>
<ellipse fill="#fdb462" stroke="#000000" cx="780" cy="-104" rx="97.2683" ry="18"/>
<text text-anchor="middle" x="780" y="-99.8" font-family="Times,serif" font-size="14.00" fill="#000000">AuthenticationService</text>
</g>
<!-- AuthenticationService&#45;&gt;AppModule -->
<g id="edge12" class="edge">
<title>AuthenticationService&#45;&gt;AppModule</title>
<path fill="none" stroke="#000000" d="M780,-122.302C780,-140.2699 780,-165 780,-165 780,-165 1140.2279,-165 1140.2279,-165"/>
<polygon fill="#000000" stroke="#000000" points="1140.228,-168.5001 1150.2279,-165 1140.2279,-161.5001 1140.228,-168.5001"/>
</g>
<!-- CourseService -->
<g id="node14" class="node">
<title>CourseService</title>
<ellipse fill="#fdb462" stroke="#000000" cx="597" cy="-104" rx="67.1927" ry="18"/>
<text text-anchor="middle" x="597" y="-99.8" font-family="Times,serif" font-size="14.00" fill="#000000">CourseService</text>
</g>
<!-- CourseService&#45;&gt;AppModule -->
<g id="edge13" class="edge">
<title>CourseService&#45;&gt;AppModule</title>
<path fill="none" stroke="#000000" d="M597,-122.1061C597,-141.3391 597,-169 597,-169 597,-169 1140.1608,-169 1140.1608,-169"/>
<polygon fill="#000000" stroke="#000000" points="1140.1608,-172.5001 1150.1608,-169 1140.1607,-165.5001 1140.1608,-172.5001"/>
</g>
<!-- LoggedInGuard -->
<g id="node15" class="node">
<title>LoggedInGuard</title>
<ellipse fill="#fdb462" stroke="#000000" cx="439" cy="-104" rx="72.9198" ry="18"/>
<text text-anchor="middle" x="439" y="-99.8" font-family="Times,serif" font-size="14.00" fill="#000000">LoggedInGuard</text>
</g>
<!-- LoggedInGuard&#45;&gt;AppModule -->
<g id="edge14" class="edge">
<title>LoggedInGuard&#45;&gt;AppModule</title>
<path fill="none" stroke="#000000" d="M439,-122.0267C439,-142.7672 439,-174 439,-174 439,-174 1140.1728,-174 1140.1728,-174"/>
<polygon fill="#000000" stroke="#000000" points="1140.1728,-177.5001 1150.1728,-174 1140.1728,-170.5001 1140.1728,-177.5001"/>
</g>
<!-- ScenarioResolver -->
<g id="node16" class="node">
<title>ScenarioResolver</title>
<ellipse fill="#fdb462" stroke="#000000" cx="269" cy="-104" rx="79.2903" ry="18"/>
<text text-anchor="middle" x="269" y="-99.8" font-family="Times,serif" font-size="14.00" fill="#000000">ScenarioResolver</text>
</g>
<!-- ScenarioResolver&#45;&gt;AppModule -->
<g id="edge15" class="edge">
<title>ScenarioResolver&#45;&gt;AppModule</title>
<path fill="none" stroke="#000000" d="M269,-122.2921C269,-144.2057 269,-178 269,-178 269,-178 1140.2453,-178 1140.2453,-178"/>
<polygon fill="#000000" stroke="#000000" points="1140.2454,-181.5001 1150.2453,-178 1140.2453,-174.5001 1140.2454,-181.5001"/>
</g>
<!-- ScenarioService -->
<g id="node17" class="node">
<title>ScenarioService</title>
<ellipse fill="#fdb462" stroke="#000000" cx="98" cy="-104" rx="73.5522" ry="18"/>
<text text-anchor="middle" x="98" y="-99.8" font-family="Times,serif" font-size="14.00" fill="#000000">ScenarioService</text>
</g>
<!-- ScenarioService&#45;&gt;AppModule -->
<g id="edge16" class="edge">
<title>ScenarioService&#45;&gt;AppModule</title>
<path fill="none" stroke="#000000" d="M98,-122.3228C98,-145.6602 98,-183 98,-183 98,-183 1140.1176,-183 1140.1176,-183"/>
<polygon fill="#000000" stroke="#000000" points="1140.1176,-186.5001 1150.1176,-183 1140.1176,-179.5001 1140.1176,-186.5001"/>
</g>
</g>
</svg>
