<?xml version="1.0" encoding="UTF-8" standalone="no"?>
<!DOCTYPE svg PUBLIC "-//W3C//DTD SVG 1.1//EN"
 "http://www.w3.org/Graphics/SVG/1.1/DTD/svg11.dtd">
<!-- Generated by graphviz version 2.40.1 (20161225.0304)
 -->
<!-- Title: dependencies Pages: 1 -->
<svg width="2201pt" height="284pt"
 viewBox="0.00 0.00 2201.00 284.00" xmlns="http://www.w3.org/2000/svg" xmlns:xlink="http://www.w3.org/1999/xlink">
<g id="graph0" class="graph" transform="scale(1 1) rotate(0) translate(4 280)">
<title>dependencies</title>
<polygon fill="#ffffff" stroke="transparent" points="-4,4 -4,-280 2197,-280 2197,4 -4,4"/>
<text text-anchor="start" x="1075.5091" y="-42.4" font-family="sans-serif" font-weight="bold" font-size="14.00" fill="#000000">Legend</text>
<polygon fill="#ffffb3" stroke="transparent" points="862.5,-10 862.5,-30 882.5,-30 882.5,-10 862.5,-10"/>
<text text-anchor="start" x="886.129" y="-15.4" font-family="sans-serif" font-size="14.00" fill="#000000"> &#160;Declarations</text>
<polygon fill="#8dd3c7" stroke="transparent" points="975.5,-10 975.5,-30 995.5,-30 995.5,-10 975.5,-10"/>
<text text-anchor="start" x="999.2251" y="-15.4" font-family="sans-serif" font-size="14.00" fill="#000000"> &#160;Module</text>
<polygon fill="#80b1d3" stroke="transparent" points="1061.5,-10 1061.5,-30 1081.5,-30 1081.5,-10 1061.5,-10"/>
<text text-anchor="start" x="1085.2812" y="-15.4" font-family="sans-serif" font-size="14.00" fill="#000000"> &#160;Bootstrap</text>
<polygon fill="#fdb462" stroke="transparent" points="1158.5,-10 1158.5,-30 1178.5,-30 1178.5,-10 1158.5,-10"/>
<text text-anchor="start" x="1182.1732" y="-15.4" font-family="sans-serif" font-size="14.00" fill="#000000"> &#160;Providers</text>
<polygon fill="#fb8072" stroke="transparent" points="1254.5,-10 1254.5,-30 1274.5,-30 1274.5,-10 1254.5,-10"/>
<text text-anchor="start" x="1278.2258" y="-15.4" font-family="sans-serif" font-size="14.00" fill="#000000"> &#160;Exports</text>
<g id="clust1" class="cluster">
<title>cluster_AppModule</title>
<polygon fill="none" stroke="#000000" stroke-dasharray="1,5" points="8,-70 8,-268 2185,-268 2185,-70 8,-70"/>
</g>
<g id="clust2" class="cluster">
<title>cluster_AppModule_declarations</title>
<polygon fill="none" stroke="#000000" points="1749,-78 1749,-130 2177,-130 2177,-78 1749,-78"/>
</g>
<g id="clust6" class="cluster">
<title>cluster_AppModule_imports</title>
<polygon fill="none" stroke="#000000" points="891,-78 891,-130 1741,-130 1741,-78 891,-78"/>
</g>
<g id="clust8" class="cluster">
<title>cluster_AppModule_bootstrap</title>
<polygon fill="none" stroke="#000000" points="1173,-208 1173,-260 1297,-260 1297,-208 1173,-208"/>
</g>
<g id="clust9" class="cluster">
<title>cluster_AppModule_providers</title>
<polygon fill="none" stroke="#000000" points="16,-78 16,-130 883,-130 883,-78 16,-78"/>
</g>
<!-- AppComponent -->
<g id="node1" class="node">
<title>AppComponent</title>
<polygon fill="#ffffb3" stroke="#000000" points="2168.9399,-122 2063.0601,-122 2063.0601,-86 2168.9399,-86 2168.9399,-122"/>
<text text-anchor="middle" x="2116" y="-99.8" font-family="Times,serif" font-size="14.00" fill="#000000">AppComponent</text>
</g>
<!-- AppModule -->
<g id="node4" class="node">
<title>AppModule</title>
<polygon fill="#8dd3c7" stroke="#000000" points="1276.6571,-187 1273.6571,-191 1252.6571,-191 1249.6571,-187 1193.3429,-187 1193.3429,-151 1276.6571,-151 1276.6571,-187"/>
<text text-anchor="middle" x="1235" y="-164.8" font-family="Times,serif" font-size="14.00" fill="#000000">AppModule</text>
</g>
<!-- AppComponent&#45;&gt;AppModule -->
<g id="edge1" class="edge">
<title>AppComponent&#45;&gt;AppModule</title>
<path fill="none" stroke="#000000" d="M2116,-122.3228C2116,-145.6602 2116,-183 2116,-183 2116,-183 1286.8998,-183 1286.8998,-183"/>
<polygon fill="#000000" stroke="#000000" points="1286.8998,-179.5001 1276.8998,-183 1286.8997,-186.5001 1286.8998,-179.5001"/>
</g>
<!-- NavComponent -->
<g id="node2" class="node">
<title>NavComponent</title>
<polygon fill="#ffffb3" stroke="#000000" points="2045.1542,-122 1940.8458,-122 1940.8458,-86 2045.1542,-86 2045.1542,-122"/>
<text text-anchor="middle" x="1993" y="-99.8" font-family="Times,serif" font-size="14.00" fill="#000000">NavComponent</text>
</g>
<!-- NavComponent&#45;&gt;AppModule -->
<g id="edge2" class="edge">
<title>NavComponent&#45;&gt;AppModule</title>
<path fill="none" stroke="#000000" d="M1993,-122.2921C1993,-144.2057 1993,-178 1993,-178 1993,-178 1286.8331,-178 1286.8331,-178"/>
<polygon fill="#000000" stroke="#000000" points="1286.8331,-174.5001 1276.8331,-178 1286.833,-181.5001 1286.8331,-174.5001"/>
</g>
<!-- PageNotFoundComponent -->
<g id="node3" class="node">
<title>PageNotFoundComponent</title>
<polygon fill="#ffffb3" stroke="#000000" points="1922.8243,-122 1757.1757,-122 1757.1757,-86 1922.8243,-86 1922.8243,-122"/>
<text text-anchor="middle" x="1840" y="-99.8" font-family="Times,serif" font-size="14.00" fill="#000000">PageNotFoundComponent</text>
</g>
<!-- PageNotFoundComponent&#45;&gt;AppModule -->
<g id="edge3" class="edge">
<title>PageNotFoundComponent&#45;&gt;AppModule</title>
<path fill="none" stroke="#000000" d="M1840,-122.0267C1840,-142.7672 1840,-174 1840,-174 1840,-174 1287.0621,-174 1287.0621,-174"/>
<polygon fill="#000000" stroke="#000000" points="1287.0621,-170.5001 1277.0621,-174 1287.0621,-177.5001 1287.0621,-170.5001"/>
</g>
<!-- AppComponent  -->
<g id="node12" class="node">
<title>AppComponent </title>
<polygon fill="#80b1d3" stroke="#000000" points="1289.439,-252 1180.561,-252 1180.561,-216 1289.439,-216 1289.439,-252"/>
<text text-anchor="middle" x="1235" y="-229.8" font-family="Times,serif" font-size="14.00" fill="#000000">AppComponent </text>
</g>
<!-- AppModule&#45;&gt;AppComponent  -->
<g id="edge11" class="edge">
<title>AppModule&#45;&gt;AppComponent </title>
<path fill="none" stroke="#000000" stroke-dasharray="1,5" d="M1235,-187.1061C1235,-187.1061 1235,-205.991 1235,-205.991"/>
<polygon fill="#000000" stroke="#000000" points="1231.5001,-205.9909 1235,-215.991 1238.5001,-205.991 1231.5001,-205.9909"/>
</g>
<!-- SharedModule -->
<g id="node5" class="node">
<title>SharedModule</title>
<polygon fill="#8dd3c7" stroke="#000000" points="1733.4231,-122 1730.4231,-126 1709.4231,-126 1706.4231,-122 1634.5769,-122 1634.5769,-86 1733.4231,-86 1733.4231,-122"/>
<text text-anchor="middle" x="1684" y="-99.8" font-family="Times,serif" font-size="14.00" fill="#000000">SharedModule</text>
</g>
<!-- SharedModule&#45;&gt;AppModule -->
<g id="edge4" class="edge">
<title>SharedModule&#45;&gt;AppModule</title>
<path fill="none" stroke="#000000" d="M1684,-122.1061C1684,-141.3391 1684,-169 1684,-169 1684,-169 1286.8376,-169 1286.8376,-169"/>
<polygon fill="#000000" stroke="#000000" points="1286.8377,-165.5001 1276.8376,-169 1286.8376,-172.5001 1286.8377,-165.5001"/>
</g>
<!-- HomeModule -->
<g id="node6" class="node">
<title>HomeModule</title>
<polygon fill="#8dd3c7" stroke="#000000" points="1616.7619,-122 1613.7619,-126 1592.7619,-126 1589.7619,-122 1523.2381,-122 1523.2381,-86 1616.7619,-86 1616.7619,-122"/>
<text text-anchor="middle" x="1570" y="-99.8" font-family="Times,serif" font-size="14.00" fill="#000000">HomeModule</text>
</g>
<!-- HomeModule&#45;&gt;AppModule -->
<g id="edge5" class="edge">
<title>HomeModule&#45;&gt;AppModule</title>
<path fill="none" stroke="#000000" d="M1570,-122.302C1570,-140.2699 1570,-165 1570,-165 1570,-165 1286.7506,-165 1286.7506,-165"/>
<polygon fill="#000000" stroke="#000000" points="1286.7507,-161.5001 1276.7506,-165 1286.7506,-168.5001 1286.7507,-161.5001"/>
</g>
<!-- HelpModule -->
<g id="node7" class="node">
<title>HelpModule</title>
<polygon fill="#8dd3c7" stroke="#000000" points="1505.2619,-122 1502.2619,-126 1481.2619,-126 1478.2619,-122 1418.7381,-122 1418.7381,-86 1505.2619,-86 1505.2619,-122"/>
<text text-anchor="middle" x="1462" y="-99.8" font-family="Times,serif" font-size="14.00" fill="#000000">HelpModule</text>
</g>
<!-- HelpModule&#45;&gt;AppModule -->
<g id="edge6" class="edge">
<title>HelpModule&#45;&gt;AppModule</title>
<path fill="none" stroke="#000000" d="M1462,-122.027C1462,-138.3976 1462,-160 1462,-160 1462,-160 1286.8998,-160 1286.8998,-160"/>
<polygon fill="#000000" stroke="#000000" points="1286.8999,-156.5001 1276.8998,-160 1286.8998,-163.5001 1286.8999,-156.5001"/>
</g>
<!-- AdminModule -->
<g id="node8" class="node">
<title>AdminModule</title>
<polygon fill="#8dd3c7" stroke="#000000" points="1400.4386,-122 1397.4386,-126 1376.4386,-126 1373.4386,-122 1301.5614,-122 1301.5614,-86 1400.4386,-86 1400.4386,-122"/>
<text text-anchor="middle" x="1351" y="-99.8" font-family="Times,serif" font-size="14.00" fill="#000000">AdminModule</text>
</g>
<!-- AdminModule&#45;&gt;AppModule -->
<g id="edge7" class="edge">
<title>AdminModule&#45;&gt;AppModule</title>
<path fill="none" stroke="#000000" d="M1351,-122.1871C1351,-137.1824 1351,-156 1351,-156 1351,-156 1286.8787,-156 1286.8787,-156"/>
<polygon fill="#000000" stroke="#000000" points="1286.8787,-152.5001 1276.8787,-156 1286.8786,-159.5001 1286.8787,-152.5001"/>
</g>
<!-- ProfileModule -->
<g id="node9" class="node">
<title>ProfileModule</title>
<polygon fill="#8dd3c7" stroke="#000000" points="1283.65,-122 1280.65,-126 1259.65,-126 1256.65,-122 1186.35,-122 1186.35,-86 1283.65,-86 1283.65,-122"/>
<text text-anchor="middle" x="1235" y="-99.8" font-family="Times,serif" font-size="14.00" fill="#000000">ProfileModule</text>
</g>
<!-- ProfileModule&#45;&gt;AppModule -->
<g id="edge8" class="edge">
<title>ProfileModule&#45;&gt;AppModule</title>
<path fill="none" stroke="#000000" d="M1235,-122.1061C1235,-122.1061 1235,-140.991 1235,-140.991"/>
<polygon fill="#000000" stroke="#000000" points="1231.5001,-140.9909 1235,-150.991 1238.5001,-140.991 1231.5001,-140.9909"/>
</g>
<!-- AuthenticationModule -->
<g id="node10" class="node">
<title>AuthenticationModule</title>
<polygon fill="#8dd3c7" stroke="#000000" points="1168.2534,-122 1165.2534,-126 1144.2534,-126 1141.2534,-122 1025.7466,-122 1025.7466,-86 1168.2534,-86 1168.2534,-122"/>
<text text-anchor="middle" x="1097" y="-99.8" font-family="Times,serif" font-size="14.00" fill="#000000">AuthenticationModule</text>
</g>
<!-- AuthenticationModule&#45;&gt;AppModule -->
<g id="edge9" class="edge">
<title>AuthenticationModule&#45;&gt;AppModule</title>
<path fill="none" stroke="#000000" d="M1097,-122.1871C1097,-137.1824 1097,-156 1097,-156 1097,-156 1183.221,-156 1183.221,-156"/>
<polygon fill="#000000" stroke="#000000" points="1183.221,-159.5001 1193.221,-156 1183.2209,-152.5001 1183.221,-159.5001"/>
</g>
<!-- ScenarioModule -->
<g id="node11" class="node">
<title>ScenarioModule</title>
<polygon fill="#8dd3c7" stroke="#000000" points="1007.0284,-122 1004.0284,-126 983.0284,-126 980.0284,-122 898.9716,-122 898.9716,-86 1007.0284,-86 1007.0284,-122"/>
<text text-anchor="middle" x="953" y="-99.8" font-family="Times,serif" font-size="14.00" fill="#000000">ScenarioModule</text>
</g>
<!-- ScenarioModule&#45;&gt;AppModule -->
<g id="edge10" class="edge">
<title>ScenarioModule&#45;&gt;AppModule</title>
<path fill="none" stroke="#000000" d="M953,-122.027C953,-138.3976 953,-160 953,-160 953,-160 1183.0863,-160 1183.0863,-160"/>
<polygon fill="#000000" stroke="#000000" points="1183.0863,-163.5001 1193.0863,-160 1183.0862,-156.5001 1183.0863,-163.5001"/>
</g>
<!-- AuthenticationService -->
<g id="node13" class="node">
<title>AuthenticationService</title>
<ellipse fill="#fdb462" stroke="#000000" cx="778" cy="-104" rx="97.2683" ry="18"/>
<text text-anchor="middle" x="778" y="-99.8" font-family="Times,serif" font-size="14.00" fill="#000000">AuthenticationService</text>
</g>
<!-- AuthenticationService&#45;&gt;AppModule -->
<g id="edge12" class="edge">
<title>AuthenticationService&#45;&gt;AppModule</title>
<path fill="none" stroke="#000000" d="M778,-122.302C778,-140.2699 778,-165 778,-165 778,-165 1183.2328,-165 1183.2328,-165"/>
<polygon fill="#000000" stroke="#000000" points="1183.2328,-168.5001 1193.2328,-165 1183.2328,-161.5001 1183.2328,-168.5001"/>
</g>
<!-- LoggedInGuard -->
<g id="node14" class="node">
<title>LoggedInGuard</title>
<ellipse fill="#fdb462" stroke="#000000" cx="590" cy="-104" rx="72.9198" ry="18"/>
<text text-anchor="middle" x="590" y="-99.8" font-family="Times,serif" font-size="14.00" fill="#000000">LoggedInGuard</text>
</g>
<!-- LoggedInGuard&#45;&gt;AppModule -->
<g id="edge13" class="edge">
<title>LoggedInGuard&#45;&gt;AppModule</title>
<path fill="none" stroke="#000000" d="M590,-122.1061C590,-141.3391 590,-169 590,-169 590,-169 1183.1767,-169 1183.1767,-169"/>
<polygon fill="#000000" stroke="#000000" points="1183.1768,-172.5001 1193.1767,-169 1183.1767,-165.5001 1183.1768,-172.5001"/>
</g>
<!-- ScenarioService -->
<g id="node15" class="node">
<title>ScenarioService</title>
<ellipse fill="#fdb462" stroke="#000000" cx="426" cy="-104" rx="73.5522" ry="18"/>
<text text-anchor="middle" x="426" y="-99.8" font-family="Times,serif" font-size="14.00" fill="#000000">ScenarioService</text>
</g>
<!-- ScenarioService&#45;&gt;AppModule -->
<g id="edge14" class="edge">
<title>ScenarioService&#45;&gt;AppModule</title>
<path fill="none" stroke="#000000" d="M426,-122.0267C426,-142.7672 426,-174 426,-174 426,-174 1183.2082,-174 1183.2082,-174"/>
<polygon fill="#000000" stroke="#000000" points="1183.2082,-177.5001 1193.2082,-174 1183.2082,-170.5001 1183.2082,-177.5001"/>
</g>
<!-- CourseService -->
<g id="node16" class="node">
<title>CourseService</title>
<ellipse fill="#fdb462" stroke="#000000" cx="267" cy="-104" rx="67.1927" ry="18"/>
<text text-anchor="middle" x="267" y="-99.8" font-family="Times,serif" font-size="14.00" fill="#000000">CourseService</text>
</g>
<!-- CourseService&#45;&gt;AppModule -->
<g id="edge15" class="edge">
<title>CourseService&#45;&gt;AppModule</title>
<path fill="none" stroke="#000000" d="M267,-122.2921C267,-144.2057 267,-178 267,-178 267,-178 1183.0956,-178 1183.0956,-178"/>
<polygon fill="#000000" stroke="#000000" points="1183.0956,-181.5001 1193.0956,-178 1183.0955,-174.5001 1183.0956,-181.5001"/>
</g>
<!-- ScenarioResolver -->
<g id="node17" class="node">
<title>ScenarioResolver</title>
<ellipse fill="#fdb462" stroke="#000000" cx="103" cy="-104" rx="79.2903" ry="18"/>
<text text-anchor="middle" x="103" y="-99.8" font-family="Times,serif" font-size="14.00" fill="#000000">ScenarioResolver</text>
</g>
<!-- ScenarioResolver&#45;&gt;AppModule -->
<g id="edge16" class="edge">
<title>ScenarioResolver&#45;&gt;AppModule</title>
<path fill="none" stroke="#000000" d="M103,-122.3228C103,-145.6602 103,-183 103,-183 103,-183 1183.0303,-183 1183.0303,-183"/>
<polygon fill="#000000" stroke="#000000" points="1183.0303,-186.5001 1193.0303,-183 1183.0302,-179.5001 1183.0303,-186.5001"/>
</g>
</g>
</svg>
