<?xml version="1.0" encoding="UTF-8" standalone="no"?>
<!DOCTYPE svg PUBLIC "-//W3C//DTD SVG 1.1//EN"
 "http://www.w3.org/Graphics/SVG/1.1/DTD/svg11.dtd">
<!-- Generated by graphviz version 2.40.1 (20161225.0304)
 -->
<!-- Title: dependencies Pages: 1 -->
<svg width="504pt" height="211pt"
 viewBox="0.00 0.00 504.00 211.00" xmlns="http://www.w3.org/2000/svg" xmlns:xlink="http://www.w3.org/1999/xlink">
<g id="graph0" class="graph" transform="scale(1 1) rotate(0) translate(4 207)">
<title>dependencies</title>
<polygon fill="#ffffff" stroke="transparent" points="-4,4 -4,-207 500,-207 500,4 -4,4"/>
<text text-anchor="start" x="227.0091" y="-42.4" font-family="sans-serif" font-weight="bold" font-size="14.00" fill="#000000">Legend</text>
<polygon fill="#ffffb3" stroke="transparent" points="14,-10 14,-30 34,-30 34,-10 14,-10"/>
<text text-anchor="start" x="37.629" y="-15.4" font-family="sans-serif" font-size="14.00" fill="#000000"> &#160;Declarations</text>
<polygon fill="#8dd3c7" stroke="transparent" points="127,-10 127,-30 147,-30 147,-10 127,-10"/>
<text text-anchor="start" x="150.7251" y="-15.4" font-family="sans-serif" font-size="14.00" fill="#000000"> &#160;Module</text>
<polygon fill="#80b1d3" stroke="transparent" points="213,-10 213,-30 233,-30 233,-10 213,-10"/>
<text text-anchor="start" x="236.7812" y="-15.4" font-family="sans-serif" font-size="14.00" fill="#000000"> &#160;Bootstrap</text>
<polygon fill="#fdb462" stroke="transparent" points="310,-10 310,-30 330,-30 330,-10 310,-10"/>
<text text-anchor="start" x="333.6732" y="-15.4" font-family="sans-serif" font-size="14.00" fill="#000000"> &#160;Providers</text>
<polygon fill="#fb8072" stroke="transparent" points="406,-10 406,-30 426,-30 426,-10 406,-10"/>
<text text-anchor="start" x="429.7258" y="-15.4" font-family="sans-serif" font-size="14.00" fill="#000000"> &#160;Exports</text>
<g id="clust1" class="cluster">
<title>cluster_HomeModule</title>
<polygon fill="none" stroke="#000000" stroke-dasharray="1,5" points="40,-70 40,-195 456,-195 456,-70 40,-70"/>
</g>
<g id="clust2" class="cluster">
<title>cluster_HomeModule_declarations</title>
<polygon fill="none" stroke="#000000" points="316,-78 316,-130 448,-130 448,-78 316,-78"/>
</g>
<g id="clust4" class="cluster">
<title>cluster_HomeModule_imports</title>
<polygon fill="none" stroke="#000000" points="48,-78 48,-130 308,-130 308,-78 48,-78"/>
</g>
<!-- HomeComponent -->
<g id="node1" class="node">
<title>HomeComponent</title>
<polygon fill="#ffffb3" stroke="#000000" points="439.5451,-122 324.4549,-122 324.4549,-86 439.5451,-86 439.5451,-122"/>
<text text-anchor="middle" x="382" y="-99.8" font-family="Times,serif" font-size="14.00" fill="#000000">HomeComponent</text>
</g>
<!-- HomeModule -->
<g id="node2" class="node">
<title>HomeModule</title>
<polygon fill="#8dd3c7" stroke="#000000" points="297.7619,-187 294.7619,-191 273.7619,-191 270.7619,-187 204.2381,-187 204.2381,-151 297.7619,-151 297.7619,-187"/>
<text text-anchor="middle" x="251" y="-164.8" font-family="Times,serif" font-size="14.00" fill="#000000">HomeModule</text>
</g>
<!-- HomeComponent&#45;&gt;HomeModule -->
<g id="edge1" class="edge">
<title>HomeComponent&#45;&gt;HomeModule</title>
<path fill="none" stroke="#000000" d="M382,-122.1061C382,-141.3391 382,-169 382,-169 382,-169 307.924,-169 307.924,-169"/>
<polygon fill="#000000" stroke="#000000" points="307.924,-165.5001 297.924,-169 307.924,-172.5001 307.924,-165.5001"/>
</g>
<!-- SharedModule -->
<g id="node3" class="node">
<title>SharedModule</title>
<polygon fill="#8dd3c7" stroke="#000000" points="300.4231,-122 297.4231,-126 276.4231,-126 273.4231,-122 201.5769,-122 201.5769,-86 300.4231,-86 300.4231,-122"/>
<text text-anchor="middle" x="251" y="-99.8" font-family="Times,serif" font-size="14.00" fill="#000000">SharedModule</text>
</g>
<!-- SharedModule&#45;&gt;HomeModule -->
<g id="edge2" class="edge">
<title>SharedModule&#45;&gt;HomeModule</title>
<path fill="none" stroke="#000000" d="M251,-122.1061C251,-122.1061 251,-140.991 251,-140.991"/>
<polygon fill="#000000" stroke="#000000" points="247.5001,-140.9909 251,-150.991 254.5001,-140.991 247.5001,-140.9909"/>
</g>
<!-- HomeRouteModule -->
<g id="node4" class="node">
<title>HomeRouteModule</title>
<polygon fill="#8dd3c7" stroke="#000000" points="183.7036,-122 180.7036,-126 159.7036,-126 156.7036,-122 56.2964,-122 56.2964,-86 183.7036,-86 183.7036,-122"/>
<text text-anchor="middle" x="120" y="-99.8" font-family="Times,serif" font-size="14.00" fill="#000000">HomeRouteModule</text>
</g>
<!-- HomeRouteModule&#45;&gt;HomeModule -->
<g id="edge3" class="edge">
<title>HomeRouteModule&#45;&gt;HomeModule</title>
<path fill="none" stroke="#000000" d="M120,-122.1061C120,-141.3391 120,-169 120,-169 120,-169 194.076,-169 194.076,-169"/>
<polygon fill="#000000" stroke="#000000" points="194.076,-172.5001 204.076,-169 194.076,-165.5001 194.076,-172.5001"/>
</g>
</g>
</svg>
