<?xml version="1.0" encoding="UTF-8" standalone="no"?>
<!DOCTYPE svg PUBLIC "-//W3C//DTD SVG 1.1//EN"
 "http://www.w3.org/Graphics/SVG/1.1/DTD/svg11.dtd">
<!-- Generated by graphviz version 2.40.1 (20161225.0304)
 -->
<!-- Title: dependencies Pages: 1 -->
<svg width="504pt" height="211pt"
 viewBox="0.00 0.00 504.00 211.00" xmlns="http://www.w3.org/2000/svg" xmlns:xlink="http://www.w3.org/1999/xlink">
<g id="graph0" class="graph" transform="scale(1 1) rotate(0) translate(4 207)">
<title>dependencies</title>
<polygon fill="#ffffff" stroke="transparent" points="-4,4 -4,-207 500,-207 500,4 -4,4"/>
<text text-anchor="start" x="227.0091" y="-42.4" font-family="sans-serif" font-weight="bold" font-size="14.00" fill="#000000">Legend</text>
<polygon fill="#ffffb3" stroke="transparent" points="14,-10 14,-30 34,-30 34,-10 14,-10"/>
<text text-anchor="start" x="37.629" y="-15.4" font-family="sans-serif" font-size="14.00" fill="#000000"> &#160;Declarations</text>
<polygon fill="#8dd3c7" stroke="transparent" points="127,-10 127,-30 147,-30 147,-10 127,-10"/>
<text text-anchor="start" x="150.7251" y="-15.4" font-family="sans-serif" font-size="14.00" fill="#000000"> &#160;Module</text>
<polygon fill="#80b1d3" stroke="transparent" points="213,-10 213,-30 233,-30 233,-10 213,-10"/>
<text text-anchor="start" x="236.7812" y="-15.4" font-family="sans-serif" font-size="14.00" fill="#000000"> &#160;Bootstrap</text>
<polygon fill="#fdb462" stroke="transparent" points="310,-10 310,-30 330,-30 330,-10 310,-10"/>
<text text-anchor="start" x="333.6732" y="-15.4" font-family="sans-serif" font-size="14.00" fill="#000000"> &#160;Providers</text>
<polygon fill="#fb8072" stroke="transparent" points="406,-10 406,-30 426,-30 426,-10 406,-10"/>
<text text-anchor="start" x="429.7258" y="-15.4" font-family="sans-serif" font-size="14.00" fill="#000000"> &#160;Exports</text>
<g id="clust1" class="cluster">
<title>cluster_ScenarioModule</title>
<polygon fill="none" stroke="#000000" stroke-dasharray="1,5" points="45,-70 45,-195 451,-195 451,-70 45,-70"/>
</g>
<g id="clust2" class="cluster">
<title>cluster_ScenarioModule_declarations</title>
<polygon fill="none" stroke="#000000" points="175,-78 175,-130 443,-130 443,-78 175,-78"/>
</g>
<g id="clust5" class="cluster">
<title>cluster_ScenarioModule_imports</title>
<polygon fill="none" stroke="#000000" points="53,-78 53,-130 167,-130 167,-78 53,-78"/>
</g>
<!-- ListComponent -->
<g id="node1" class="node">
<title>ListComponent</title>
<polygon fill="#ffffb3" stroke="#000000" points="434.6109,-122 331.3891,-122 331.3891,-86 434.6109,-86 434.6109,-122"/>
<text text-anchor="middle" x="383" y="-99.8" font-family="Times,serif" font-size="14.00" fill="#000000">ListComponent</text>
</g>
<!-- ScenarioModule -->
<g id="node3" class="node">
<title>ScenarioModule</title>
<polygon fill="#8dd3c7" stroke="#000000" points="302.0284,-187 299.0284,-191 278.0284,-191 275.0284,-187 193.9716,-187 193.9716,-151 302.0284,-151 302.0284,-187"/>
<text text-anchor="middle" x="248" y="-164.8" font-family="Times,serif" font-size="14.00" fill="#000000">ScenarioModule</text>
</g>
<!-- ListComponent&#45;&gt;ScenarioModule -->
<g id="edge1" class="edge">
<title>ListComponent&#45;&gt;ScenarioModule</title>
<path fill="none" stroke="#000000" d="M383,-122.1061C383,-141.3391 383,-169 383,-169 383,-169 312.1318,-169 312.1318,-169"/>
<polygon fill="#000000" stroke="#000000" points="312.1318,-165.5001 302.1318,-169 312.1318,-172.5001 312.1318,-165.5001"/>
</g>
<!-- ScenarioComponent -->
<g id="node2" class="node">
<title>ScenarioComponent</title>
<polygon fill="#ffffb3" stroke="#000000" points="313.3104,-122 182.6896,-122 182.6896,-86 313.3104,-86 313.3104,-122"/>
<text text-anchor="middle" x="248" y="-99.8" font-family="Times,serif" font-size="14.00" fill="#000000">ScenarioComponent</text>
</g>
<!-- ScenarioComponent&#45;&gt;ScenarioModule -->
<g id="edge2" class="edge">
<title>ScenarioComponent&#45;&gt;ScenarioModule</title>
<path fill="none" stroke="#000000" d="M248,-122.1061C248,-122.1061 248,-140.991 248,-140.991"/>
<polygon fill="#000000" stroke="#000000" points="244.5001,-140.9909 248,-150.991 251.5001,-140.991 244.5001,-140.9909"/>
</g>
<!-- SharedModule -->
<g id="node4" class="node">
<title>SharedModule</title>
<polygon fill="#8dd3c7" stroke="#000000" points="159.4231,-122 156.4231,-126 135.4231,-126 132.4231,-122 60.5769,-122 60.5769,-86 159.4231,-86 159.4231,-122"/>
<text text-anchor="middle" x="110" y="-99.8" font-family="Times,serif" font-size="14.00" fill="#000000">SharedModule</text>
</g>
<!-- SharedModule&#45;&gt;ScenarioModule -->
<g id="edge3" class="edge">
<title>SharedModule&#45;&gt;ScenarioModule</title>
<path fill="none" stroke="#000000" d="M110,-122.1061C110,-141.3391 110,-169 110,-169 110,-169 183.8548,-169 183.8548,-169"/>
<polygon fill="#000000" stroke="#000000" points="183.8549,-172.5001 193.8548,-169 183.8548,-165.5001 183.8549,-172.5001"/>
</g>
</g>
</svg>
