<?xml version="1.0" encoding="UTF-8" standalone="no"?>
<!DOCTYPE svg PUBLIC "-//W3C//DTD SVG 1.1//EN"
 "http://www.w3.org/Graphics/SVG/1.1/DTD/svg11.dtd">
<!-- Generated by graphviz version 2.40.1 (20161225.0304)
 -->
<!-- Title: dependencies Pages: 1 -->
<svg width="590pt" height="211pt"
 viewBox="0.00 0.00 590.00 211.00" xmlns="http://www.w3.org/2000/svg" xmlns:xlink="http://www.w3.org/1999/xlink">
<g id="graph0" class="graph" transform="scale(1 1) rotate(0) translate(4 207)">
<title>dependencies</title>
<polygon fill="#ffffff" stroke="transparent" points="-4,4 -4,-207 586,-207 586,4 -4,4"/>
<text text-anchor="start" x="270.0091" y="-42.4" font-family="sans-serif" font-weight="bold" font-size="14.00" fill="#000000">Legend</text>
<polygon fill="#ffffb3" stroke="transparent" points="57,-10 57,-30 77,-30 77,-10 57,-10"/>
<text text-anchor="start" x="80.629" y="-15.4" font-family="sans-serif" font-size="14.00" fill="#000000"> &#160;Declarations</text>
<polygon fill="#8dd3c7" stroke="transparent" points="170,-10 170,-30 190,-30 190,-10 170,-10"/>
<text text-anchor="start" x="193.7251" y="-15.4" font-family="sans-serif" font-size="14.00" fill="#000000"> &#160;Module</text>
<polygon fill="#80b1d3" stroke="transparent" points="256,-10 256,-30 276,-30 276,-10 256,-10"/>
<text text-anchor="start" x="279.7812" y="-15.4" font-family="sans-serif" font-size="14.00" fill="#000000"> &#160;Bootstrap</text>
<polygon fill="#fdb462" stroke="transparent" points="353,-10 353,-30 373,-30 373,-10 353,-10"/>
<text text-anchor="start" x="376.6732" y="-15.4" font-family="sans-serif" font-size="14.00" fill="#000000"> &#160;Providers</text>
<polygon fill="#fb8072" stroke="transparent" points="449,-10 449,-30 469,-30 469,-10 449,-10"/>
<text text-anchor="start" x="472.7258" y="-15.4" font-family="sans-serif" font-size="14.00" fill="#000000"> &#160;Exports</text>
<g id="clust1" class="cluster">
<title>cluster_ScenarioModule</title>
<polygon fill="none" stroke="#000000" stroke-dasharray="1,5" points="8,-70 8,-195 574,-195 574,-70 8,-70"/>
</g>
<g id="clust2" class="cluster">
<title>cluster_ScenarioModule_declarations</title>
<polygon fill="none" stroke="#000000" points="298,-78 298,-130 566,-130 566,-78 298,-78"/>
</g>
<g id="clust5" class="cluster">
<title>cluster_ScenarioModule_imports</title>
<polygon fill="none" stroke="#000000" points="16,-78 16,-130 290,-130 290,-78 16,-78"/>
</g>
<!-- ScenarioComponent -->
<g id="node1" class="node">
<title>ScenarioComponent</title>
<polygon fill="#ffffb3" stroke="#000000" points="558.3104,-122 427.6896,-122 427.6896,-86 558.3104,-86 558.3104,-122"/>
<text text-anchor="middle" x="493" y="-99.8" font-family="Times,serif" font-size="14.00" fill="#000000">ScenarioComponent</text>
</g>
<!-- ScenarioModule -->
<g id="node3" class="node">
<title>ScenarioModule</title>
<polygon fill="#8dd3c7" stroke="#000000" points="349.0284,-187 346.0284,-191 325.0284,-191 322.0284,-187 240.9716,-187 240.9716,-151 349.0284,-151 349.0284,-187"/>
<text text-anchor="middle" x="295" y="-164.8" font-family="Times,serif" font-size="14.00" fill="#000000">ScenarioModule</text>
</g>
<!-- ScenarioComponent&#45;&gt;ScenarioModule -->
<g id="edge1" class="edge">
<title>ScenarioComponent&#45;&gt;ScenarioModule</title>
<path fill="none" stroke="#000000" d="M493,-122.1061C493,-141.3391 493,-169 493,-169 493,-169 359.1044,-169 359.1044,-169"/>
<polygon fill="#000000" stroke="#000000" points="359.1044,-165.5001 349.1044,-169 359.1043,-172.5001 359.1044,-165.5001"/>
</g>
<!-- ListComponent -->
<g id="node2" class="node">
<title>ListComponent</title>
<polygon fill="#ffffb3" stroke="#000000" points="409.6109,-122 306.3891,-122 306.3891,-86 409.6109,-86 409.6109,-122"/>
<text text-anchor="middle" x="358" y="-99.8" font-family="Times,serif" font-size="14.00" fill="#000000">ListComponent</text>
</g>
<!-- ListComponent&#45;&gt;ScenarioModule -->
<g id="edge2" class="edge">
<title>ListComponent&#45;&gt;ScenarioModule</title>
<path fill="none" stroke="#000000" d="M327.8542,-122.1061C327.8542,-122.1061 327.8542,-140.991 327.8542,-140.991"/>
<polygon fill="#000000" stroke="#000000" points="324.3542,-140.9909 327.8542,-150.991 331.3542,-140.991 324.3542,-140.9909"/>
</g>
<!-- SharedModule -->
<g id="node4" class="node">
<title>SharedModule</title>
<polygon fill="#8dd3c7" stroke="#000000" points="282.4231,-122 279.4231,-126 258.4231,-126 255.4231,-122 183.5769,-122 183.5769,-86 282.4231,-86 282.4231,-122"/>
<text text-anchor="middle" x="233" y="-99.8" font-family="Times,serif" font-size="14.00" fill="#000000">SharedModule</text>
</g>
<!-- SharedModule&#45;&gt;ScenarioModule -->
<g id="edge3" class="edge">
<title>SharedModule&#45;&gt;ScenarioModule</title>
<path fill="none" stroke="#000000" d="M261.4737,-122.1061C261.4737,-122.1061 261.4737,-140.991 261.4737,-140.991"/>
<polygon fill="#000000" stroke="#000000" points="257.9738,-140.9909 261.4737,-150.991 264.9738,-140.991 257.9738,-140.9909"/>
</g>
<!-- ScenarioRouteModule -->
<g id="node5" class="node">
<title>ScenarioRouteModule</title>
<polygon fill="#8dd3c7" stroke="#000000" points="165.9692,-122 162.9692,-126 141.9692,-126 138.9692,-122 24.0308,-122 24.0308,-86 165.9692,-86 165.9692,-122"/>
<text text-anchor="middle" x="95" y="-99.8" font-family="Times,serif" font-size="14.00" fill="#000000">ScenarioRouteModule</text>
</g>
<!-- ScenarioRouteModule&#45;&gt;ScenarioModule -->
<g id="edge4" class="edge">
<title>ScenarioRouteModule&#45;&gt;ScenarioModule</title>
<path fill="none" stroke="#000000" d="M95,-122.1061C95,-141.3391 95,-169 95,-169 95,-169 230.8771,-169 230.8771,-169"/>
<polygon fill="#000000" stroke="#000000" points="230.8772,-172.5001 240.8771,-169 230.8771,-165.5001 230.8772,-172.5001"/>
</g>
</g>
</svg>
