<?xml version="1.0" encoding="UTF-8" standalone="no"?><!DOCTYPE svg PUBLIC "-//W3C//DTD SVG 1.1//EN" "http://www.w3.org/Graphics/SVG/1.1/DTD/svg11.dtd"><svg width="100%" height="100%" viewBox="0 0 29 20" version="1.1" xmlns="http://www.w3.org/2000/svg" xmlns:xlink="http://www.w3.org/1999/xlink" xml:space="preserve" xmlns:serif="http://www.serif.com/" style="fill-rule:evenodd;clip-rule:evenodd;stroke-linejoin:round;stroke-miterlimit:1.41421;"><g id="teal"><path id="svg_22" d="M15.482,19.887c-1.388,0.122 -0.769,0.036 -3.961,0.059c-3.766,-0.05 -8.067,-16.148 -11.464,-19.946c1.953,0.008 1.111,0.008 2.516,0.072c3.283,-0.033 7.359,18.56 12.909,19.815Z" style="fill:#11694f;fill-rule:nonzero;"/><path id="svg_25" d="M28.565,19.933c-1.388,0.122 -0.769,0.036 -3.961,0.059c-3.766,-0.05 -8.067,-16.148 -11.464,-19.946c1.953,0.008 1.112,0.008 2.516,0.072c3.283,-0.033 7.359,18.56 12.909,19.815l0,0Z" style="fill:#20c997;fill-rule:nonzero;"/><path id="svg_26" d="M15.426,0.068c-1.389,-0.122 -0.77,-0.036 -3.961,-0.059c-3.766,0.05 -8.068,16.148 -11.465,19.946c1.953,-0.008 1.112,-0.008 2.516,-0.072c3.283,0.033 7.36,-18.56 12.91,-19.815l0,0Z" style="fill:#20c997;fill-rule:nonzero;"/><path id="svg_29" d="M28.565,0.067c-1.388,-0.122 -0.769,-0.036 -3.961,-0.059c-3.766,0.05 -8.067,16.148 -11.464,19.946c1.953,-0.008 1.112,-0.008 2.516,-0.072c3.283,0.033 7.359,-18.56 12.909,-19.815Z" style="fill:#11694f;fill-rule:nonzero;"/></g></svg>
