<?xml version="1.0" encoding="UTF-8" standalone="no"?><!DOCTYPE svg PUBLIC "-//W3C//DTD SVG 1.1//EN" "http://www.w3.org/Graphics/SVG/1.1/DTD/svg11.dtd"><svg width="100%" height="100%" viewBox="0 0 26 20" version="1.1" xmlns="http://www.w3.org/2000/svg" xmlns:xlink="http://www.w3.org/1999/xlink" xml:space="preserve" xmlns:serif="http://www.serif.com/" style="fill-rule:evenodd;clip-rule:evenodd;stroke-linejoin:round;stroke-miterlimit:1.41421;"><g id="teal"><path id="svg_22" d="M15,19.933c-1.35,0.122 -0.748,0.036 -3.852,0.059c-3.662,-0.05 -7.844,-16.186 -11.148,-19.992c1.899,0.008 1.081,0.008 2.447,0.072c3.192,-0.033 7.156,18.603 12.553,19.861Z" style="fill:#11694f;fill-rule:nonzero;"/><path id="svg_221" serif:id="svg_22" d="M20.5,0.067c-1.35,-0.122 -0.748,-0.036 -3.852,-0.059c-3.662,0.05 -7.844,16.186 -11.148,19.992c1.899,-0.008 1.081,-0.008 2.447,-0.072c3.192,0.033 7.156,-18.603 12.553,-19.861Z" style="fill:#20c997;fill-rule:nonzero;"/><path d="M26,15.898c-2.613,-5.06 -5.259,-13.316 -7.5,-15.898c1.899,0.008 1.081,0.008 2.447,0.072c1.493,-0.016 3.155,4.053 5.053,8.517l0,7.309Z" style="fill:#20c997;"/><path d="M0,0.009c1.068,-0.009 1.025,-0.03 2,0.058c-0.69,0.161 -1.356,0.606 -2,1.259l0,-1.317Z" style="fill:#11694f;"/><path d="M0,8.589c2.16,5.08 4.627,10.674 7.5,11.344c-1.35,0.122 -0.748,0.036 -3.852,0.059c-1.178,-0.016 -2.409,-1.696 -3.648,-4.094l0,-7.309Z" style="fill:#20c997;"/><path d="M26,1.326c-4.397,4.457 -7.769,18.631 -10.553,18.602c-1.366,0.064 -0.548,0.064 -2.447,0.072c3.304,-3.806 7.486,-19.942 11.148,-19.992c0.864,0.006 1.44,0.004 1.852,0.001l0,1.317Z" style="fill:#11694f;"/></g></svg>
