<?xml version="1.0" encoding="UTF-8" standalone="no"?><!DOCTYPE svg PUBLIC "-//W3C//DTD SVG 1.1//EN" "http://www.w3.org/Graphics/SVG/1.1/DTD/svg11.dtd"><svg width="100%" height="100%" viewBox="0 0 25 70" version="1.1" xmlns="http://www.w3.org/2000/svg" xmlns:xlink="http://www.w3.org/1999/xlink" xml:space="preserve" xmlns:serif="http://www.serif.com/" style="fill-rule:evenodd;clip-rule:evenodd;stroke-linecap:round;stroke-miterlimit:1.5;"><g><path id="empty" d="M19.5,2.5l-14,0l0,60c0,2.76 2.24,5 5,5l4,0c2.76,0 5,-2.24 5,-5l0,-60Z" style="fill:#fff;"/><path id="_1-b" serif:id="1-b" d="M19.5,43.125l-14,0l0,16.25c0,4.484 3.137,8.125 7,8.125c3.863,0 7,-3.641 7,-8.125l0,-16.25Z" style="fill:#d1ecf1;"/><path id="_2-b" serif:id="2-b" d="M19.5,30l-14,0l0,30c0,4.139 3.137,7.5 7,7.5c3.863,0 7,-3.361 7,-7.5l0,-30Z" style="fill:#d1ecf1;"/><path d="M19.5,2.5l-14,0l0,56.875c0,4.484 3.137,8.125 7,8.125c3.863,0 7,-3.641 7,-8.125l0,-56.875Z" style="fill:none;stroke:#000;stroke-width:1.25px;"/><path d="M0,2.5l25,0" style="fill:none;stroke:#000;stroke-width:1.5px;stroke-linecap:butt;"/></g></svg>
