<?xml version="1.0" encoding="UTF-8" standalone="no"?>
<!DOCTYPE svg PUBLIC "-//W3C//DTD SVG 1.1//EN"
 "http://www.w3.org/Graphics/SVG/1.1/DTD/svg11.dtd">
<!-- Generated by graphviz version 2.40.1 (20161225.0304)
 -->
<!-- Title: dependencies Pages: 1 -->
<svg width="1487pt" height="211pt"
 viewBox="0.00 0.00 1487.00 211.00" xmlns="http://www.w3.org/2000/svg" xmlns:xlink="http://www.w3.org/1999/xlink">
<g id="graph0" class="graph" transform="scale(1 1) rotate(0) translate(4 207)">
<title>dependencies</title>
<polygon fill="#ffffff" stroke="transparent" points="-4,4 -4,-207 1483,-207 1483,4 -4,4"/>
<text text-anchor="start" x="718.5091" y="-42.4" font-family="sans-serif" font-weight="bold" font-size="14.00" fill="#000000">Legend</text>
<polygon fill="#ffffb3" stroke="transparent" points="505.5,-10 505.5,-30 525.5,-30 525.5,-10 505.5,-10"/>
<text text-anchor="start" x="529.129" y="-15.4" font-family="sans-serif" font-size="14.00" fill="#000000"> &#160;Declarations</text>
<polygon fill="#8dd3c7" stroke="transparent" points="618.5,-10 618.5,-30 638.5,-30 638.5,-10 618.5,-10"/>
<text text-anchor="start" x="642.2251" y="-15.4" font-family="sans-serif" font-size="14.00" fill="#000000"> &#160;Module</text>
<polygon fill="#80b1d3" stroke="transparent" points="704.5,-10 704.5,-30 724.5,-30 724.5,-10 704.5,-10"/>
<text text-anchor="start" x="728.2812" y="-15.4" font-family="sans-serif" font-size="14.00" fill="#000000"> &#160;Bootstrap</text>
<polygon fill="#fdb462" stroke="transparent" points="801.5,-10 801.5,-30 821.5,-30 821.5,-10 801.5,-10"/>
<text text-anchor="start" x="825.1732" y="-15.4" font-family="sans-serif" font-size="14.00" fill="#000000"> &#160;Providers</text>
<polygon fill="#fb8072" stroke="transparent" points="897.5,-10 897.5,-30 917.5,-30 917.5,-10 897.5,-10"/>
<text text-anchor="start" x="921.2258" y="-15.4" font-family="sans-serif" font-size="14.00" fill="#000000"> &#160;Exports</text>
<g id="clust1" class="cluster">
<title>cluster_LocationModule</title>
<polygon fill="none" stroke="#000000" stroke-dasharray="1,5" points="8,-70 8,-195 1471,-195 1471,-70 8,-70"/>
</g>
<g id="clust2" class="cluster">
<title>cluster_LocationModule_declarations</title>
<polygon fill="none" stroke="#000000" points="332,-78 332,-130 1463,-130 1463,-78 332,-78"/>
</g>
<g id="clust10" class="cluster">
<title>cluster_LocationModule_imports</title>
<polygon fill="none" stroke="#000000" points="210,-78 210,-130 324,-130 324,-78 210,-78"/>
</g>
<g id="clust13" class="cluster">
<title>cluster_LocationModule_providers</title>
<polygon fill="none" stroke="#000000" points="16,-78 16,-130 202,-130 202,-78 16,-78"/>
</g>
<!-- FridgeComponent -->
<g id="node1" class="node">
<title>FridgeComponent</title>
<polygon fill="#ffffb3" stroke="#000000" points="1454.8809,-122 1337.1191,-122 1337.1191,-86 1454.8809,-86 1454.8809,-122"/>
<text text-anchor="middle" x="1396" y="-99.8" font-family="Times,serif" font-size="14.00" fill="#000000">FridgeComponent</text>
</g>
<!-- LocationModule -->
<g id="node8" class="node">
<title>LocationModule</title>
<polygon fill="#8dd3c7" stroke="#000000" points="811.8132,-187 808.8132,-191 787.8132,-191 784.8132,-187 702.1868,-187 702.1868,-151 811.8132,-151 811.8132,-187"/>
<text text-anchor="middle" x="757" y="-164.8" font-family="Times,serif" font-size="14.00" fill="#000000">LocationModule</text>
</g>
<!-- FridgeComponent&#45;&gt;LocationModule -->
<g id="edge1" class="edge">
<title>FridgeComponent&#45;&gt;LocationModule</title>
<path fill="none" stroke="#000000" d="M1396,-122.0109C1396,-144.4852 1396,-180 1396,-180 1396,-180 821.757,-180 821.757,-180"/>
<polygon fill="#000000" stroke="#000000" points="821.7571,-176.5001 811.757,-180 821.757,-183.5001 821.7571,-176.5001"/>
</g>
<!-- LabRoomComponent -->
<g id="node2" class="node">
<title>LabRoomComponent</title>
<polygon fill="#ffffb3" stroke="#000000" points="1318.8272,-122 1181.1728,-122 1181.1728,-86 1318.8272,-86 1318.8272,-122"/>
<text text-anchor="middle" x="1250" y="-99.8" font-family="Times,serif" font-size="14.00" fill="#000000">LabRoomComponent</text>
</g>
<!-- LabRoomComponent&#45;&gt;LocationModule -->
<g id="edge2" class="edge">
<title>LabRoomComponent&#45;&gt;LocationModule</title>
<path fill="none" stroke="#000000" d="M1250,-122.1289C1250,-142.5724 1250,-173 1250,-173 1250,-173 822.1183,-173 822.1183,-173"/>
<polygon fill="#000000" stroke="#000000" points="822.1184,-169.5001 812.1183,-173 822.1183,-176.5001 822.1184,-169.5001"/>
</g>
<!-- LandingRoomComponent -->
<g id="node3" class="node">
<title>LandingRoomComponent</title>
<polygon fill="#ffffb3" stroke="#000000" points="1163.2175,-122 1000.7825,-122 1000.7825,-86 1163.2175,-86 1163.2175,-122"/>
<text text-anchor="middle" x="1082" y="-99.8" font-family="Times,serif" font-size="14.00" fill="#000000">LandingRoomComponent</text>
</g>
<!-- LandingRoomComponent&#45;&gt;LocationModule -->
<g id="edge3" class="edge">
<title>LandingRoomComponent&#45;&gt;LocationModule</title>
<path fill="none" stroke="#000000" d="M1082,-122.2667C1082,-140.5552 1082,-166 1082,-166 1082,-166 821.7643,-166 821.7643,-166"/>
<polygon fill="#000000" stroke="#000000" points="821.7643,-162.5001 811.7643,-166 821.7643,-169.5001 821.7643,-162.5001"/>
</g>
<!-- LocationComponent -->
<g id="node4" class="node">
<title>LocationComponent</title>
<polygon fill="#ffffb3" stroke="#000000" points="982.5954,-122 851.4046,-122 851.4046,-86 982.5954,-86 982.5954,-122"/>
<text text-anchor="middle" x="917" y="-99.8" font-family="Times,serif" font-size="14.00" fill="#000000">LocationComponent</text>
</g>
<!-- LocationComponent&#45;&gt;LocationModule -->
<g id="edge4" class="edge">
<title>LocationComponent&#45;&gt;LocationModule</title>
<path fill="none" stroke="#000000" d="M917,-122.0091C917,-138.0494 917,-159 917,-159 917,-159 822.0629,-159 822.0629,-159"/>
<polygon fill="#000000" stroke="#000000" points="822.063,-155.5001 812.0629,-159 822.0629,-162.5001 822.063,-155.5001"/>
</g>
<!-- ModelRoomComponent -->
<g id="node5" class="node">
<title>ModelRoomComponent</title>
<polygon fill="#ffffb3" stroke="#000000" points="833.1094,-122 680.8906,-122 680.8906,-86 833.1094,-86 833.1094,-122"/>
<text text-anchor="middle" x="757" y="-99.8" font-family="Times,serif" font-size="14.00" fill="#000000">ModelRoomComponent</text>
</g>
<!-- ModelRoomComponent&#45;&gt;LocationModule -->
<g id="edge5" class="edge">
<title>ModelRoomComponent&#45;&gt;LocationModule</title>
<path fill="none" stroke="#000000" d="M757,-122.1061C757,-122.1061 757,-140.991 757,-140.991"/>
<polygon fill="#000000" stroke="#000000" points="753.5001,-140.9909 757,-150.991 760.5001,-140.991 753.5001,-140.9909"/>
</g>
<!-- PhageDialogComponent -->
<g id="node6" class="node">
<title>PhageDialogComponent</title>
<polygon fill="#ffffb3" stroke="#000000" points="662.647,-122 509.353,-122 509.353,-86 662.647,-86 662.647,-122"/>
<text text-anchor="middle" x="586" y="-99.8" font-family="Times,serif" font-size="14.00" fill="#000000">PhageDialogComponent</text>
</g>
<!-- PhageDialogComponent&#45;&gt;LocationModule -->
<g id="edge6" class="edge">
<title>PhageDialogComponent&#45;&gt;LocationModule</title>
<path fill="none" stroke="#000000" d="M586,-122.0091C586,-138.0494 586,-159 586,-159 586,-159 691.9533,-159 691.9533,-159"/>
<polygon fill="#000000" stroke="#000000" points="691.9533,-162.5001 701.9533,-159 691.9532,-155.5001 691.9533,-162.5001"/>
</g>
<!-- PlexerRoomComponent -->
<g id="node7" class="node">
<title>PlexerRoomComponent</title>
<polygon fill="#ffffb3" stroke="#000000" points="491.8229,-122 340.1771,-122 340.1771,-86 491.8229,-86 491.8229,-122"/>
<text text-anchor="middle" x="416" y="-99.8" font-family="Times,serif" font-size="14.00" fill="#000000">PlexerRoomComponent</text>
</g>
<!-- PlexerRoomComponent&#45;&gt;LocationModule -->
<g id="edge7" class="edge">
<title>PlexerRoomComponent&#45;&gt;LocationModule</title>
<path fill="none" stroke="#000000" d="M416,-122.2667C416,-140.5552 416,-166 416,-166 416,-166 692.2125,-166 692.2125,-166"/>
<polygon fill="#000000" stroke="#000000" points="692.2125,-169.5001 702.2125,-166 692.2124,-162.5001 692.2125,-169.5001"/>
</g>
<!-- SharedModule -->
<g id="node9" class="node">
<title>SharedModule</title>
<polygon fill="#8dd3c7" stroke="#000000" points="316.4231,-122 313.4231,-126 292.4231,-126 289.4231,-122 217.5769,-122 217.5769,-86 316.4231,-86 316.4231,-122"/>
<text text-anchor="middle" x="267" y="-99.8" font-family="Times,serif" font-size="14.00" fill="#000000">SharedModule</text>
</g>
<!-- SharedModule&#45;&gt;LocationModule -->
<g id="edge8" class="edge">
<title>SharedModule&#45;&gt;LocationModule</title>
<path fill="none" stroke="#000000" d="M267,-122.1289C267,-142.5724 267,-173 267,-173 267,-173 692.2171,-173 692.2171,-173"/>
<polygon fill="#000000" stroke="#000000" points="692.2171,-176.5001 702.2171,-173 692.217,-169.5001 692.2171,-176.5001"/>
</g>
<!-- ExperimentService -->
<g id="node10" class="node">
<title>ExperimentService</title>
<ellipse fill="#fdb462" stroke="#000000" cx="109" cy="-104" rx="85.0889" ry="18"/>
<text text-anchor="middle" x="109" y="-99.8" font-family="Times,serif" font-size="14.00" fill="#000000">ExperimentService</text>
</g>
<!-- ExperimentService&#45;&gt;LocationModule -->
<g id="edge9" class="edge">
<title>ExperimentService&#45;&gt;LocationModule</title>
<path fill="none" stroke="#000000" d="M109,-122.0109C109,-144.4852 109,-180 109,-180 109,-180 692.3104,-180 692.3104,-180"/>
<polygon fill="#000000" stroke="#000000" points="692.3104,-183.5001 702.3104,-180 692.3103,-176.5001 692.3104,-183.5001"/>
</g>
</g>
</svg>
