<?xml version="1.0" encoding="UTF-8" standalone="no"?>
<!DOCTYPE svg PUBLIC "-//W3C//DTD SVG 1.1//EN"
 "http://www.w3.org/Graphics/SVG/1.1/DTD/svg11.dtd">
<!-- Generated by graphviz version 2.40.1 (20161225.0304)
 -->
<!-- Title: dependencies Pages: 1 -->
<svg width="1485pt" height="211pt"
 viewBox="0.00 0.00 1485.00 211.00" xmlns="http://www.w3.org/2000/svg" xmlns:xlink="http://www.w3.org/1999/xlink">
<g id="graph0" class="graph" transform="scale(1 1) rotate(0) translate(4 207)">
<title>dependencies</title>
<polygon fill="#ffffff" stroke="transparent" points="-4,4 -4,-207 1481,-207 1481,4 -4,4"/>
<text text-anchor="start" x="717.5091" y="-42.4" font-family="sans-serif" font-weight="bold" font-size="14.00" fill="#000000">Legend</text>
<polygon fill="#ffffb3" stroke="transparent" points="504.5,-10 504.5,-30 524.5,-30 524.5,-10 504.5,-10"/>
<text text-anchor="start" x="528.129" y="-15.4" font-family="sans-serif" font-size="14.00" fill="#000000"> &#160;Declarations</text>
<polygon fill="#8dd3c7" stroke="transparent" points="617.5,-10 617.5,-30 637.5,-30 637.5,-10 617.5,-10"/>
<text text-anchor="start" x="641.2251" y="-15.4" font-family="sans-serif" font-size="14.00" fill="#000000"> &#160;Module</text>
<polygon fill="#80b1d3" stroke="transparent" points="703.5,-10 703.5,-30 723.5,-30 723.5,-10 703.5,-10"/>
<text text-anchor="start" x="727.2812" y="-15.4" font-family="sans-serif" font-size="14.00" fill="#000000"> &#160;Bootstrap</text>
<polygon fill="#fdb462" stroke="transparent" points="800.5,-10 800.5,-30 820.5,-30 820.5,-10 800.5,-10"/>
<text text-anchor="start" x="824.1732" y="-15.4" font-family="sans-serif" font-size="14.00" fill="#000000"> &#160;Providers</text>
<polygon fill="#fb8072" stroke="transparent" points="896.5,-10 896.5,-30 916.5,-30 916.5,-10 896.5,-10"/>
<text text-anchor="start" x="920.2258" y="-15.4" font-family="sans-serif" font-size="14.00" fill="#000000"> &#160;Exports</text>
<g id="clust1" class="cluster">
<title>cluster_LocationModule</title>
<polygon fill="none" stroke="#000000" stroke-dasharray="1,5" points="8,-70 8,-195 1469,-195 1469,-70 8,-70"/>
</g>
<g id="clust2" class="cluster">
<title>cluster_LocationModule_declarations</title>
<polygon fill="none" stroke="#000000" points="332,-78 332,-130 1461,-130 1461,-78 332,-78"/>
</g>
<g id="clust10" class="cluster">
<title>cluster_LocationModule_imports</title>
<polygon fill="none" stroke="#000000" points="210,-78 210,-130 324,-130 324,-78 210,-78"/>
</g>
<g id="clust13" class="cluster">
<title>cluster_LocationModule_providers</title>
<polygon fill="none" stroke="#000000" points="16,-78 16,-130 202,-130 202,-78 16,-78"/>
</g>
<!-- FridgeComponent -->
<g id="node1" class="node">
<title>FridgeComponent</title>
<polygon fill="#ffffb3" stroke="#000000" points="1452.8809,-122 1335.1191,-122 1335.1191,-86 1452.8809,-86 1452.8809,-122"/>
<text text-anchor="middle" x="1394" y="-99.8" font-family="Times,serif" font-size="14.00" fill="#000000">FridgeComponent</text>
</g>
<!-- LocationModule -->
<g id="node8" class="node">
<title>LocationModule</title>
<polygon fill="#8dd3c7" stroke="#000000" points="820.8132,-187 817.8132,-191 796.8132,-191 793.8132,-187 711.1868,-187 711.1868,-151 820.8132,-151 820.8132,-187"/>
<text text-anchor="middle" x="766" y="-164.8" font-family="Times,serif" font-size="14.00" fill="#000000">LocationModule</text>
</g>
<!-- FridgeComponent&#45;&gt;LocationModule -->
<g id="edge1" class="edge">
<title>FridgeComponent&#45;&gt;LocationModule</title>
<path fill="none" stroke="#000000" d="M1394,-122.0109C1394,-144.4852 1394,-180 1394,-180 1394,-180 830.9061,-180 830.9061,-180"/>
<polygon fill="#000000" stroke="#000000" points="830.9061,-176.5001 820.9061,-180 830.906,-183.5001 830.9061,-176.5001"/>
</g>
<!-- PhageDialogComponent -->
<g id="node2" class="node">
<title>PhageDialogComponent</title>
<polygon fill="#ffffb3" stroke="#000000" points="1316.647,-122 1163.353,-122 1163.353,-86 1316.647,-86 1316.647,-122"/>
<text text-anchor="middle" x="1240" y="-99.8" font-family="Times,serif" font-size="14.00" fill="#000000">PhageDialogComponent</text>
</g>
<!-- PhageDialogComponent&#45;&gt;LocationModule -->
<g id="edge2" class="edge">
<title>PhageDialogComponent&#45;&gt;LocationModule</title>
<path fill="none" stroke="#000000" d="M1240,-122.1289C1240,-142.5724 1240,-173 1240,-173 1240,-173 830.8369,-173 830.8369,-173"/>
<polygon fill="#000000" stroke="#000000" points="830.8369,-169.5001 820.8369,-173 830.8368,-176.5001 830.8369,-169.5001"/>
</g>
<!-- LocationComponent -->
<g id="node3" class="node">
<title>LocationComponent</title>
<polygon fill="#ffffb3" stroke="#000000" points="1145.5954,-122 1014.4046,-122 1014.4046,-86 1145.5954,-86 1145.5954,-122"/>
<text text-anchor="middle" x="1080" y="-99.8" font-family="Times,serif" font-size="14.00" fill="#000000">LocationComponent</text>
</g>
<!-- LocationComponent&#45;&gt;LocationModule -->
<g id="edge3" class="edge">
<title>LocationComponent&#45;&gt;LocationModule</title>
<path fill="none" stroke="#000000" d="M1080,-122.2667C1080,-140.5552 1080,-166 1080,-166 1080,-166 830.6946,-166 830.6946,-166"/>
<polygon fill="#000000" stroke="#000000" points="830.6947,-162.5001 820.6946,-166 830.6946,-169.5001 830.6947,-162.5001"/>
</g>
<!-- LabRoomComponent -->
<g id="node4" class="node">
<title>LabRoomComponent</title>
<polygon fill="#ffffb3" stroke="#000000" points="996.8272,-122 859.1728,-122 859.1728,-86 996.8272,-86 996.8272,-122"/>
<text text-anchor="middle" x="928" y="-99.8" font-family="Times,serif" font-size="14.00" fill="#000000">LabRoomComponent</text>
</g>
<!-- LabRoomComponent&#45;&gt;LocationModule -->
<g id="edge4" class="edge">
<title>LabRoomComponent&#45;&gt;LocationModule</title>
<path fill="none" stroke="#000000" d="M928,-122.0091C928,-138.0494 928,-159 928,-159 928,-159 830.8458,-159 830.8458,-159"/>
<polygon fill="#000000" stroke="#000000" points="830.8458,-155.5001 820.8458,-159 830.8458,-162.5001 830.8458,-155.5001"/>
</g>
<!-- PlexerRoomComponent -->
<g id="node5" class="node">
<title>PlexerRoomComponent</title>
<polygon fill="#ffffb3" stroke="#000000" points="841.8229,-122 690.1771,-122 690.1771,-86 841.8229,-86 841.8229,-122"/>
<text text-anchor="middle" x="766" y="-99.8" font-family="Times,serif" font-size="14.00" fill="#000000">PlexerRoomComponent</text>
</g>
<!-- PlexerRoomComponent&#45;&gt;LocationModule -->
<g id="edge5" class="edge">
<title>PlexerRoomComponent&#45;&gt;LocationModule</title>
<path fill="none" stroke="#000000" d="M766,-122.1061C766,-122.1061 766,-140.991 766,-140.991"/>
<polygon fill="#000000" stroke="#000000" points="762.5001,-140.9909 766,-150.991 769.5001,-140.991 762.5001,-140.9909"/>
</g>
<!-- ModelRoomComponent -->
<g id="node6" class="node">
<title>ModelRoomComponent</title>
<polygon fill="#ffffb3" stroke="#000000" points="672.1094,-122 519.8906,-122 519.8906,-86 672.1094,-86 672.1094,-122"/>
<text text-anchor="middle" x="596" y="-99.8" font-family="Times,serif" font-size="14.00" fill="#000000">ModelRoomComponent</text>
</g>
<!-- ModelRoomComponent&#45;&gt;LocationModule -->
<g id="edge6" class="edge">
<title>ModelRoomComponent&#45;&gt;LocationModule</title>
<path fill="none" stroke="#000000" d="M596,-122.0091C596,-138.0494 596,-159 596,-159 596,-159 701.2752,-159 701.2752,-159"/>
<polygon fill="#000000" stroke="#000000" points="701.2752,-162.5001 711.2752,-159 701.2751,-155.5001 701.2752,-162.5001"/>
</g>
<!-- LandingRoomComponent -->
<g id="node7" class="node">
<title>LandingRoomComponent</title>
<polygon fill="#ffffb3" stroke="#000000" points="502.2175,-122 339.7825,-122 339.7825,-86 502.2175,-86 502.2175,-122"/>
<text text-anchor="middle" x="421" y="-99.8" font-family="Times,serif" font-size="14.00" fill="#000000">LandingRoomComponent</text>
</g>
<!-- LandingRoomComponent&#45;&gt;LocationModule -->
<g id="edge7" class="edge">
<title>LandingRoomComponent&#45;&gt;LocationModule</title>
<path fill="none" stroke="#000000" d="M421,-122.2667C421,-140.5552 421,-166 421,-166 421,-166 701.3337,-166 701.3337,-166"/>
<polygon fill="#000000" stroke="#000000" points="701.3338,-169.5001 711.3337,-166 701.3337,-162.5001 701.3338,-169.5001"/>
</g>
<!-- SharedModule -->
<g id="node9" class="node">
<title>SharedModule</title>
<polygon fill="#8dd3c7" stroke="#000000" points="316.4231,-122 313.4231,-126 292.4231,-126 289.4231,-122 217.5769,-122 217.5769,-86 316.4231,-86 316.4231,-122"/>
<text text-anchor="middle" x="267" y="-99.8" font-family="Times,serif" font-size="14.00" fill="#000000">SharedModule</text>
</g>
<!-- SharedModule&#45;&gt;LocationModule -->
<g id="edge8" class="edge">
<title>SharedModule&#45;&gt;LocationModule</title>
<path fill="none" stroke="#000000" d="M267,-122.1289C267,-142.5724 267,-173 267,-173 267,-173 701.1709,-173 701.1709,-173"/>
<polygon fill="#000000" stroke="#000000" points="701.1709,-176.5001 711.1709,-173 701.1708,-169.5001 701.1709,-176.5001"/>
</g>
<!-- ExperimentService -->
<g id="node10" class="node">
<title>ExperimentService</title>
<ellipse fill="#fdb462" stroke="#000000" cx="109" cy="-104" rx="85.0889" ry="18"/>
<text text-anchor="middle" x="109" y="-99.8" font-family="Times,serif" font-size="14.00" fill="#000000">ExperimentService</text>
</g>
<!-- ExperimentService&#45;&gt;LocationModule -->
<g id="edge9" class="edge">
<title>ExperimentService&#45;&gt;LocationModule</title>
<path fill="none" stroke="#000000" d="M109,-122.0109C109,-144.4852 109,-180 109,-180 109,-180 701.1146,-180 701.1146,-180"/>
<polygon fill="#000000" stroke="#000000" points="701.1146,-183.5001 711.1146,-180 701.1146,-176.5001 701.1146,-183.5001"/>
</g>
</g>
</svg>
