<?xml version="1.0" encoding="UTF-8" standalone="no"?>
<!DOCTYPE svg PUBLIC "-//W3C//DTD SVG 1.1//EN"
 "http://www.w3.org/Graphics/SVG/1.1/DTD/svg11.dtd">
<!-- Generated by graphviz version 2.40.1 (20161225.0304)
 -->
<!-- Title: dependencies Pages: 1 -->
<svg width="1646pt" height="211pt"
 viewBox="0.00 0.00 1646.00 211.00" xmlns="http://www.w3.org/2000/svg" xmlns:xlink="http://www.w3.org/1999/xlink">
<g id="graph0" class="graph" transform="scale(1 1) rotate(0) translate(4 207)">
<title>dependencies</title>
<polygon fill="#ffffff" stroke="transparent" points="-4,4 -4,-207 1642,-207 1642,4 -4,4"/>
<text text-anchor="start" x="798.0091" y="-42.4" font-family="sans-serif" font-weight="bold" font-size="14.00" fill="#000000">Legend</text>
<polygon fill="#ffffb3" stroke="transparent" points="585,-10 585,-30 605,-30 605,-10 585,-10"/>
<text text-anchor="start" x="608.629" y="-15.4" font-family="sans-serif" font-size="14.00" fill="#000000"> &#160;Declarations</text>
<polygon fill="#8dd3c7" stroke="transparent" points="698,-10 698,-30 718,-30 718,-10 698,-10"/>
<text text-anchor="start" x="721.7251" y="-15.4" font-family="sans-serif" font-size="14.00" fill="#000000"> &#160;Module</text>
<polygon fill="#80b1d3" stroke="transparent" points="784,-10 784,-30 804,-30 804,-10 784,-10"/>
<text text-anchor="start" x="807.7812" y="-15.4" font-family="sans-serif" font-size="14.00" fill="#000000"> &#160;Bootstrap</text>
<polygon fill="#fdb462" stroke="transparent" points="881,-10 881,-30 901,-30 901,-10 881,-10"/>
<text text-anchor="start" x="904.6732" y="-15.4" font-family="sans-serif" font-size="14.00" fill="#000000"> &#160;Providers</text>
<polygon fill="#fb8072" stroke="transparent" points="977,-10 977,-30 997,-30 997,-10 977,-10"/>
<text text-anchor="start" x="1000.7258" y="-15.4" font-family="sans-serif" font-size="14.00" fill="#000000"> &#160;Exports</text>
<g id="clust1" class="cluster">
<title>cluster_LocationModule</title>
<polygon fill="none" stroke="#000000" stroke-dasharray="1,5" points="8,-70 8,-195 1630,-195 1630,-70 8,-70"/>
</g>
<g id="clust2" class="cluster">
<title>cluster_LocationModule_declarations</title>
<polygon fill="none" stroke="#000000" points="493,-78 493,-130 1622,-130 1622,-78 493,-78"/>
</g>
<g id="clust10" class="cluster">
<title>cluster_LocationModule_imports</title>
<polygon fill="none" stroke="#000000" points="210,-78 210,-130 485,-130 485,-78 210,-78"/>
</g>
<g id="clust13" class="cluster">
<title>cluster_LocationModule_providers</title>
<polygon fill="none" stroke="#000000" points="16,-78 16,-130 202,-130 202,-78 16,-78"/>
</g>
<!-- FridgeComponent -->
<g id="node1" class="node">
<title>FridgeComponent</title>
<polygon fill="#ffffb3" stroke="#000000" points="1613.8809,-122 1496.1191,-122 1496.1191,-86 1613.8809,-86 1613.8809,-122"/>
<text text-anchor="middle" x="1555" y="-99.8" font-family="Times,serif" font-size="14.00" fill="#000000">FridgeComponent</text>
</g>
<!-- LocationModule -->
<g id="node8" class="node">
<title>LocationModule</title>
<polygon fill="#8dd3c7" stroke="#000000" points="896.8132,-187 893.8132,-191 872.8132,-191 869.8132,-187 787.1868,-187 787.1868,-151 896.8132,-151 896.8132,-187"/>
<text text-anchor="middle" x="842" y="-164.8" font-family="Times,serif" font-size="14.00" fill="#000000">LocationModule</text>
</g>
<!-- FridgeComponent&#45;&gt;LocationModule -->
<g id="edge1" class="edge">
<title>FridgeComponent&#45;&gt;LocationModule</title>
<path fill="none" stroke="#000000" d="M1555,-122.0109C1555,-144.4852 1555,-180 1555,-180 1555,-180 906.764,-180 906.764,-180"/>
<polygon fill="#000000" stroke="#000000" points="906.764,-176.5001 896.764,-180 906.764,-183.5001 906.764,-176.5001"/>
</g>
<!-- PhageDialogComponent -->
<g id="node2" class="node">
<title>PhageDialogComponent</title>
<polygon fill="#ffffb3" stroke="#000000" points="1477.647,-122 1324.353,-122 1324.353,-86 1477.647,-86 1477.647,-122"/>
<text text-anchor="middle" x="1401" y="-99.8" font-family="Times,serif" font-size="14.00" fill="#000000">PhageDialogComponent</text>
</g>
<!-- PhageDialogComponent&#45;&gt;LocationModule -->
<g id="edge2" class="edge">
<title>PhageDialogComponent&#45;&gt;LocationModule</title>
<path fill="none" stroke="#000000" d="M1401,-122.1289C1401,-142.5724 1401,-173 1401,-173 1401,-173 906.8728,-173 906.8728,-173"/>
<polygon fill="#000000" stroke="#000000" points="906.8728,-169.5001 896.8728,-173 906.8727,-176.5001 906.8728,-169.5001"/>
</g>
<!-- LocationComponent -->
<g id="node3" class="node">
<title>LocationComponent</title>
<polygon fill="#ffffb3" stroke="#000000" points="1306.5954,-122 1175.4046,-122 1175.4046,-86 1306.5954,-86 1306.5954,-122"/>
<text text-anchor="middle" x="1241" y="-99.8" font-family="Times,serif" font-size="14.00" fill="#000000">LocationComponent</text>
</g>
<!-- LocationComponent&#45;&gt;LocationModule -->
<g id="edge3" class="edge">
<title>LocationComponent&#45;&gt;LocationModule</title>
<path fill="none" stroke="#000000" d="M1241,-122.2667C1241,-140.5552 1241,-166 1241,-166 1241,-166 907.0603,-166 907.0603,-166"/>
<polygon fill="#000000" stroke="#000000" points="907.0604,-162.5001 897.0603,-166 907.0603,-169.5001 907.0604,-162.5001"/>
</g>
<!-- LabRoomComponent -->
<g id="node4" class="node">
<title>LabRoomComponent</title>
<polygon fill="#ffffb3" stroke="#000000" points="1157.8272,-122 1020.1728,-122 1020.1728,-86 1157.8272,-86 1157.8272,-122"/>
<text text-anchor="middle" x="1089" y="-99.8" font-family="Times,serif" font-size="14.00" fill="#000000">LabRoomComponent</text>
</g>
<!-- LabRoomComponent&#45;&gt;LocationModule -->
<g id="edge4" class="edge">
<title>LabRoomComponent&#45;&gt;LocationModule</title>
<path fill="none" stroke="#000000" d="M1089,-122.0091C1089,-138.0494 1089,-159 1089,-159 1089,-159 906.8173,-159 906.8173,-159"/>
<polygon fill="#000000" stroke="#000000" points="906.8173,-155.5001 896.8173,-159 906.8173,-162.5001 906.8173,-155.5001"/>
</g>
<!-- PlexerRoomComponent -->
<g id="node5" class="node">
<title>PlexerRoomComponent</title>
<polygon fill="#ffffb3" stroke="#000000" points="1002.8229,-122 851.1771,-122 851.1771,-86 1002.8229,-86 1002.8229,-122"/>
<text text-anchor="middle" x="927" y="-99.8" font-family="Times,serif" font-size="14.00" fill="#000000">PlexerRoomComponent</text>
</g>
<!-- PlexerRoomComponent&#45;&gt;LocationModule -->
<g id="edge5" class="edge">
<title>PlexerRoomComponent&#45;&gt;LocationModule</title>
<path fill="none" stroke="#000000" d="M873.9976,-122.1061C873.9976,-122.1061 873.9976,-140.991 873.9976,-140.991"/>
<polygon fill="#000000" stroke="#000000" points="870.4976,-140.9909 873.9976,-150.991 877.4976,-140.991 870.4976,-140.9909"/>
</g>
<!-- ModelRoomComponent -->
<g id="node6" class="node">
<title>ModelRoomComponent</title>
<polygon fill="#ffffb3" stroke="#000000" points="833.1094,-122 680.8906,-122 680.8906,-86 833.1094,-86 833.1094,-122"/>
<text text-anchor="middle" x="757" y="-99.8" font-family="Times,serif" font-size="14.00" fill="#000000">ModelRoomComponent</text>
</g>
<!-- ModelRoomComponent&#45;&gt;LocationModule -->
<g id="edge6" class="edge">
<title>ModelRoomComponent&#45;&gt;LocationModule</title>
<path fill="none" stroke="#000000" d="M810.1992,-122.1061C810.1992,-122.1061 810.1992,-140.991 810.1992,-140.991"/>
<polygon fill="#000000" stroke="#000000" points="806.6992,-140.9909 810.1992,-150.991 813.6992,-140.991 806.6992,-140.9909"/>
</g>
<!-- LandingRoomComponent -->
<g id="node7" class="node">
<title>LandingRoomComponent</title>
<polygon fill="#ffffb3" stroke="#000000" points="663.2175,-122 500.7825,-122 500.7825,-86 663.2175,-86 663.2175,-122"/>
<text text-anchor="middle" x="582" y="-99.8" font-family="Times,serif" font-size="14.00" fill="#000000">LandingRoomComponent</text>
</g>
<!-- LandingRoomComponent&#45;&gt;LocationModule -->
<g id="edge7" class="edge">
<title>LandingRoomComponent&#45;&gt;LocationModule</title>
<path fill="none" stroke="#000000" d="M582,-122.0091C582,-138.0494 582,-159 582,-159 582,-159 777.1784,-159 777.1784,-159"/>
<polygon fill="#000000" stroke="#000000" points="777.1784,-162.5001 787.1784,-159 777.1784,-155.5001 777.1784,-162.5001"/>
</g>
<!-- SharedModule -->
<g id="node9" class="node">
<title>SharedModule</title>
<polygon fill="#8dd3c7" stroke="#000000" points="477.4231,-122 474.4231,-126 453.4231,-126 450.4231,-122 378.5769,-122 378.5769,-86 477.4231,-86 477.4231,-122"/>
<text text-anchor="middle" x="428" y="-99.8" font-family="Times,serif" font-size="14.00" fill="#000000">SharedModule</text>
</g>
<!-- SharedModule&#45;&gt;LocationModule -->
<g id="edge8" class="edge">
<title>SharedModule&#45;&gt;LocationModule</title>
<path fill="none" stroke="#000000" d="M428,-122.2667C428,-140.5552 428,-166 428,-166 428,-166 777.024,-166 777.024,-166"/>
<polygon fill="#000000" stroke="#000000" points="777.024,-169.5001 787.024,-166 777.024,-162.5001 777.024,-169.5001"/>
</g>
<!-- LocationRouteModule -->
<g id="node10" class="node">
<title>LocationRouteModule</title>
<polygon fill="#8dd3c7" stroke="#000000" points="360.2548,-122 357.2548,-126 336.2548,-126 333.2548,-122 217.7452,-122 217.7452,-86 360.2548,-86 360.2548,-122"/>
<text text-anchor="middle" x="289" y="-99.8" font-family="Times,serif" font-size="14.00" fill="#000000">LocationRouteModule</text>
</g>
<!-- LocationRouteModule&#45;&gt;LocationModule -->
<g id="edge9" class="edge">
<title>LocationRouteModule&#45;&gt;LocationModule</title>
<path fill="none" stroke="#000000" d="M289,-122.1289C289,-142.5724 289,-173 289,-173 289,-173 777.2089,-173 777.2089,-173"/>
<polygon fill="#000000" stroke="#000000" points="777.2089,-176.5001 787.2089,-173 777.2089,-169.5001 777.2089,-176.5001"/>
</g>
<!-- ExperimentService -->
<g id="node11" class="node">
<title>ExperimentService</title>
<ellipse fill="#fdb462" stroke="#000000" cx="109" cy="-104" rx="85.0889" ry="18"/>
<text text-anchor="middle" x="109" y="-99.8" font-family="Times,serif" font-size="14.00" fill="#000000">ExperimentService</text>
</g>
<!-- ExperimentService&#45;&gt;LocationModule -->
<g id="edge10" class="edge">
<title>ExperimentService&#45;&gt;LocationModule</title>
<path fill="none" stroke="#000000" d="M109,-122.0109C109,-144.4852 109,-180 109,-180 109,-180 777.2056,-180 777.2056,-180"/>
<polygon fill="#000000" stroke="#000000" points="777.2057,-183.5001 787.2056,-180 777.2056,-176.5001 777.2057,-183.5001"/>
</g>
</g>
</svg>
