<?xml version="1.0" encoding="UTF-8" standalone="no"?>
<!DOCTYPE svg PUBLIC "-//W3C//DTD SVG 1.1//EN"
 "http://www.w3.org/Graphics/SVG/1.1/DTD/svg11.dtd">
<!-- Generated by graphviz version 2.40.1 (20161225.0304)
 -->
<!-- Title: dependencies Pages: 1 -->
<svg width="1336pt" height="211pt"
 viewBox="0.00 0.00 1336.00 211.00" xmlns="http://www.w3.org/2000/svg" xmlns:xlink="http://www.w3.org/1999/xlink">
<g id="graph0" class="graph" transform="scale(1 1) rotate(0) translate(4 207)">
<title>dependencies</title>
<polygon fill="#ffffff" stroke="transparent" points="-4,4 -4,-207 1332,-207 1332,4 -4,4"/>
<text text-anchor="start" x="643.0091" y="-42.4" font-family="sans-serif" font-weight="bold" font-size="14.00" fill="#000000">Legend</text>
<polygon fill="#ffffb3" stroke="transparent" points="430,-10 430,-30 450,-30 450,-10 430,-10"/>
<text text-anchor="start" x="453.629" y="-15.4" font-family="sans-serif" font-size="14.00" fill="#000000"> &#160;Declarations</text>
<polygon fill="#8dd3c7" stroke="transparent" points="543,-10 543,-30 563,-30 563,-10 543,-10"/>
<text text-anchor="start" x="566.7251" y="-15.4" font-family="sans-serif" font-size="14.00" fill="#000000"> &#160;Module</text>
<polygon fill="#80b1d3" stroke="transparent" points="629,-10 629,-30 649,-30 649,-10 629,-10"/>
<text text-anchor="start" x="652.7812" y="-15.4" font-family="sans-serif" font-size="14.00" fill="#000000"> &#160;Bootstrap</text>
<polygon fill="#fdb462" stroke="transparent" points="726,-10 726,-30 746,-30 746,-10 726,-10"/>
<text text-anchor="start" x="749.6732" y="-15.4" font-family="sans-serif" font-size="14.00" fill="#000000"> &#160;Providers</text>
<polygon fill="#fb8072" stroke="transparent" points="822,-10 822,-30 842,-30 842,-10 822,-10"/>
<text text-anchor="start" x="845.7258" y="-15.4" font-family="sans-serif" font-size="14.00" fill="#000000"> &#160;Exports</text>
<g id="clust1" class="cluster">
<title>cluster_CourseModule</title>
<polygon fill="none" stroke="#000000" stroke-dasharray="1,5" points="8,-70 8,-195 1320,-195 1320,-70 8,-70"/>
</g>
<g id="clust2" class="cluster">
<title>cluster_CourseModule_declarations</title>
<polygon fill="none" stroke="#000000" points="459,-78 459,-130 1312,-130 1312,-78 459,-78"/>
</g>
<g id="clust8" class="cluster">
<title>cluster_CourseModule_imports</title>
<polygon fill="none" stroke="#000000" points="186,-78 186,-130 451,-130 451,-78 186,-78"/>
</g>
<g id="clust11" class="cluster">
<title>cluster_CourseModule_providers</title>
<polygon fill="none" stroke="#000000" points="16,-78 16,-130 178,-130 178,-78 16,-78"/>
</g>
<!-- CourseCreateComponent -->
<g id="node1" class="node">
<title>CourseCreateComponent</title>
<polygon fill="#ffffb3" stroke="#000000" points="1303.5211,-122 1146.4789,-122 1146.4789,-86 1303.5211,-86 1303.5211,-122"/>
<text text-anchor="middle" x="1225" y="-99.8" font-family="Times,serif" font-size="14.00" fill="#000000">CourseCreateComponent</text>
</g>
<!-- CourseModule -->
<g id="node6" class="node">
<title>CourseModule</title>
<polygon fill="#8dd3c7" stroke="#000000" points="688.7064,-187 685.7064,-191 664.7064,-191 661.7064,-187 589.2936,-187 589.2936,-151 688.7064,-151 688.7064,-187"/>
<text text-anchor="middle" x="639" y="-164.8" font-family="Times,serif" font-size="14.00" fill="#000000">CourseModule</text>
</g>
<!-- CourseCreateComponent&#45;&gt;CourseModule -->
<g id="edge1" class="edge">
<title>CourseCreateComponent&#45;&gt;CourseModule</title>
<path fill="none" stroke="#000000" d="M1225,-122.2921C1225,-144.2057 1225,-178 1225,-178 1225,-178 698.7092,-178 698.7092,-178"/>
<polygon fill="#000000" stroke="#000000" points="698.7093,-174.5001 688.7092,-178 698.7092,-181.5001 698.7093,-174.5001"/>
</g>
<!-- CourseIndivComponent -->
<g id="node2" class="node">
<title>CourseIndivComponent</title>
<polygon fill="#ffffb3" stroke="#000000" points="1128.0407,-122 977.9593,-122 977.9593,-86 1128.0407,-86 1128.0407,-122"/>
<text text-anchor="middle" x="1053" y="-99.8" font-family="Times,serif" font-size="14.00" fill="#000000">CourseIndivComponent</text>
</g>
<!-- CourseIndivComponent&#45;&gt;CourseModule -->
<g id="edge2" class="edge">
<title>CourseIndivComponent&#45;&gt;CourseModule</title>
<path fill="none" stroke="#000000" d="M1053,-122.1061C1053,-141.3391 1053,-169 1053,-169 1053,-169 698.9381,-169 698.9381,-169"/>
<polygon fill="#000000" stroke="#000000" points="698.9381,-165.5001 688.9381,-169 698.938,-172.5001 698.9381,-165.5001"/>
</g>
<!-- CourseEditComponent -->
<g id="node3" class="node">
<title>CourseEditComponent</title>
<polygon fill="#ffffb3" stroke="#000000" points="960.323,-122 815.677,-122 815.677,-86 960.323,-86 960.323,-122"/>
<text text-anchor="middle" x="888" y="-99.8" font-family="Times,serif" font-size="14.00" fill="#000000">CourseEditComponent</text>
</g>
<!-- CourseEditComponent&#45;&gt;CourseModule -->
<g id="edge3" class="edge">
<title>CourseEditComponent&#45;&gt;CourseModule</title>
<path fill="none" stroke="#000000" d="M888,-122.027C888,-138.3976 888,-160 888,-160 888,-160 698.7904,-160 698.7904,-160"/>
<polygon fill="#000000" stroke="#000000" points="698.7904,-156.5001 688.7904,-160 698.7904,-163.5001 698.7904,-156.5001"/>
</g>
<!-- CourseListComponent -->
<g id="node4" class="node">
<title>CourseListComponent</title>
<polygon fill="#ffffb3" stroke="#000000" points="797.2674,-122 654.7326,-122 654.7326,-86 797.2674,-86 797.2674,-122"/>
<text text-anchor="middle" x="726" y="-99.8" font-family="Times,serif" font-size="14.00" fill="#000000">CourseListComponent</text>
</g>
<!-- CourseListComponent&#45;&gt;CourseModule -->
<g id="edge4" class="edge">
<title>CourseListComponent&#45;&gt;CourseModule</title>
<path fill="none" stroke="#000000" d="M671.6098,-122.1061C671.6098,-122.1061 671.6098,-140.991 671.6098,-140.991"/>
<polygon fill="#000000" stroke="#000000" points="668.1098,-140.9909 671.6098,-150.991 675.1098,-140.991 668.1098,-140.9909"/>
</g>
<!-- CourseScenarioComponent -->
<g id="node5" class="node">
<title>CourseScenarioComponent</title>
<polygon fill="#ffffb3" stroke="#000000" points="636.9664,-122 467.0336,-122 467.0336,-86 636.9664,-86 636.9664,-122"/>
<text text-anchor="middle" x="552" y="-99.8" font-family="Times,serif" font-size="14.00" fill="#000000">CourseScenarioComponent</text>
</g>
<!-- CourseScenarioComponent&#45;&gt;CourseModule -->
<g id="edge5" class="edge">
<title>CourseScenarioComponent&#45;&gt;CourseModule</title>
<path fill="none" stroke="#000000" d="M613.19,-122.1061C613.19,-122.1061 613.19,-140.991 613.19,-140.991"/>
<polygon fill="#000000" stroke="#000000" points="609.6901,-140.9909 613.19,-150.991 616.6901,-140.991 609.6901,-140.9909"/>
</g>
<!-- SharedModule -->
<g id="node7" class="node">
<title>SharedModule</title>
<polygon fill="#8dd3c7" stroke="#000000" points="443.4231,-122 440.4231,-126 419.4231,-126 416.4231,-122 344.5769,-122 344.5769,-86 443.4231,-86 443.4231,-122"/>
<text text-anchor="middle" x="394" y="-99.8" font-family="Times,serif" font-size="14.00" fill="#000000">SharedModule</text>
</g>
<!-- SharedModule&#45;&gt;CourseModule -->
<g id="edge6" class="edge">
<title>SharedModule&#45;&gt;CourseModule</title>
<path fill="none" stroke="#000000" d="M394,-122.027C394,-138.3976 394,-160 394,-160 394,-160 579.1253,-160 579.1253,-160"/>
<polygon fill="#000000" stroke="#000000" points="579.1253,-163.5001 589.1253,-160 579.1253,-156.5001 579.1253,-163.5001"/>
</g>
<!-- CourseRouteModule -->
<g id="node8" class="node">
<title>CourseRouteModule</title>
<polygon fill="#8dd3c7" stroke="#000000" points="326.1485,-122 323.1485,-126 302.1485,-126 299.1485,-122 193.8515,-122 193.8515,-86 326.1485,-86 326.1485,-122"/>
<text text-anchor="middle" x="260" y="-99.8" font-family="Times,serif" font-size="14.00" fill="#000000">CourseRouteModule</text>
</g>
<!-- CourseRouteModule&#45;&gt;CourseModule -->
<g id="edge7" class="edge">
<title>CourseRouteModule&#45;&gt;CourseModule</title>
<path fill="none" stroke="#000000" d="M260,-122.1061C260,-141.3391 260,-169 260,-169 260,-169 579.0626,-169 579.0626,-169"/>
<polygon fill="#000000" stroke="#000000" points="579.0627,-172.5001 589.0626,-169 579.0626,-165.5001 579.0627,-172.5001"/>
</g>
<!-- CourseResolver -->
<g id="node9" class="node">
<title>CourseResolver</title>
<ellipse fill="#fdb462" stroke="#000000" cx="97" cy="-104" rx="72.9315" ry="18"/>
<text text-anchor="middle" x="97" y="-99.8" font-family="Times,serif" font-size="14.00" fill="#000000">CourseResolver</text>
</g>
<!-- CourseResolver&#45;&gt;CourseModule -->
<g id="edge8" class="edge">
<title>CourseResolver&#45;&gt;CourseModule</title>
<path fill="none" stroke="#000000" d="M97,-122.2921C97,-144.2057 97,-178 97,-178 97,-178 578.9814,-178 578.9814,-178"/>
<polygon fill="#000000" stroke="#000000" points="578.9815,-181.5001 588.9814,-178 578.9814,-174.5001 578.9815,-181.5001"/>
</g>
</g>
</svg>
