<?xml version="1.0" encoding="UTF-8" standalone="no"?>
<!DOCTYPE svg PUBLIC "-//W3C//DTD SVG 1.1//EN"
 "http://www.w3.org/Graphics/SVG/1.1/DTD/svg11.dtd">
<!-- Generated by graphviz version 2.40.1 (20161225.0304)
 -->
<!-- Title: dependencies Pages: 1 -->
<svg width="1185pt" height="211pt"
 viewBox="0.00 0.00 1185.00 211.00" xmlns="http://www.w3.org/2000/svg" xmlns:xlink="http://www.w3.org/1999/xlink">
<g id="graph0" class="graph" transform="scale(1 1) rotate(0) translate(4 207)">
<title>dependencies</title>
<polygon fill="#ffffff" stroke="transparent" points="-4,4 -4,-207 1181,-207 1181,4 -4,4"/>
<text text-anchor="start" x="567.5091" y="-42.4" font-family="sans-serif" font-weight="bold" font-size="14.00" fill="#000000">Legend</text>
<polygon fill="#ffffb3" stroke="transparent" points="354.5,-10 354.5,-30 374.5,-30 374.5,-10 354.5,-10"/>
<text text-anchor="start" x="378.129" y="-15.4" font-family="sans-serif" font-size="14.00" fill="#000000"> &#160;Declarations</text>
<polygon fill="#8dd3c7" stroke="transparent" points="467.5,-10 467.5,-30 487.5,-30 487.5,-10 467.5,-10"/>
<text text-anchor="start" x="491.2251" y="-15.4" font-family="sans-serif" font-size="14.00" fill="#000000"> &#160;Module</text>
<polygon fill="#80b1d3" stroke="transparent" points="553.5,-10 553.5,-30 573.5,-30 573.5,-10 553.5,-10"/>
<text text-anchor="start" x="577.2812" y="-15.4" font-family="sans-serif" font-size="14.00" fill="#000000"> &#160;Bootstrap</text>
<polygon fill="#fdb462" stroke="transparent" points="650.5,-10 650.5,-30 670.5,-30 670.5,-10 650.5,-10"/>
<text text-anchor="start" x="674.1732" y="-15.4" font-family="sans-serif" font-size="14.00" fill="#000000"> &#160;Providers</text>
<polygon fill="#fb8072" stroke="transparent" points="746.5,-10 746.5,-30 766.5,-30 766.5,-10 746.5,-10"/>
<text text-anchor="start" x="770.2258" y="-15.4" font-family="sans-serif" font-size="14.00" fill="#000000"> &#160;Exports</text>
<g id="clust1" class="cluster">
<title>cluster_CourseModule</title>
<polygon fill="none" stroke="#000000" stroke-dasharray="1,5" points="8,-70 8,-195 1169,-195 1169,-70 8,-70"/>
</g>
<g id="clust2" class="cluster">
<title>cluster_CourseModule_declarations</title>
<polygon fill="none" stroke="#000000" points="308,-78 308,-130 1161,-130 1161,-78 308,-78"/>
</g>
<g id="clust8" class="cluster">
<title>cluster_CourseModule_imports</title>
<polygon fill="none" stroke="#000000" points="186,-78 186,-130 300,-130 300,-78 186,-78"/>
</g>
<g id="clust11" class="cluster">
<title>cluster_CourseModule_providers</title>
<polygon fill="none" stroke="#000000" points="16,-78 16,-130 178,-130 178,-78 16,-78"/>
</g>
<!-- CourseCreateComponent -->
<g id="node1" class="node">
<title>CourseCreateComponent</title>
<polygon fill="#ffffb3" stroke="#000000" points="1152.5211,-122 995.4789,-122 995.4789,-86 1152.5211,-86 1152.5211,-122"/>
<text text-anchor="middle" x="1074" y="-99.8" font-family="Times,serif" font-size="14.00" fill="#000000">CourseCreateComponent</text>
</g>
<!-- CourseModule -->
<g id="node6" class="node">
<title>CourseModule</title>
<polygon fill="#8dd3c7" stroke="#000000" points="624.7064,-187 621.7064,-191 600.7064,-191 597.7064,-187 525.2936,-187 525.2936,-151 624.7064,-151 624.7064,-187"/>
<text text-anchor="middle" x="575" y="-164.8" font-family="Times,serif" font-size="14.00" fill="#000000">CourseModule</text>
</g>
<!-- CourseCreateComponent&#45;&gt;CourseModule -->
<g id="edge1" class="edge">
<title>CourseCreateComponent&#45;&gt;CourseModule</title>
<path fill="none" stroke="#000000" d="M1074,-122.2921C1074,-144.2057 1074,-178 1074,-178 1074,-178 634.6703,-178 634.6703,-178"/>
<polygon fill="#000000" stroke="#000000" points="634.6704,-174.5001 624.6703,-178 634.6703,-181.5001 634.6704,-174.5001"/>
</g>
<!-- CourseIndivComponent -->
<g id="node2" class="node">
<title>CourseIndivComponent</title>
<polygon fill="#ffffb3" stroke="#000000" points="977.0407,-122 826.9593,-122 826.9593,-86 977.0407,-86 977.0407,-122"/>
<text text-anchor="middle" x="902" y="-99.8" font-family="Times,serif" font-size="14.00" fill="#000000">CourseIndivComponent</text>
</g>
<!-- CourseIndivComponent&#45;&gt;CourseModule -->
<g id="edge2" class="edge">
<title>CourseIndivComponent&#45;&gt;CourseModule</title>
<path fill="none" stroke="#000000" d="M902,-122.1061C902,-141.3391 902,-169 902,-169 902,-169 634.6643,-169 634.6643,-169"/>
<polygon fill="#000000" stroke="#000000" points="634.6643,-165.5001 624.6643,-169 634.6642,-172.5001 634.6643,-165.5001"/>
</g>
<!-- CourseEditComponent -->
<g id="node3" class="node">
<title>CourseEditComponent</title>
<polygon fill="#ffffb3" stroke="#000000" points="809.323,-122 664.677,-122 664.677,-86 809.323,-86 809.323,-122"/>
<text text-anchor="middle" x="737" y="-99.8" font-family="Times,serif" font-size="14.00" fill="#000000">CourseEditComponent</text>
</g>
<!-- CourseEditComponent&#45;&gt;CourseModule -->
<g id="edge3" class="edge">
<title>CourseEditComponent&#45;&gt;CourseModule</title>
<path fill="none" stroke="#000000" d="M737,-122.027C737,-138.3976 737,-160 737,-160 737,-160 634.9272,-160 634.9272,-160"/>
<polygon fill="#000000" stroke="#000000" points="634.9272,-156.5001 624.9272,-160 634.9272,-163.5001 634.9272,-156.5001"/>
</g>
<!-- CourseListComponent -->
<g id="node4" class="node">
<title>CourseListComponent</title>
<polygon fill="#ffffb3" stroke="#000000" points="646.2674,-122 503.7326,-122 503.7326,-86 646.2674,-86 646.2674,-122"/>
<text text-anchor="middle" x="575" y="-99.8" font-family="Times,serif" font-size="14.00" fill="#000000">CourseListComponent</text>
</g>
<!-- CourseListComponent&#45;&gt;CourseModule -->
<g id="edge4" class="edge">
<title>CourseListComponent&#45;&gt;CourseModule</title>
<path fill="none" stroke="#000000" d="M575,-122.1061C575,-122.1061 575,-140.991 575,-140.991"/>
<polygon fill="#000000" stroke="#000000" points="571.5001,-140.9909 575,-150.991 578.5001,-140.991 571.5001,-140.9909"/>
</g>
<!-- CourseScenarioComponent -->
<g id="node5" class="node">
<title>CourseScenarioComponent</title>
<polygon fill="#ffffb3" stroke="#000000" points="485.9664,-122 316.0336,-122 316.0336,-86 485.9664,-86 485.9664,-122"/>
<text text-anchor="middle" x="401" y="-99.8" font-family="Times,serif" font-size="14.00" fill="#000000">CourseScenarioComponent</text>
</g>
<!-- CourseScenarioComponent&#45;&gt;CourseModule -->
<g id="edge5" class="edge">
<title>CourseScenarioComponent&#45;&gt;CourseModule</title>
<path fill="none" stroke="#000000" d="M401,-122.027C401,-138.3976 401,-160 401,-160 401,-160 515.1386,-160 515.1386,-160"/>
<polygon fill="#000000" stroke="#000000" points="515.1386,-163.5001 525.1386,-160 515.1385,-156.5001 515.1386,-163.5001"/>
</g>
<!-- SharedModule -->
<g id="node7" class="node">
<title>SharedModule</title>
<polygon fill="#8dd3c7" stroke="#000000" points="292.4231,-122 289.4231,-126 268.4231,-126 265.4231,-122 193.5769,-122 193.5769,-86 292.4231,-86 292.4231,-122"/>
<text text-anchor="middle" x="243" y="-99.8" font-family="Times,serif" font-size="14.00" fill="#000000">SharedModule</text>
</g>
<!-- SharedModule&#45;&gt;CourseModule -->
<g id="edge6" class="edge">
<title>SharedModule&#45;&gt;CourseModule</title>
<path fill="none" stroke="#000000" d="M243,-122.1061C243,-141.3391 243,-169 243,-169 243,-169 515.2962,-169 515.2962,-169"/>
<polygon fill="#000000" stroke="#000000" points="515.2963,-172.5001 525.2962,-169 515.2962,-165.5001 515.2963,-172.5001"/>
</g>
<!-- CourseResolver -->
<g id="node8" class="node">
<title>CourseResolver</title>
<ellipse fill="#fdb462" stroke="#000000" cx="97" cy="-104" rx="72.9315" ry="18"/>
<text text-anchor="middle" x="97" y="-99.8" font-family="Times,serif" font-size="14.00" fill="#000000">CourseResolver</text>
</g>
<!-- CourseResolver&#45;&gt;CourseModule -->
<g id="edge7" class="edge">
<title>CourseResolver&#45;&gt;CourseModule</title>
<path fill="none" stroke="#000000" d="M97,-122.2921C97,-144.2057 97,-178 97,-178 97,-178 515.1983,-178 515.1983,-178"/>
<polygon fill="#000000" stroke="#000000" points="515.1984,-181.5001 525.1983,-178 515.1983,-174.5001 515.1984,-181.5001"/>
</g>
</g>
</svg>
