<?xml version="1.0" encoding="UTF-8" standalone="no"?>
<!DOCTYPE svg PUBLIC "-//W3C//DTD SVG 1.1//EN"
 "http://www.w3.org/Graphics/SVG/1.1/DTD/svg11.dtd">
<!-- Generated by graphviz version 2.40.1 (20161225.0304)
 -->
<!-- Title: dependencies Pages: 1 -->
<svg width="824pt" height="211pt"
 viewBox="0.00 0.00 824.00 211.00" xmlns="http://www.w3.org/2000/svg" xmlns:xlink="http://www.w3.org/1999/xlink">
<g id="graph0" class="graph" transform="scale(1 1) rotate(0) translate(4 207)">
<title>dependencies</title>
<polygon fill="#ffffff" stroke="transparent" points="-4,4 -4,-207 820,-207 820,4 -4,4"/>
<text text-anchor="start" x="387.0091" y="-42.4" font-family="sans-serif" font-weight="bold" font-size="14.00" fill="#000000">Legend</text>
<polygon fill="#ffffb3" stroke="transparent" points="174,-10 174,-30 194,-30 194,-10 174,-10"/>
<text text-anchor="start" x="197.629" y="-15.4" font-family="sans-serif" font-size="14.00" fill="#000000"> &#160;Declarations</text>
<polygon fill="#8dd3c7" stroke="transparent" points="287,-10 287,-30 307,-30 307,-10 287,-10"/>
<text text-anchor="start" x="310.7251" y="-15.4" font-family="sans-serif" font-size="14.00" fill="#000000"> &#160;Module</text>
<polygon fill="#80b1d3" stroke="transparent" points="373,-10 373,-30 393,-30 393,-10 373,-10"/>
<text text-anchor="start" x="396.7812" y="-15.4" font-family="sans-serif" font-size="14.00" fill="#000000"> &#160;Bootstrap</text>
<polygon fill="#fdb462" stroke="transparent" points="470,-10 470,-30 490,-30 490,-10 470,-10"/>
<text text-anchor="start" x="493.6732" y="-15.4" font-family="sans-serif" font-size="14.00" fill="#000000"> &#160;Providers</text>
<polygon fill="#fb8072" stroke="transparent" points="566,-10 566,-30 586,-30 586,-10 566,-10"/>
<text text-anchor="start" x="589.7258" y="-15.4" font-family="sans-serif" font-size="14.00" fill="#000000"> &#160;Exports</text>
<g id="clust1" class="cluster">
<title>cluster_ProfileModule</title>
<polygon fill="none" stroke="#000000" stroke-dasharray="1,5" points="8,-70 8,-195 808,-195 808,-70 8,-70"/>
</g>
<g id="clust2" class="cluster">
<title>cluster_ProfileModule_declarations</title>
<polygon fill="none" stroke="#000000" points="444,-78 444,-130 800,-130 800,-78 444,-78"/>
</g>
<g id="clust5" class="cluster">
<title>cluster_ProfileModule_imports</title>
<polygon fill="none" stroke="#000000" points="172,-78 172,-130 436,-130 436,-78 172,-78"/>
</g>
<g id="clust8" class="cluster">
<title>cluster_ProfileModule_providers</title>
<polygon fill="none" stroke="#000000" points="16,-78 16,-130 164,-130 164,-78 16,-78"/>
</g>
<!-- UserProfileComponent -->
<g id="node1" class="node">
<title>UserProfileComponent</title>
<polygon fill="#ffffb3" stroke="#000000" points="791.8585,-122 646.1415,-122 646.1415,-86 791.8585,-86 791.8585,-122"/>
<text text-anchor="middle" x="719" y="-99.8" font-family="Times,serif" font-size="14.00" fill="#000000">UserProfileComponent</text>
</g>
<!-- ProfileModule -->
<g id="node3" class="node">
<title>ProfileModule</title>
<polygon fill="#8dd3c7" stroke="#000000" points="427.65,-187 424.65,-191 403.65,-191 400.65,-187 330.35,-187 330.35,-151 427.65,-151 427.65,-187"/>
<text text-anchor="middle" x="379" y="-164.8" font-family="Times,serif" font-size="14.00" fill="#000000">ProfileModule</text>
</g>
<!-- UserProfileComponent&#45;&gt;ProfileModule -->
<g id="edge1" class="edge">
<title>UserProfileComponent&#45;&gt;ProfileModule</title>
<path fill="none" stroke="#000000" d="M719,-122.2843C719,-143.3211 719,-175 719,-175 719,-175 437.7137,-175 437.7137,-175"/>
<polygon fill="#000000" stroke="#000000" points="437.7137,-171.5001 427.7137,-175 437.7137,-178.5001 437.7137,-171.5001"/>
</g>
<!-- UpdatePasswordComponent -->
<g id="node2" class="node">
<title>UpdatePasswordComponent</title>
<polygon fill="#ffffb3" stroke="#000000" points="627.9129,-122 452.0871,-122 452.0871,-86 627.9129,-86 627.9129,-122"/>
<text text-anchor="middle" x="540" y="-99.8" font-family="Times,serif" font-size="14.00" fill="#000000">UpdatePasswordComponent</text>
</g>
<!-- UpdatePasswordComponent&#45;&gt;ProfileModule -->
<g id="edge2" class="edge">
<title>UpdatePasswordComponent&#45;&gt;ProfileModule</title>
<path fill="none" stroke="#000000" d="M540,-122.0225C540,-139.3734 540,-163 540,-163 540,-163 437.7422,-163 437.7422,-163"/>
<polygon fill="#000000" stroke="#000000" points="437.7423,-159.5001 427.7422,-163 437.7422,-166.5001 437.7423,-159.5001"/>
</g>
<!-- SharedModule -->
<g id="node4" class="node">
<title>SharedModule</title>
<polygon fill="#8dd3c7" stroke="#000000" points="428.4231,-122 425.4231,-126 404.4231,-126 401.4231,-122 329.5769,-122 329.5769,-86 428.4231,-86 428.4231,-122"/>
<text text-anchor="middle" x="379" y="-99.8" font-family="Times,serif" font-size="14.00" fill="#000000">SharedModule</text>
</g>
<!-- SharedModule&#45;&gt;ProfileModule -->
<g id="edge3" class="edge">
<title>SharedModule&#45;&gt;ProfileModule</title>
<path fill="none" stroke="#000000" d="M379,-122.1061C379,-122.1061 379,-140.991 379,-140.991"/>
<polygon fill="#000000" stroke="#000000" points="375.5001,-140.9909 379,-150.991 382.5001,-140.991 375.5001,-140.9909"/>
</g>
<!-- ProfileRouteModule -->
<g id="node5" class="node">
<title>ProfileRouteModule</title>
<polygon fill="#8dd3c7" stroke="#000000" points="311.5912,-122 308.5912,-126 287.5912,-126 284.5912,-122 180.4088,-122 180.4088,-86 311.5912,-86 311.5912,-122"/>
<text text-anchor="middle" x="246" y="-99.8" font-family="Times,serif" font-size="14.00" fill="#000000">ProfileRouteModule</text>
</g>
<!-- ProfileRouteModule&#45;&gt;ProfileModule -->
<g id="edge4" class="edge">
<title>ProfileRouteModule&#45;&gt;ProfileModule</title>
<path fill="none" stroke="#000000" d="M246,-122.0225C246,-139.3734 246,-163 246,-163 246,-163 320.2309,-163 320.2309,-163"/>
<polygon fill="#000000" stroke="#000000" points="320.231,-166.5001 330.2309,-163 320.2309,-159.5001 320.231,-166.5001"/>
</g>
<!-- ProfileService -->
<g id="node6" class="node">
<title>ProfileService</title>
<ellipse fill="#fdb462" stroke="#000000" cx="90" cy="-104" rx="66.0454" ry="18"/>
<text text-anchor="middle" x="90" y="-99.8" font-family="Times,serif" font-size="14.00" fill="#000000">ProfileService</text>
</g>
<!-- ProfileService&#45;&gt;ProfileModule -->
<g id="edge5" class="edge">
<title>ProfileService&#45;&gt;ProfileModule</title>
<path fill="none" stroke="#000000" d="M90,-122.2843C90,-143.3211 90,-175 90,-175 90,-175 320.3019,-175 320.3019,-175"/>
<polygon fill="#000000" stroke="#000000" points="320.3019,-178.5001 330.3019,-175 320.3019,-171.5001 320.3019,-178.5001"/>
</g>
</g>
</svg>
