<?xml version="1.0" encoding="UTF-8" standalone="no"?>
<!DOCTYPE svg PUBLIC "-//W3C//DTD SVG 1.1//EN"
 "http://www.w3.org/Graphics/SVG/1.1/DTD/svg11.dtd">
<!-- Generated by graphviz version 2.40.1 (20161225.0304)
 -->
<!-- Title: dependencies Pages: 1 -->
<svg width="674pt" height="211pt"
 viewBox="0.00 0.00 674.00 211.00" xmlns="http://www.w3.org/2000/svg" xmlns:xlink="http://www.w3.org/1999/xlink">
<g id="graph0" class="graph" transform="scale(1 1) rotate(0) translate(4 207)">
<title>dependencies</title>
<polygon fill="#ffffff" stroke="transparent" points="-4,4 -4,-207 670,-207 670,4 -4,4"/>
<text text-anchor="start" x="312.0091" y="-42.4" font-family="sans-serif" font-weight="bold" font-size="14.00" fill="#000000">Legend</text>
<polygon fill="#ffffb3" stroke="transparent" points="99,-10 99,-30 119,-30 119,-10 99,-10"/>
<text text-anchor="start" x="122.629" y="-15.4" font-family="sans-serif" font-size="14.00" fill="#000000"> &#160;Declarations</text>
<polygon fill="#8dd3c7" stroke="transparent" points="212,-10 212,-30 232,-30 232,-10 212,-10"/>
<text text-anchor="start" x="235.7251" y="-15.4" font-family="sans-serif" font-size="14.00" fill="#000000"> &#160;Module</text>
<polygon fill="#80b1d3" stroke="transparent" points="298,-10 298,-30 318,-30 318,-10 298,-10"/>
<text text-anchor="start" x="321.7812" y="-15.4" font-family="sans-serif" font-size="14.00" fill="#000000"> &#160;Bootstrap</text>
<polygon fill="#fdb462" stroke="transparent" points="395,-10 395,-30 415,-30 415,-10 395,-10"/>
<text text-anchor="start" x="418.6732" y="-15.4" font-family="sans-serif" font-size="14.00" fill="#000000"> &#160;Providers</text>
<polygon fill="#fb8072" stroke="transparent" points="491,-10 491,-30 511,-30 511,-10 491,-10"/>
<text text-anchor="start" x="514.7258" y="-15.4" font-family="sans-serif" font-size="14.00" fill="#000000"> &#160;Exports</text>
<g id="clust1" class="cluster">
<title>cluster_ProfileModule</title>
<polygon fill="none" stroke="#000000" stroke-dasharray="1,5" points="8,-70 8,-195 658,-195 658,-70 8,-70"/>
</g>
<g id="clust2" class="cluster">
<title>cluster_ProfileModule_declarations</title>
<polygon fill="none" stroke="#000000" points="294,-78 294,-130 650,-130 650,-78 294,-78"/>
</g>
<g id="clust5" class="cluster">
<title>cluster_ProfileModule_imports</title>
<polygon fill="none" stroke="#000000" points="172,-78 172,-130 286,-130 286,-78 172,-78"/>
</g>
<g id="clust8" class="cluster">
<title>cluster_ProfileModule_providers</title>
<polygon fill="none" stroke="#000000" points="16,-78 16,-130 164,-130 164,-78 16,-78"/>
</g>
<!-- UserProfileComponent -->
<g id="node1" class="node">
<title>UserProfileComponent</title>
<polygon fill="#ffffb3" stroke="#000000" points="641.8585,-122 496.1415,-122 496.1415,-86 641.8585,-86 641.8585,-122"/>
<text text-anchor="middle" x="569" y="-99.8" font-family="Times,serif" font-size="14.00" fill="#000000">UserProfileComponent</text>
</g>
<!-- ProfileModule -->
<g id="node3" class="node">
<title>ProfileModule</title>
<polygon fill="#8dd3c7" stroke="#000000" points="357.65,-187 354.65,-191 333.65,-191 330.65,-187 260.35,-187 260.35,-151 357.65,-151 357.65,-187"/>
<text text-anchor="middle" x="309" y="-164.8" font-family="Times,serif" font-size="14.00" fill="#000000">ProfileModule</text>
</g>
<!-- UserProfileComponent&#45;&gt;ProfileModule -->
<g id="edge1" class="edge">
<title>UserProfileComponent&#45;&gt;ProfileModule</title>
<path fill="none" stroke="#000000" d="M569,-122.1061C569,-141.3391 569,-169 569,-169 569,-169 367.904,-169 367.904,-169"/>
<polygon fill="#000000" stroke="#000000" points="367.904,-165.5001 357.904,-169 367.904,-172.5001 367.904,-165.5001"/>
</g>
<!-- UpdatePasswordComponent -->
<g id="node2" class="node">
<title>UpdatePasswordComponent</title>
<polygon fill="#ffffb3" stroke="#000000" points="477.9129,-122 302.0871,-122 302.0871,-86 477.9129,-86 477.9129,-122"/>
<text text-anchor="middle" x="390" y="-99.8" font-family="Times,serif" font-size="14.00" fill="#000000">UpdatePasswordComponent</text>
</g>
<!-- UpdatePasswordComponent&#45;&gt;ProfileModule -->
<g id="edge2" class="edge">
<title>UpdatePasswordComponent&#45;&gt;ProfileModule</title>
<path fill="none" stroke="#000000" d="M330.0593,-122.1061C330.0593,-122.1061 330.0593,-140.991 330.0593,-140.991"/>
<polygon fill="#000000" stroke="#000000" points="326.5593,-140.9909 330.0593,-150.991 333.5593,-140.991 326.5593,-140.9909"/>
</g>
<!-- SharedModule -->
<g id="node4" class="node">
<title>SharedModule</title>
<polygon fill="#8dd3c7" stroke="#000000" points="278.4231,-122 275.4231,-126 254.4231,-126 251.4231,-122 179.5769,-122 179.5769,-86 278.4231,-86 278.4231,-122"/>
<text text-anchor="middle" x="229" y="-99.8" font-family="Times,serif" font-size="14.00" fill="#000000">SharedModule</text>
</g>
<!-- SharedModule&#45;&gt;ProfileModule -->
<g id="edge3" class="edge">
<title>SharedModule&#45;&gt;ProfileModule</title>
<path fill="none" stroke="#000000" d="M269.1932,-122.1061C269.1932,-122.1061 269.1932,-140.991 269.1932,-140.991"/>
<polygon fill="#000000" stroke="#000000" points="265.6933,-140.9909 269.1932,-150.991 272.6933,-140.991 265.6933,-140.9909"/>
</g>
<!-- ProfileService -->
<g id="node5" class="node">
<title>ProfileService</title>
<ellipse fill="#fdb462" stroke="#000000" cx="90" cy="-104" rx="66.0454" ry="18"/>
<text text-anchor="middle" x="90" y="-99.8" font-family="Times,serif" font-size="14.00" fill="#000000">ProfileService</text>
</g>
<!-- ProfileService&#45;&gt;ProfileModule -->
<g id="edge4" class="edge">
<title>ProfileService&#45;&gt;ProfileModule</title>
<path fill="none" stroke="#000000" d="M90,-122.1061C90,-141.3391 90,-169 90,-169 90,-169 250.1247,-169 250.1247,-169"/>
<polygon fill="#000000" stroke="#000000" points="250.1247,-172.5001 260.1247,-169 250.1247,-165.5001 250.1247,-172.5001"/>
</g>
</g>
</svg>
