<?xml version="1.0" encoding="UTF-8" standalone="no"?>
<!DOCTYPE svg PUBLIC "-//W3C//DTD SVG 1.1//EN"
 "http://www.w3.org/Graphics/SVG/1.1/DTD/svg11.dtd">
<!-- Generated by graphviz version 2.40.1 (20161225.0304)
 -->
<!-- Title: dependencies Pages: 1 -->
<svg width="829pt" height="211pt"
 viewBox="0.00 0.00 829.00 211.00" xmlns="http://www.w3.org/2000/svg" xmlns:xlink="http://www.w3.org/1999/xlink">
<g id="graph0" class="graph" transform="scale(1 1) rotate(0) translate(4 207)">
<title>dependencies</title>
<polygon fill="#ffffff" stroke="transparent" points="-4,4 -4,-207 825,-207 825,4 -4,4"/>
<text text-anchor="start" x="389.5091" y="-42.4" font-family="sans-serif" font-weight="bold" font-size="14.00" fill="#000000">Legend</text>
<polygon fill="#ffffb3" stroke="transparent" points="176.5,-10 176.5,-30 196.5,-30 196.5,-10 176.5,-10"/>
<text text-anchor="start" x="200.129" y="-15.4" font-family="sans-serif" font-size="14.00" fill="#000000"> &#160;Declarations</text>
<polygon fill="#8dd3c7" stroke="transparent" points="289.5,-10 289.5,-30 309.5,-30 309.5,-10 289.5,-10"/>
<text text-anchor="start" x="313.2251" y="-15.4" font-family="sans-serif" font-size="14.00" fill="#000000"> &#160;Module</text>
<polygon fill="#80b1d3" stroke="transparent" points="375.5,-10 375.5,-30 395.5,-30 395.5,-10 375.5,-10"/>
<text text-anchor="start" x="399.2812" y="-15.4" font-family="sans-serif" font-size="14.00" fill="#000000"> &#160;Bootstrap</text>
<polygon fill="#fdb462" stroke="transparent" points="472.5,-10 472.5,-30 492.5,-30 492.5,-10 472.5,-10"/>
<text text-anchor="start" x="496.1732" y="-15.4" font-family="sans-serif" font-size="14.00" fill="#000000"> &#160;Providers</text>
<polygon fill="#fb8072" stroke="transparent" points="568.5,-10 568.5,-30 588.5,-30 588.5,-10 568.5,-10"/>
<text text-anchor="start" x="592.2258" y="-15.4" font-family="sans-serif" font-size="14.00" fill="#000000"> &#160;Exports</text>
<g id="clust1" class="cluster">
<title>cluster_AuthenticationModule</title>
<polygon fill="none" stroke="#000000" stroke-dasharray="1,5" points="8,-70 8,-195 813,-195 813,-70 8,-70"/>
</g>
<g id="clust2" class="cluster">
<title>cluster_AuthenticationModule_declarations</title>
<polygon fill="none" stroke="#000000" points="16,-78 16,-130 805,-130 805,-78 16,-78"/>
</g>
<!-- SigninComponent -->
<g id="node1" class="node">
<title>SigninComponent</title>
<polygon fill="#ffffb3" stroke="#000000" points="796.8962,-122 679.1038,-122 679.1038,-86 796.8962,-86 796.8962,-122"/>
<text text-anchor="middle" x="738" y="-99.8" font-family="Times,serif" font-size="14.00" fill="#000000">SigninComponent</text>
</g>
<!-- AuthenticationModule -->
<g id="node6" class="node">
<title>AuthenticationModule</title>
<polygon fill="#8dd3c7" stroke="#000000" points="531.2534,-187 528.2534,-191 507.2534,-191 504.2534,-187 388.7466,-187 388.7466,-151 531.2534,-151 531.2534,-187"/>
<text text-anchor="middle" x="460" y="-164.8" font-family="Times,serif" font-size="14.00" fill="#000000">AuthenticationModule</text>
</g>
<!-- SigninComponent&#45;&gt;AuthenticationModule -->
<g id="edge1" class="edge">
<title>SigninComponent&#45;&gt;AuthenticationModule</title>
<path fill="none" stroke="#000000" d="M738,-122.1061C738,-141.3391 738,-169 738,-169 738,-169 541.5919,-169 541.5919,-169"/>
<polygon fill="#000000" stroke="#000000" points="541.5919,-165.5001 531.5919,-169 541.5919,-172.5001 541.5919,-165.5001"/>
</g>
<!-- SignupComponent -->
<g id="node2" class="node">
<title>SignupComponent</title>
<polygon fill="#ffffb3" stroke="#000000" points="661.5056,-122 540.4944,-122 540.4944,-86 661.5056,-86 661.5056,-122"/>
<text text-anchor="middle" x="601" y="-99.8" font-family="Times,serif" font-size="14.00" fill="#000000">SignupComponent</text>
</g>
<!-- SignupComponent&#45;&gt;AuthenticationModule -->
<g id="edge2" class="edge">
<title>SignupComponent&#45;&gt;AuthenticationModule</title>
<path fill="none" stroke="#000000" d="M540.1577,-104C532.2946,-104 526.9124,-104 526.9124,-104 526.9124,-104 526.9124,-140.8939 526.9124,-140.8939"/>
<polygon fill="#000000" stroke="#000000" points="523.4124,-140.8938 526.9124,-150.8939 530.4124,-140.8939 523.4124,-140.8938"/>
</g>
<!-- SignoutComponent -->
<g id="node3" class="node">
<title>SignoutComponent</title>
<polygon fill="#ffffb3" stroke="#000000" points="522.3962,-122 397.6038,-122 397.6038,-86 522.3962,-86 522.3962,-122"/>
<text text-anchor="middle" x="460" y="-99.8" font-family="Times,serif" font-size="14.00" fill="#000000">SignoutComponent</text>
</g>
<!-- SignoutComponent&#45;&gt;AuthenticationModule -->
<g id="edge3" class="edge">
<title>SignoutComponent&#45;&gt;AuthenticationModule</title>
<path fill="none" stroke="#000000" d="M460,-122.1061C460,-122.1061 460,-140.991 460,-140.991"/>
<polygon fill="#000000" stroke="#000000" points="456.5001,-140.9909 460,-150.991 463.5001,-140.991 456.5001,-140.9909"/>
</g>
<!-- ForgetPasswordComponent -->
<g id="node4" class="node">
<title>ForgetPasswordComponent</title>
<polygon fill="#ffffb3" stroke="#000000" points="379.535,-122 208.465,-122 208.465,-86 379.535,-86 379.535,-122"/>
<text text-anchor="middle" x="294" y="-99.8" font-family="Times,serif" font-size="14.00" fill="#000000">ForgetPasswordComponent</text>
</g>
<!-- ForgetPasswordComponent&#45;&gt;AuthenticationModule -->
<g id="edge4" class="edge">
<title>ForgetPasswordComponent&#45;&gt;AuthenticationModule</title>
<path fill="none" stroke="#000000" d="M379.7242,-104C387.8245,-104 393.0877,-104 393.0877,-104 393.0877,-104 393.0877,-140.8939 393.0877,-140.8939"/>
<polygon fill="#000000" stroke="#000000" points="389.5877,-140.8938 393.0877,-150.8939 396.5877,-140.8939 389.5877,-140.8938"/>
</g>
<!-- ResetPasswordComponent -->
<g id="node5" class="node">
<title>ResetPasswordComponent</title>
<polygon fill="#ffffb3" stroke="#000000" points="190.087,-122 23.913,-122 23.913,-86 190.087,-86 190.087,-122"/>
<text text-anchor="middle" x="107" y="-99.8" font-family="Times,serif" font-size="14.00" fill="#000000">ResetPasswordComponent</text>
</g>
<!-- ResetPasswordComponent&#45;&gt;AuthenticationModule -->
<g id="edge5" class="edge">
<title>ResetPasswordComponent&#45;&gt;AuthenticationModule</title>
<path fill="none" stroke="#000000" d="M107,-122.1061C107,-141.3391 107,-169 107,-169 107,-169 378.5652,-169 378.5652,-169"/>
<polygon fill="#000000" stroke="#000000" points="378.5652,-172.5001 388.5652,-169 378.5651,-165.5001 378.5652,-172.5001"/>
</g>
</g>
</svg>
