<?xml version="1.0" encoding="UTF-8" standalone="no"?>
<!DOCTYPE svg PUBLIC "-//W3C//DTD SVG 1.1//EN"
 "http://www.w3.org/Graphics/SVG/1.1/DTD/svg11.dtd">
<!-- Generated by graphviz version 2.40.1 (20161225.0304)
 -->
<!-- Title: dependencies Pages: 1 -->
<svg width="830pt" height="211pt"
 viewBox="0.00 0.00 830.00 211.00" xmlns="http://www.w3.org/2000/svg" xmlns:xlink="http://www.w3.org/1999/xlink">
<g id="graph0" class="graph" transform="scale(1 1) rotate(0) translate(4 207)">
<title>dependencies</title>
<polygon fill="#ffffff" stroke="transparent" points="-4,4 -4,-207 826,-207 826,4 -4,4"/>
<text text-anchor="start" x="390.0091" y="-42.4" font-family="sans-serif" font-weight="bold" font-size="14.00" fill="#000000">Legend</text>
<polygon fill="#ffffb3" stroke="transparent" points="177,-10 177,-30 197,-30 197,-10 177,-10"/>
<text text-anchor="start" x="200.629" y="-15.4" font-family="sans-serif" font-size="14.00" fill="#000000"> &#160;Declarations</text>
<polygon fill="#8dd3c7" stroke="transparent" points="290,-10 290,-30 310,-30 310,-10 290,-10"/>
<text text-anchor="start" x="313.7251" y="-15.4" font-family="sans-serif" font-size="14.00" fill="#000000"> &#160;Module</text>
<polygon fill="#80b1d3" stroke="transparent" points="376,-10 376,-30 396,-30 396,-10 376,-10"/>
<text text-anchor="start" x="399.7812" y="-15.4" font-family="sans-serif" font-size="14.00" fill="#000000"> &#160;Bootstrap</text>
<polygon fill="#fdb462" stroke="transparent" points="473,-10 473,-30 493,-30 493,-10 473,-10"/>
<text text-anchor="start" x="496.6732" y="-15.4" font-family="sans-serif" font-size="14.00" fill="#000000"> &#160;Providers</text>
<polygon fill="#fb8072" stroke="transparent" points="569,-10 569,-30 589,-30 589,-10 569,-10"/>
<text text-anchor="start" x="592.7258" y="-15.4" font-family="sans-serif" font-size="14.00" fill="#000000"> &#160;Exports</text>
<g id="clust1" class="cluster">
<title>cluster_AuthenticationModule</title>
<polygon fill="none" stroke="#000000" stroke-dasharray="1,5" points="8,-70 8,-195 814,-195 814,-70 8,-70"/>
</g>
<g id="clust2" class="cluster">
<title>cluster_AuthenticationModule_declarations</title>
<polygon fill="none" stroke="#000000" points="16,-78 16,-130 806,-130 806,-78 16,-78"/>
</g>
<!-- ForgetPasswordComponent -->
<g id="node1" class="node">
<title>ForgetPasswordComponent</title>
<polygon fill="#ffffb3" stroke="#000000" points="797.535,-122 626.465,-122 626.465,-86 797.535,-86 797.535,-122"/>
<text text-anchor="middle" x="712" y="-99.8" font-family="Times,serif" font-size="14.00" fill="#000000">ForgetPasswordComponent</text>
</g>
<!-- AuthenticationModule -->
<g id="node6" class="node">
<title>AuthenticationModule</title>
<polygon fill="#8dd3c7" stroke="#000000" points="436.2534,-187 433.2534,-191 412.2534,-191 409.2534,-187 293.7466,-187 293.7466,-151 436.2534,-151 436.2534,-187"/>
<text text-anchor="middle" x="365" y="-164.8" font-family="Times,serif" font-size="14.00" fill="#000000">AuthenticationModule</text>
</g>
<!-- ForgetPasswordComponent&#45;&gt;AuthenticationModule -->
<g id="edge1" class="edge">
<title>ForgetPasswordComponent&#45;&gt;AuthenticationModule</title>
<path fill="none" stroke="#000000" d="M712,-122.1061C712,-141.3391 712,-169 712,-169 712,-169 446.4779,-169 446.4779,-169"/>
<polygon fill="#000000" stroke="#000000" points="446.4779,-165.5001 436.4779,-169 446.4778,-172.5001 446.4779,-165.5001"/>
</g>
<!-- ResetPasswordComponent -->
<g id="node2" class="node">
<title>ResetPasswordComponent</title>
<polygon fill="#ffffb3" stroke="#000000" points="608.087,-122 441.913,-122 441.913,-86 608.087,-86 608.087,-122"/>
<text text-anchor="middle" x="525" y="-99.8" font-family="Times,serif" font-size="14.00" fill="#000000">ResetPasswordComponent</text>
</g>
<!-- ResetPasswordComponent&#45;&gt;AuthenticationModule -->
<g id="edge2" class="edge">
<title>ResetPasswordComponent&#45;&gt;AuthenticationModule</title>
<path fill="none" stroke="#000000" d="M441.7913,-104C434.7005,-104 430.1624,-104 430.1624,-104 430.1624,-104 430.1624,-140.8939 430.1624,-140.8939"/>
<polygon fill="#000000" stroke="#000000" points="426.6624,-140.8938 430.1624,-150.8939 433.6624,-140.8939 426.6624,-140.8938"/>
</g>
<!-- SigninComponent -->
<g id="node3" class="node">
<title>SigninComponent</title>
<polygon fill="#ffffb3" stroke="#000000" points="423.8962,-122 306.1038,-122 306.1038,-86 423.8962,-86 423.8962,-122"/>
<text text-anchor="middle" x="365" y="-99.8" font-family="Times,serif" font-size="14.00" fill="#000000">SigninComponent</text>
</g>
<!-- SigninComponent&#45;&gt;AuthenticationModule -->
<g id="edge3" class="edge">
<title>SigninComponent&#45;&gt;AuthenticationModule</title>
<path fill="none" stroke="#000000" d="M365,-122.1061C365,-122.1061 365,-140.991 365,-140.991"/>
<polygon fill="#000000" stroke="#000000" points="361.5001,-140.9909 365,-150.991 368.5001,-140.991 361.5001,-140.9909"/>
</g>
<!-- SignoutComponent -->
<g id="node4" class="node">
<title>SignoutComponent</title>
<polygon fill="#ffffb3" stroke="#000000" points="288.3962,-122 163.6038,-122 163.6038,-86 288.3962,-86 288.3962,-122"/>
<text text-anchor="middle" x="226" y="-99.8" font-family="Times,serif" font-size="14.00" fill="#000000">SignoutComponent</text>
</g>
<!-- SignoutComponent&#45;&gt;AuthenticationModule -->
<g id="edge4" class="edge">
<title>SignoutComponent&#45;&gt;AuthenticationModule</title>
<path fill="none" stroke="#000000" d="M288.6233,-104C295.3659,-104 299.8377,-104 299.8377,-104 299.8377,-104 299.8377,-140.8939 299.8377,-140.8939"/>
<polygon fill="#000000" stroke="#000000" points="296.3377,-140.8938 299.8377,-150.8939 303.3377,-140.8939 296.3377,-140.8938"/>
</g>
<!-- SignupComponent -->
<g id="node5" class="node">
<title>SignupComponent</title>
<polygon fill="#ffffb3" stroke="#000000" points="145.5056,-122 24.4944,-122 24.4944,-86 145.5056,-86 145.5056,-122"/>
<text text-anchor="middle" x="85" y="-99.8" font-family="Times,serif" font-size="14.00" fill="#000000">SignupComponent</text>
</g>
<!-- SignupComponent&#45;&gt;AuthenticationModule -->
<g id="edge5" class="edge">
<title>SignupComponent&#45;&gt;AuthenticationModule</title>
<path fill="none" stroke="#000000" d="M85,-122.1061C85,-141.3391 85,-169 85,-169 85,-169 283.6197,-169 283.6197,-169"/>
<polygon fill="#000000" stroke="#000000" points="283.6197,-172.5001 293.6197,-169 283.6197,-165.5001 283.6197,-172.5001"/>
</g>
</g>
</svg>
